G04 #@! TF.GenerationSoftware,KiCad,Pcbnew,(5.0.0-rc2-dev-787-g2d812c2)*
G04 #@! TF.CreationDate,2018-05-25T09:12:23+09:00*
G04 #@! TF.ProjectId,BLOCKSmodular-hardware,424C4F434B536D6F64756C61722D6861,rev?*
G04 #@! TF.SameCoordinates,Original*
G04 #@! TF.FileFunction,Soldermask,Bot*
G04 #@! TF.FilePolarity,Negative*
%FSLAX46Y46*%
G04 Gerber Fmt 4.6, Leading zero omitted, Abs format (unit mm)*
G04 Created by KiCad (PCBNEW (5.0.0-rc2-dev-787-g2d812c2)) date *
%MOMM*%
%LPD*%
G01*
G04 APERTURE LIST*
%ADD10R,1.500000X3.000000*%
%ADD11C,2.000000*%
%ADD12R,1.100000X2.300000*%
%ADD13C,4.400000*%
%ADD14R,1.700000X1.700000*%
%ADD15O,2.100000X2.100000*%
%ADD16R,2.000000X2.600000*%
%ADD17O,2.400000X3.000000*%
G04 APERTURE END LIST*
D10*
G04 #@! TO.C,SW1*
X67130000Y-47930000D03*
X67130000Y-53120000D03*
X77290000Y-53010000D03*
X77290000Y-47930000D03*
D11*
X74750000Y-45390000D03*
X72210000Y-45390000D03*
X69670000Y-45390000D03*
X69670000Y-55550000D03*
X74750000Y-55550000D03*
X72210000Y-55550000D03*
G04 #@! TD*
D12*
G04 #@! TO.C,J1*
X98920000Y-114000000D03*
X90620000Y-114000000D03*
X87520000Y-114000000D03*
D13*
X94000000Y-114000000D03*
G04 #@! TD*
D12*
G04 #@! TO.C,J2*
X102080000Y-114000000D03*
X110380000Y-114000000D03*
X113480000Y-114000000D03*
D13*
X107000000Y-114000000D03*
G04 #@! TD*
D12*
G04 #@! TO.C,J3*
X98920000Y-104000000D03*
X90620000Y-104000000D03*
X87520000Y-104000000D03*
D13*
X94000000Y-104000000D03*
G04 #@! TD*
D12*
G04 #@! TO.C,J5*
X102080000Y-104000000D03*
X110380000Y-104000000D03*
X113480000Y-104000000D03*
D13*
X107000000Y-104000000D03*
G04 #@! TD*
D12*
G04 #@! TO.C,J6*
X98920000Y-94000000D03*
X90620000Y-94000000D03*
X87520000Y-94000000D03*
D13*
X94000000Y-94000000D03*
G04 #@! TD*
D12*
G04 #@! TO.C,J7*
X102080000Y-94000000D03*
X110380000Y-94000000D03*
X113480000Y-94000000D03*
D13*
X107000000Y-94000000D03*
G04 #@! TD*
D12*
G04 #@! TO.C,J8*
X98920000Y-84000000D03*
X90620000Y-84000000D03*
X87520000Y-84000000D03*
D13*
X94000000Y-84000000D03*
G04 #@! TD*
D12*
G04 #@! TO.C,J9*
X102080000Y-84000000D03*
X110380000Y-84000000D03*
X113480000Y-84000000D03*
D13*
X107000000Y-84000000D03*
G04 #@! TD*
D12*
G04 #@! TO.C,J11*
X75920000Y-94000000D03*
X67620000Y-94000000D03*
X64520000Y-94000000D03*
D13*
X71000000Y-94000000D03*
G04 #@! TD*
D12*
G04 #@! TO.C,J14*
X139080000Y-104000000D03*
X147380000Y-104000000D03*
X150480000Y-104000000D03*
D13*
X144000000Y-104000000D03*
G04 #@! TD*
D14*
G04 #@! TO.C,J4*
X124730000Y-74230000D03*
D15*
X124730000Y-71690000D03*
X124730000Y-69150000D03*
X124730000Y-66610000D03*
X124730000Y-64070000D03*
X124730000Y-61530000D03*
X124730000Y-58990000D03*
X124730000Y-56450000D03*
X124730000Y-53910000D03*
X124730000Y-51370000D03*
G04 #@! TD*
D12*
G04 #@! TO.C,J19*
X139080000Y-84000000D03*
X147380000Y-84000000D03*
X150480000Y-84000000D03*
D13*
X144000000Y-84000000D03*
G04 #@! TD*
D12*
G04 #@! TO.C,J12*
X75920000Y-84000000D03*
X67620000Y-84000000D03*
X64520000Y-84000000D03*
D13*
X71000000Y-84000000D03*
G04 #@! TD*
D12*
G04 #@! TO.C,J13*
X139080000Y-114000000D03*
X147380000Y-114000000D03*
X150480000Y-114000000D03*
D13*
X144000000Y-114000000D03*
G04 #@! TD*
D14*
G04 #@! TO.C,J17*
X96310000Y-31740000D03*
D15*
X96310000Y-34280000D03*
X98850000Y-31740000D03*
X98850000Y-34280000D03*
X101390000Y-31740000D03*
X101390000Y-34280000D03*
X103930000Y-31740000D03*
X103930000Y-34280000D03*
X106470000Y-31740000D03*
X106470000Y-34280000D03*
X109010000Y-31740000D03*
X109010000Y-34280000D03*
X111550000Y-31740000D03*
X111550000Y-34280000D03*
X114090000Y-31740000D03*
X114090000Y-34280000D03*
G04 #@! TD*
D14*
G04 #@! TO.C,J15*
X84060000Y-51390000D03*
D15*
X81520000Y-51390000D03*
X84060000Y-53930000D03*
X81520000Y-53930000D03*
X84060000Y-56470000D03*
X81520000Y-56470000D03*
X84060000Y-59010000D03*
X81520000Y-59010000D03*
X84060000Y-61550000D03*
X81520000Y-61550000D03*
X84060000Y-64090000D03*
X81520000Y-64090000D03*
X84060000Y-66630000D03*
X81520000Y-66630000D03*
X84060000Y-69170000D03*
X81520000Y-69170000D03*
X84060000Y-71710000D03*
X81520000Y-71710000D03*
X84060000Y-74250000D03*
X81520000Y-74250000D03*
X84060000Y-76790000D03*
X81520000Y-76790000D03*
X84060000Y-79330000D03*
X81520000Y-79330000D03*
X84060000Y-81870000D03*
X81520000Y-81870000D03*
X84060000Y-84410000D03*
X81520000Y-84410000D03*
X84060000Y-86950000D03*
X81520000Y-86950000D03*
X84060000Y-89490000D03*
X81520000Y-89490000D03*
X84060000Y-92030000D03*
X81520000Y-92030000D03*
X84060000Y-94570000D03*
X81520000Y-94570000D03*
X84060000Y-97110000D03*
X81520000Y-97110000D03*
X84060000Y-99650000D03*
X81520000Y-99650000D03*
X84060000Y-102190000D03*
X81520000Y-102190000D03*
X84060000Y-104730000D03*
X81520000Y-104730000D03*
X84060000Y-107270000D03*
X81520000Y-107270000D03*
G04 #@! TD*
D14*
G04 #@! TO.C,J16*
X132330000Y-51410000D03*
D15*
X129790000Y-51410000D03*
X132330000Y-53950000D03*
X129790000Y-53950000D03*
X132330000Y-56490000D03*
X129790000Y-56490000D03*
X132330000Y-59030000D03*
X129790000Y-59030000D03*
X132330000Y-61570000D03*
X129790000Y-61570000D03*
X132330000Y-64110000D03*
X129790000Y-64110000D03*
X132330000Y-66650000D03*
X129790000Y-66650000D03*
X132330000Y-69190000D03*
X129790000Y-69190000D03*
X132330000Y-71730000D03*
X129790000Y-71730000D03*
X132330000Y-74270000D03*
X129790000Y-74270000D03*
X132330000Y-76810000D03*
X129790000Y-76810000D03*
X132330000Y-79350000D03*
X129790000Y-79350000D03*
X132330000Y-81890000D03*
X129790000Y-81890000D03*
X132330000Y-84430000D03*
X129790000Y-84430000D03*
X132330000Y-86970000D03*
X129790000Y-86970000D03*
X132330000Y-89510000D03*
X129790000Y-89510000D03*
X132330000Y-92050000D03*
X129790000Y-92050000D03*
X132330000Y-94590000D03*
X129790000Y-94590000D03*
X132330000Y-97130000D03*
X129790000Y-97130000D03*
X132330000Y-99670000D03*
X129790000Y-99670000D03*
X132330000Y-102210000D03*
X129790000Y-102210000D03*
X132330000Y-104750000D03*
X129790000Y-104750000D03*
X132330000Y-107290000D03*
X129790000Y-107290000D03*
G04 #@! TD*
D12*
G04 #@! TO.C,J18*
X139080000Y-94000000D03*
X147380000Y-94000000D03*
X150480000Y-94000000D03*
D13*
X144000000Y-94000000D03*
G04 #@! TD*
D16*
G04 #@! TO.C,J10*
X64740000Y-114170000D03*
D17*
X67280000Y-114170000D03*
X69820000Y-114170000D03*
G04 #@! TD*
M02*
