G04 #@! TF.GenerationSoftware,KiCad,Pcbnew,(5.0.0-rc2-dev-787-g2d812c2)*
G04 #@! TF.CreationDate,2018-05-25T09:12:23+09:00*
G04 #@! TF.ProjectId,BLOCKSmodular-hardware,424C4F434B536D6F64756C61722D6861,rev?*
G04 #@! TF.SameCoordinates,Original*
G04 #@! TF.FileFunction,Copper,L2,Bot,Signal*
G04 #@! TF.FilePolarity,Positive*
%FSLAX46Y46*%
G04 Gerber Fmt 4.6, Leading zero omitted, Abs format (unit mm)*
G04 Created by KiCad (PCBNEW (5.0.0-rc2-dev-787-g2d812c2)) date *
%MOMM*%
%LPD*%
G01*
G04 APERTURE LIST*
G04 #@! TA.AperFunction,ComponentPad*
%ADD10R,1.500000X3.000000*%
G04 #@! TD*
G04 #@! TA.AperFunction,ComponentPad*
%ADD11C,1.600000*%
G04 #@! TD*
G04 #@! TA.AperFunction,ComponentPad*
%ADD12R,1.100000X2.300000*%
G04 #@! TD*
G04 #@! TA.AperFunction,WasherPad*
%ADD13C,4.000000*%
G04 #@! TD*
G04 #@! TA.AperFunction,ComponentPad*
%ADD14R,1.700000X1.700000*%
G04 #@! TD*
G04 #@! TA.AperFunction,ComponentPad*
%ADD15O,1.700000X1.700000*%
G04 #@! TD*
G04 #@! TA.AperFunction,ComponentPad*
%ADD16R,2.000000X2.600000*%
G04 #@! TD*
G04 #@! TA.AperFunction,ComponentPad*
%ADD17O,2.000000X2.600000*%
G04 #@! TD*
G04 #@! TA.AperFunction,ViaPad*
%ADD18C,2.200000*%
G04 #@! TD*
G04 #@! TA.AperFunction,ViaPad*
%ADD19C,1.500000*%
G04 #@! TD*
G04 #@! TA.AperFunction,ViaPad*
%ADD20C,1.000000*%
G04 #@! TD*
G04 #@! TA.AperFunction,ViaPad*
%ADD21C,1.400000*%
G04 #@! TD*
G04 #@! TA.AperFunction,Conductor*
%ADD22C,0.800000*%
G04 #@! TD*
G04 #@! TA.AperFunction,Conductor*
%ADD23C,0.400000*%
G04 #@! TD*
G04 #@! TA.AperFunction,Conductor*
%ADD24C,0.254000*%
G04 #@! TD*
G04 APERTURE END LIST*
D10*
G04 #@! TO.P,SW1,*
G04 #@! TO.N,*
X67130000Y-47930000D03*
X67130000Y-53120000D03*
X77290000Y-53010000D03*
X77290000Y-47930000D03*
D11*
G04 #@! TO.P,SW1,1*
G04 #@! TO.N,Net-(J16-Pad27)*
X74750000Y-45390000D03*
G04 #@! TO.P,SW1,3*
G04 #@! TO.N,Net-(J15-Pad3)*
X72210000Y-45390000D03*
G04 #@! TO.P,SW1,5*
G04 #@! TO.N,Net-(J16-Pad29)*
X69670000Y-45390000D03*
G04 #@! TO.P,SW1,6*
G04 #@! TO.N,Net-(J15-Pad15)*
X69670000Y-55550000D03*
G04 #@! TO.P,SW1,2*
G04 #@! TO.N,Net-(J15-Pad11)*
X74750000Y-55550000D03*
G04 #@! TO.P,SW1,4*
G04 #@! TO.N,Net-(J15-Pad13)*
X72210000Y-55550000D03*
G04 #@! TD*
D12*
G04 #@! TO.P,J1,3*
G04 #@! TO.N,Net-(J1-Pad3)*
X98920000Y-114000000D03*
G04 #@! TO.P,J1,2*
G04 #@! TO.N,N/C*
X90620000Y-114000000D03*
G04 #@! TO.P,J1,1*
G04 #@! TO.N,GND*
X87520000Y-114000000D03*
D13*
G04 #@! TO.P,J1,*
G04 #@! TO.N,*
X94000000Y-114000000D03*
G04 #@! TD*
D12*
G04 #@! TO.P,J2,3*
G04 #@! TO.N,Net-(J2-Pad3)*
X102080000Y-114000000D03*
G04 #@! TO.P,J2,2*
G04 #@! TO.N,N/C*
X110380000Y-114000000D03*
G04 #@! TO.P,J2,1*
G04 #@! TO.N,GND*
X113480000Y-114000000D03*
D13*
G04 #@! TO.P,J2,*
G04 #@! TO.N,*
X107000000Y-114000000D03*
G04 #@! TD*
D12*
G04 #@! TO.P,J3,3*
G04 #@! TO.N,Net-(J3-Pad3)*
X98920000Y-104000000D03*
G04 #@! TO.P,J3,2*
G04 #@! TO.N,N/C*
X90620000Y-104000000D03*
G04 #@! TO.P,J3,1*
G04 #@! TO.N,GND*
X87520000Y-104000000D03*
D13*
G04 #@! TO.P,J3,*
G04 #@! TO.N,*
X94000000Y-104000000D03*
G04 #@! TD*
D12*
G04 #@! TO.P,J5,3*
G04 #@! TO.N,Net-(J5-Pad3)*
X102080000Y-104000000D03*
G04 #@! TO.P,J5,2*
G04 #@! TO.N,N/C*
X110380000Y-104000000D03*
G04 #@! TO.P,J5,1*
G04 #@! TO.N,GND*
X113480000Y-104000000D03*
D13*
G04 #@! TO.P,J5,*
G04 #@! TO.N,*
X107000000Y-104000000D03*
G04 #@! TD*
D12*
G04 #@! TO.P,J6,3*
G04 #@! TO.N,Net-(J6-Pad3)*
X98920000Y-94000000D03*
G04 #@! TO.P,J6,2*
G04 #@! TO.N,N/C*
X90620000Y-94000000D03*
G04 #@! TO.P,J6,1*
G04 #@! TO.N,GND*
X87520000Y-94000000D03*
D13*
G04 #@! TO.P,J6,*
G04 #@! TO.N,*
X94000000Y-94000000D03*
G04 #@! TD*
D12*
G04 #@! TO.P,J7,3*
G04 #@! TO.N,Net-(J7-Pad3)*
X102080000Y-94000000D03*
G04 #@! TO.P,J7,2*
G04 #@! TO.N,N/C*
X110380000Y-94000000D03*
G04 #@! TO.P,J7,1*
G04 #@! TO.N,GND*
X113480000Y-94000000D03*
D13*
G04 #@! TO.P,J7,*
G04 #@! TO.N,*
X107000000Y-94000000D03*
G04 #@! TD*
D12*
G04 #@! TO.P,J8,3*
G04 #@! TO.N,Net-(J8-Pad3)*
X98920000Y-84000000D03*
G04 #@! TO.P,J8,2*
G04 #@! TO.N,N/C*
X90620000Y-84000000D03*
G04 #@! TO.P,J8,1*
G04 #@! TO.N,GND*
X87520000Y-84000000D03*
D13*
G04 #@! TO.P,J8,*
G04 #@! TO.N,*
X94000000Y-84000000D03*
G04 #@! TD*
D12*
G04 #@! TO.P,J9,3*
G04 #@! TO.N,Net-(J9-Pad3)*
X102080000Y-84000000D03*
G04 #@! TO.P,J9,2*
G04 #@! TO.N,N/C*
X110380000Y-84000000D03*
G04 #@! TO.P,J9,1*
G04 #@! TO.N,GND*
X113480000Y-84000000D03*
D13*
G04 #@! TO.P,J9,*
G04 #@! TO.N,*
X107000000Y-84000000D03*
G04 #@! TD*
D12*
G04 #@! TO.P,J11,3*
G04 #@! TO.N,Net-(J11-Pad3)*
X75920000Y-94000000D03*
G04 #@! TO.P,J11,2*
G04 #@! TO.N,N/C*
X67620000Y-94000000D03*
G04 #@! TO.P,J11,1*
G04 #@! TO.N,GND*
X64520000Y-94000000D03*
D13*
G04 #@! TO.P,J11,*
G04 #@! TO.N,*
X71000000Y-94000000D03*
G04 #@! TD*
D12*
G04 #@! TO.P,J14,3*
G04 #@! TO.N,Net-(J14-Pad3)*
X139080000Y-104000000D03*
G04 #@! TO.P,J14,2*
G04 #@! TO.N,N/C*
X147380000Y-104000000D03*
G04 #@! TO.P,J14,1*
G04 #@! TO.N,GND*
X150480000Y-104000000D03*
D13*
G04 #@! TO.P,J14,*
G04 #@! TO.N,*
X144000000Y-104000000D03*
G04 #@! TD*
D14*
G04 #@! TO.P,J4,1*
G04 #@! TO.N,Net-(J4-Pad1)*
X124730000Y-74230000D03*
D15*
G04 #@! TO.P,J4,2*
G04 #@! TO.N,Net-(J4-Pad2)*
X124730000Y-71690000D03*
G04 #@! TO.P,J4,3*
G04 #@! TO.N,Net-(J4-Pad3)*
X124730000Y-69150000D03*
G04 #@! TO.P,J4,4*
G04 #@! TO.N,Net-(J4-Pad4)*
X124730000Y-66610000D03*
G04 #@! TO.P,J4,5*
G04 #@! TO.N,Net-(J4-Pad5)*
X124730000Y-64070000D03*
G04 #@! TO.P,J4,6*
G04 #@! TO.N,Net-(J4-Pad6)*
X124730000Y-61530000D03*
G04 #@! TO.P,J4,7*
G04 #@! TO.N,Net-(J4-Pad7)*
X124730000Y-58990000D03*
G04 #@! TO.P,J4,8*
G04 #@! TO.N,Net-(J4-Pad8)*
X124730000Y-56450000D03*
G04 #@! TO.P,J4,9*
G04 #@! TO.N,N/C*
X124730000Y-53910000D03*
G04 #@! TO.P,J4,10*
G04 #@! TO.N,GND*
X124730000Y-51370000D03*
G04 #@! TD*
D12*
G04 #@! TO.P,J19,3*
G04 #@! TO.N,Net-(J19-Pad3)*
X139080000Y-84000000D03*
G04 #@! TO.P,J19,2*
G04 #@! TO.N,N/C*
X147380000Y-84000000D03*
G04 #@! TO.P,J19,1*
G04 #@! TO.N,GND*
X150480000Y-84000000D03*
D13*
G04 #@! TO.P,J19,*
G04 #@! TO.N,*
X144000000Y-84000000D03*
G04 #@! TD*
D12*
G04 #@! TO.P,J12,3*
G04 #@! TO.N,Net-(J12-Pad3)*
X75920000Y-84000000D03*
G04 #@! TO.P,J12,2*
G04 #@! TO.N,N/C*
X67620000Y-84000000D03*
G04 #@! TO.P,J12,1*
G04 #@! TO.N,GND*
X64520000Y-84000000D03*
D13*
G04 #@! TO.P,J12,*
G04 #@! TO.N,*
X71000000Y-84000000D03*
G04 #@! TD*
D12*
G04 #@! TO.P,J13,3*
G04 #@! TO.N,Net-(J13-Pad3)*
X139080000Y-114000000D03*
G04 #@! TO.P,J13,2*
G04 #@! TO.N,N/C*
X147380000Y-114000000D03*
G04 #@! TO.P,J13,1*
G04 #@! TO.N,GND*
X150480000Y-114000000D03*
D13*
G04 #@! TO.P,J13,*
G04 #@! TO.N,*
X144000000Y-114000000D03*
G04 #@! TD*
D14*
G04 #@! TO.P,J17,1*
G04 #@! TO.N,N/C*
X96310000Y-31740000D03*
D15*
G04 #@! TO.P,J17,2*
X96310000Y-34280000D03*
G04 #@! TO.P,J17,3*
X98850000Y-31740000D03*
G04 #@! TO.P,J17,4*
X98850000Y-34280000D03*
G04 #@! TO.P,J17,5*
G04 #@! TO.N,Net-(D1-Pad2)*
X101390000Y-31740000D03*
G04 #@! TO.P,J17,6*
X101390000Y-34280000D03*
G04 #@! TO.P,J17,7*
G04 #@! TO.N,Net-(D2-Pad2)*
X103930000Y-31740000D03*
G04 #@! TO.P,J17,8*
X103930000Y-34280000D03*
G04 #@! TO.P,J17,9*
G04 #@! TO.N,GND*
X106470000Y-31740000D03*
G04 #@! TO.P,J17,10*
X106470000Y-34280000D03*
G04 #@! TO.P,J17,11*
X109010000Y-31740000D03*
G04 #@! TO.P,J17,12*
X109010000Y-34280000D03*
G04 #@! TO.P,J17,13*
X111550000Y-31740000D03*
G04 #@! TO.P,J17,14*
X111550000Y-34280000D03*
G04 #@! TO.P,J17,15*
G04 #@! TO.N,Net-(D3-Pad1)*
X114090000Y-31740000D03*
G04 #@! TO.P,J17,16*
X114090000Y-34280000D03*
G04 #@! TD*
D14*
G04 #@! TO.P,J15,1*
G04 #@! TO.N,GND*
X84060000Y-51390000D03*
D15*
G04 #@! TO.P,J15,2*
X81520000Y-51390000D03*
G04 #@! TO.P,J15,3*
G04 #@! TO.N,Net-(J15-Pad3)*
X84060000Y-53930000D03*
G04 #@! TO.P,J15,4*
G04 #@! TO.N,N/C*
X81520000Y-53930000D03*
G04 #@! TO.P,J15,5*
G04 #@! TO.N,+5V*
X84060000Y-56470000D03*
G04 #@! TO.P,J15,6*
G04 #@! TO.N,N/C*
X81520000Y-56470000D03*
G04 #@! TO.P,J15,7*
X84060000Y-59010000D03*
G04 #@! TO.P,J15,8*
X81520000Y-59010000D03*
G04 #@! TO.P,J15,9*
X84060000Y-61550000D03*
G04 #@! TO.P,J15,10*
X81520000Y-61550000D03*
G04 #@! TO.P,J15,11*
G04 #@! TO.N,Net-(J15-Pad11)*
X84060000Y-64090000D03*
G04 #@! TO.P,J15,12*
G04 #@! TO.N,N/C*
X81520000Y-64090000D03*
G04 #@! TO.P,J15,13*
G04 #@! TO.N,Net-(J15-Pad13)*
X84060000Y-66630000D03*
G04 #@! TO.P,J15,14*
G04 #@! TO.N,N/C*
X81520000Y-66630000D03*
G04 #@! TO.P,J15,15*
G04 #@! TO.N,Net-(J15-Pad15)*
X84060000Y-69170000D03*
G04 #@! TO.P,J15,16*
G04 #@! TO.N,N/C*
X81520000Y-69170000D03*
G04 #@! TO.P,J15,17*
X84060000Y-71710000D03*
G04 #@! TO.P,J15,18*
X81520000Y-71710000D03*
G04 #@! TO.P,J15,19*
X84060000Y-74250000D03*
G04 #@! TO.P,J15,20*
X81520000Y-74250000D03*
G04 #@! TO.P,J15,21*
X84060000Y-76790000D03*
G04 #@! TO.P,J15,22*
X81520000Y-76790000D03*
G04 #@! TO.P,J15,23*
X84060000Y-79330000D03*
G04 #@! TO.P,J15,24*
X81520000Y-79330000D03*
G04 #@! TO.P,J15,25*
X84060000Y-81870000D03*
G04 #@! TO.P,J15,26*
X81520000Y-81870000D03*
G04 #@! TO.P,J15,27*
X84060000Y-84410000D03*
G04 #@! TO.P,J15,28*
X81520000Y-84410000D03*
G04 #@! TO.P,J15,29*
X84060000Y-86950000D03*
G04 #@! TO.P,J15,30*
X81520000Y-86950000D03*
G04 #@! TO.P,J15,31*
X84060000Y-89490000D03*
G04 #@! TO.P,J15,32*
X81520000Y-89490000D03*
G04 #@! TO.P,J15,33*
X84060000Y-92030000D03*
G04 #@! TO.P,J15,34*
X81520000Y-92030000D03*
G04 #@! TO.P,J15,35*
X84060000Y-94570000D03*
G04 #@! TO.P,J15,36*
X81520000Y-94570000D03*
G04 #@! TO.P,J15,37*
X84060000Y-97110000D03*
G04 #@! TO.P,J15,38*
X81520000Y-97110000D03*
G04 #@! TO.P,J15,39*
X84060000Y-99650000D03*
G04 #@! TO.P,J15,40*
X81520000Y-99650000D03*
G04 #@! TO.P,J15,41*
X84060000Y-102190000D03*
G04 #@! TO.P,J15,42*
X81520000Y-102190000D03*
G04 #@! TO.P,J15,43*
X84060000Y-104730000D03*
G04 #@! TO.P,J15,44*
X81520000Y-104730000D03*
G04 #@! TO.P,J15,45*
X84060000Y-107270000D03*
G04 #@! TO.P,J15,46*
X81520000Y-107270000D03*
G04 #@! TD*
D14*
G04 #@! TO.P,J16,1*
G04 #@! TO.N,GND*
X132330000Y-51410000D03*
D15*
G04 #@! TO.P,J16,2*
X129790000Y-51410000D03*
G04 #@! TO.P,J16,3*
G04 #@! TO.N,N/C*
X132330000Y-53950000D03*
G04 #@! TO.P,J16,4*
X129790000Y-53950000D03*
G04 #@! TO.P,J16,5*
X132330000Y-56490000D03*
G04 #@! TO.P,J16,6*
X129790000Y-56490000D03*
G04 #@! TO.P,J16,7*
X132330000Y-59030000D03*
G04 #@! TO.P,J16,8*
G04 #@! TO.N,Net-(J16-Pad8)*
X129790000Y-59030000D03*
G04 #@! TO.P,J16,9*
G04 #@! TO.N,N/C*
X132330000Y-61570000D03*
G04 #@! TO.P,J16,10*
G04 #@! TO.N,Net-(J16-Pad10)*
X129790000Y-61570000D03*
G04 #@! TO.P,J16,11*
G04 #@! TO.N,N/C*
X132330000Y-64110000D03*
G04 #@! TO.P,J16,12*
G04 #@! TO.N,Net-(J16-Pad12)*
X129790000Y-64110000D03*
G04 #@! TO.P,J16,13*
G04 #@! TO.N,N/C*
X132330000Y-66650000D03*
G04 #@! TO.P,J16,14*
X129790000Y-66650000D03*
G04 #@! TO.P,J16,15*
X132330000Y-69190000D03*
G04 #@! TO.P,J16,16*
G04 #@! TO.N,Net-(J16-Pad16)*
X129790000Y-69190000D03*
G04 #@! TO.P,J16,17*
G04 #@! TO.N,N/C*
X132330000Y-71730000D03*
G04 #@! TO.P,J16,18*
X129790000Y-71730000D03*
G04 #@! TO.P,J16,19*
X132330000Y-74270000D03*
G04 #@! TO.P,J16,20*
X129790000Y-74270000D03*
G04 #@! TO.P,J16,21*
X132330000Y-76810000D03*
G04 #@! TO.P,J16,22*
X129790000Y-76810000D03*
G04 #@! TO.P,J16,23*
X132330000Y-79350000D03*
G04 #@! TO.P,J16,24*
X129790000Y-79350000D03*
G04 #@! TO.P,J16,25*
X132330000Y-81890000D03*
G04 #@! TO.P,J16,26*
X129790000Y-81890000D03*
G04 #@! TO.P,J16,27*
G04 #@! TO.N,Net-(J16-Pad27)*
X132330000Y-84430000D03*
G04 #@! TO.P,J16,28*
G04 #@! TO.N,N/C*
X129790000Y-84430000D03*
G04 #@! TO.P,J16,29*
G04 #@! TO.N,Net-(J16-Pad29)*
X132330000Y-86970000D03*
G04 #@! TO.P,J16,30*
G04 #@! TO.N,N/C*
X129790000Y-86970000D03*
G04 #@! TO.P,J16,31*
X132330000Y-89510000D03*
G04 #@! TO.P,J16,32*
X129790000Y-89510000D03*
G04 #@! TO.P,J16,33*
X132330000Y-92050000D03*
G04 #@! TO.P,J16,34*
X129790000Y-92050000D03*
G04 #@! TO.P,J16,35*
X132330000Y-94590000D03*
G04 #@! TO.P,J16,36*
X129790000Y-94590000D03*
G04 #@! TO.P,J16,37*
X132330000Y-97130000D03*
G04 #@! TO.P,J16,38*
X129790000Y-97130000D03*
G04 #@! TO.P,J16,39*
X132330000Y-99670000D03*
G04 #@! TO.P,J16,40*
X129790000Y-99670000D03*
G04 #@! TO.P,J16,41*
X132330000Y-102210000D03*
G04 #@! TO.P,J16,42*
X129790000Y-102210000D03*
G04 #@! TO.P,J16,43*
X132330000Y-104750000D03*
G04 #@! TO.P,J16,44*
X129790000Y-104750000D03*
G04 #@! TO.P,J16,45*
X132330000Y-107290000D03*
G04 #@! TO.P,J16,46*
X129790000Y-107290000D03*
G04 #@! TD*
D12*
G04 #@! TO.P,J18,3*
G04 #@! TO.N,Net-(J18-Pad3)*
X139080000Y-94000000D03*
G04 #@! TO.P,J18,2*
G04 #@! TO.N,N/C*
X147380000Y-94000000D03*
G04 #@! TO.P,J18,1*
G04 #@! TO.N,GND*
X150480000Y-94000000D03*
D13*
G04 #@! TO.P,J18,*
G04 #@! TO.N,*
X144000000Y-94000000D03*
G04 #@! TD*
D16*
G04 #@! TO.P,J10,1*
G04 #@! TO.N,Net-(J10-Pad1)*
X64740000Y-114170000D03*
D17*
G04 #@! TO.P,J10,2*
G04 #@! TO.N,Net-(J10-Pad2)*
X67280000Y-114170000D03*
G04 #@! TO.P,J10,3*
G04 #@! TO.N,GND*
X69820000Y-114170000D03*
G04 #@! TD*
D18*
G04 #@! TO.N,GND*
X109030000Y-41870000D03*
D19*
X84070000Y-30900000D03*
D20*
X110170000Y-47390000D03*
X74410000Y-60670000D03*
X69720000Y-72250000D03*
X74710000Y-78420000D03*
X94720000Y-37250000D03*
X94720000Y-47250000D03*
X109720000Y-27250000D03*
X119720000Y-27250000D03*
X129720000Y-27250000D03*
X139720000Y-27250000D03*
X149720000Y-27250000D03*
X149720000Y-37250000D03*
X139720000Y-37250000D03*
X129720000Y-37250000D03*
X152720000Y-52250000D03*
X142220000Y-54750000D03*
X137220000Y-117250000D03*
X127220000Y-117250000D03*
X67220000Y-102250000D03*
X62220000Y-27250000D03*
X72220000Y-27250000D03*
X82220000Y-27250000D03*
X82220000Y-37250000D03*
X72220000Y-37250000D03*
X62220000Y-37250000D03*
X62220000Y-49750000D03*
X102220000Y-72250000D03*
X102220000Y-59750000D03*
X100510000Y-89010000D03*
X97170000Y-100590000D03*
D19*
G04 #@! TO.N,+12V*
X135730000Y-66760000D03*
X114010000Y-78500000D03*
D21*
X113930000Y-62000000D03*
D19*
X103210000Y-51780000D03*
X99120000Y-67550002D03*
D21*
G04 #@! TO.N,-12V*
X115280000Y-64410000D03*
D19*
X114820000Y-47849994D03*
D20*
G04 #@! TO.N,Net-(J4-Pad3)*
X117760000Y-70410000D03*
G04 #@! TO.N,Net-(J4-Pad1)*
X115080000Y-72330000D03*
G04 #@! TO.N,Net-(J4-Pad4)*
X115340000Y-70550000D03*
G04 #@! TO.N,Net-(J4-Pad5)*
X116429347Y-55394753D03*
G04 #@! TO.N,Net-(J4-Pad7)*
X116500000Y-53594741D03*
G04 #@! TO.N,Net-(J1-Pad3)*
X109760000Y-80430000D03*
G04 #@! TO.N,Net-(J2-Pad3)*
X121320000Y-85850000D03*
G04 #@! TO.N,Net-(J3-Pad3)*
X119519998Y-72016334D03*
X114520000Y-96850000D03*
G04 #@! TO.N,Net-(J5-Pad3)*
X111890000Y-70430000D03*
X112110000Y-99100000D03*
G04 #@! TO.N,Net-(J6-Pad3)*
X108070000Y-61100000D03*
G04 #@! TO.N,Net-(J8-Pad3)*
X121400000Y-52050000D03*
X116720000Y-86750000D03*
G04 #@! TO.N,Net-(J9-Pad3)*
X111389991Y-53711210D03*
G04 #@! TO.N,Net-(J11-Pad3)*
X95054420Y-64856568D03*
X96467930Y-77621834D03*
G04 #@! TO.N,Net-(J19-Pad3)*
X149421609Y-62916732D03*
G04 #@! TO.N,Net-(J10-Pad1)*
X92540000Y-63690000D03*
G04 #@! TO.N,Net-(J10-Pad2)*
X89670000Y-68380000D03*
G04 #@! TO.N,Net-(J13-Pad3)*
X142300000Y-61390000D03*
G04 #@! TO.N,Net-(J16-Pad12)*
X145260000Y-70370000D03*
G04 #@! TO.N,Net-(J16-Pad16)*
X145950000Y-65440000D03*
G04 #@! TO.N,Net-(J16-Pad10)*
X144070000Y-67960000D03*
G04 #@! TD*
D22*
G04 #@! TO.N,GND*
X84060000Y-30910000D02*
X84070000Y-30900000D01*
X84060000Y-51390000D02*
X84060000Y-30910000D01*
G04 #@! TO.N,+12V*
X113930000Y-62000000D02*
X113930000Y-78420000D01*
X113930000Y-78420000D02*
X114010000Y-78500000D01*
X103210000Y-51780000D02*
X99120000Y-55870000D01*
X99120000Y-55870000D02*
X99120000Y-67550002D01*
X104020000Y-52550000D02*
X103250000Y-51780000D01*
X103250000Y-51780000D02*
X103210000Y-51780000D01*
X112080660Y-52550000D02*
X104020000Y-52550000D01*
X113930000Y-54399340D02*
X112080660Y-52550000D01*
X113930000Y-62000000D02*
X113930000Y-54399340D01*
X135730000Y-66760000D02*
X135730000Y-51630000D01*
X126999998Y-42899998D02*
X112090002Y-42899998D01*
X112090002Y-42899998D02*
X103210000Y-51780000D01*
X135730000Y-51630000D02*
X126999998Y-42899998D01*
G04 #@! TO.N,-12V*
X115280000Y-64410000D02*
X115280000Y-48309994D01*
X115280000Y-48309994D02*
X114820000Y-47849994D01*
D23*
G04 #@! TO.N,Net-(J4-Pad3)*
X119020000Y-69150000D02*
X117760000Y-70410000D01*
X124730000Y-69150000D02*
X119020000Y-69150000D01*
G04 #@! TO.N,Net-(J4-Pad1)*
X117874328Y-72330000D02*
X115080000Y-72330000D01*
X123480000Y-74230000D02*
X120366332Y-71116332D01*
X120366332Y-71116332D02*
X119087996Y-71116332D01*
X124730000Y-74230000D02*
X123480000Y-74230000D01*
X119087996Y-71116332D02*
X117874328Y-72330000D01*
G04 #@! TO.N,Net-(J4-Pad4)*
X124730000Y-66610000D02*
X119280000Y-66610000D01*
X119280000Y-66610000D02*
X115340000Y-70550000D01*
G04 #@! TO.N,Net-(J4-Pad5)*
X124730000Y-64070000D02*
X116429347Y-55769347D01*
X116429347Y-55769347D02*
X116429347Y-55394753D01*
G04 #@! TO.N,Net-(J4-Pad7)*
X121895259Y-58990000D02*
X116500000Y-53594741D01*
X124730000Y-58990000D02*
X121895259Y-58990000D01*
G04 #@! TO.N,Net-(J1-Pad3)*
X98920000Y-114000000D02*
X98920000Y-112560000D01*
X98920000Y-112560000D02*
X104599999Y-106880001D01*
X104599999Y-82847999D02*
X107017998Y-80430000D01*
X104599999Y-106880001D02*
X104599999Y-82847999D01*
X107017998Y-80430000D02*
X109760000Y-80430000D01*
G04 #@! TO.N,Net-(J2-Pad3)*
X121320000Y-86557106D02*
X121320000Y-85850000D01*
X102080000Y-114000000D02*
X102080000Y-112590000D01*
X113420000Y-107150000D02*
X121320000Y-99250000D01*
X121320000Y-99250000D02*
X121320000Y-86557106D01*
X107520000Y-107150000D02*
X113420000Y-107150000D01*
X102080000Y-112590000D02*
X107520000Y-107150000D01*
G04 #@! TO.N,Net-(J3-Pad3)*
X115019999Y-96350001D02*
X114520000Y-96850000D01*
X115520000Y-95850000D02*
X115019999Y-96350001D01*
X115520000Y-76016332D02*
X115520000Y-95850000D01*
X119519998Y-72016334D02*
X115520000Y-76016332D01*
G04 #@! TO.N,Net-(J5-Pad3)*
X111890000Y-98880000D02*
X112110000Y-99100000D01*
X111890000Y-70430000D02*
X111890000Y-98880000D01*
G04 #@! TO.N,Net-(J6-Pad3)*
X98920000Y-94000000D02*
X98920804Y-94000804D01*
X97820000Y-72850000D02*
X97820000Y-91430748D01*
X98920000Y-92530748D02*
X98920000Y-94000000D01*
X97820000Y-91430748D02*
X98920000Y-92530748D01*
X108070000Y-62600000D02*
X97820000Y-72850000D01*
X108070000Y-61100000D02*
X108070000Y-62600000D01*
G04 #@! TO.N,Net-(J8-Pad3)*
X126427468Y-53717468D02*
X126427468Y-77042532D01*
X117219999Y-86250001D02*
X116720000Y-86750000D01*
X121400000Y-52050000D02*
X121970001Y-52620001D01*
X121970001Y-52620001D02*
X125330001Y-52620001D01*
X125330001Y-52620001D02*
X126427468Y-53717468D01*
X126427468Y-77042532D02*
X117219999Y-86250001D01*
G04 #@! TO.N,Net-(J9-Pad3)*
X102080000Y-84000000D02*
X102080000Y-78018451D01*
X102080000Y-78018451D02*
X111389991Y-68708460D01*
X111389991Y-68708460D02*
X111389991Y-53711210D01*
G04 #@! TO.N,Net-(J11-Pad3)*
X95054420Y-76208324D02*
X95054420Y-64856568D01*
X96467930Y-77621834D02*
X95054420Y-76208324D01*
G04 #@! TO.N,Net-(J19-Pad3)*
X149421609Y-71928391D02*
X149421609Y-62916732D01*
X139080000Y-82270000D02*
X149421609Y-71928391D01*
X139080000Y-84000000D02*
X139080000Y-82270000D01*
G04 #@! TO.N,Net-(J10-Pad1)*
X64740000Y-114170000D02*
X64740000Y-113870000D01*
X79480000Y-99130000D02*
X79480000Y-76940000D01*
X64740000Y-113870000D02*
X79480000Y-99130000D01*
X84710000Y-75510000D02*
X85960000Y-74260000D01*
X79480000Y-76940000D02*
X80910000Y-75510000D01*
X85960000Y-65300000D02*
X87570000Y-63690000D01*
X80910000Y-75510000D02*
X84710000Y-75510000D01*
X85960000Y-74260000D02*
X85960000Y-65300000D01*
X87570000Y-63690000D02*
X92540000Y-63690000D01*
G04 #@! TO.N,Net-(J10-Pad2)*
X67280000Y-114170000D02*
X67280000Y-113870000D01*
X67280000Y-113870000D02*
X72160000Y-108990000D01*
X72160000Y-108990000D02*
X88250000Y-108990000D01*
X88250000Y-108990000D02*
X89669999Y-107570001D01*
X89669999Y-107570001D02*
X89669999Y-68380001D01*
X89669999Y-68380001D02*
X89670000Y-68380000D01*
G04 #@! TO.N,Net-(J13-Pad3)*
X139080000Y-114000000D02*
X139080000Y-112460722D01*
X147027976Y-69934026D02*
X147027976Y-63326811D01*
X139080000Y-112460722D02*
X134776940Y-108157662D01*
X147027976Y-63326811D02*
X147026811Y-63326811D01*
X147026811Y-63326811D02*
X146680000Y-62980000D01*
X146680000Y-62980000D02*
X143890000Y-62980000D01*
X143890000Y-62980000D02*
X142300000Y-61390000D01*
X134776940Y-108157662D02*
X134776940Y-82185062D01*
X134776940Y-82185062D02*
X147027976Y-69934026D01*
G04 #@! TO.N,Net-(J16-Pad12)*
X128132208Y-72172799D02*
X128132208Y-65767792D01*
X128132208Y-65767792D02*
X129790000Y-64110000D01*
X145260000Y-70370000D02*
X142649999Y-72980001D01*
X142649999Y-72980001D02*
X128939410Y-72980001D01*
X128939410Y-72980001D02*
X128132208Y-72172799D01*
G04 #@! TO.N,Net-(J16-Pad16)*
X145950000Y-65440000D02*
X145950000Y-67509084D01*
X145950000Y-67509084D02*
X143019083Y-70440001D01*
X143019083Y-70440001D02*
X131040001Y-70440001D01*
X131040001Y-70440001D02*
X130639999Y-70039999D01*
X130639999Y-70039999D02*
X129790000Y-69190000D01*
G04 #@! TO.N,Net-(J16-Pad10)*
X134180356Y-63266355D02*
X134180356Y-66912358D01*
X134180356Y-66912358D02*
X135227998Y-67960000D01*
X135227998Y-67960000D02*
X144070000Y-67960000D01*
X129790000Y-61570000D02*
X131046608Y-62826608D01*
X131046608Y-62826608D02*
X133740609Y-62826608D01*
X133740609Y-62826608D02*
X134180356Y-63266355D01*
X144049999Y-67939999D02*
X144070000Y-67960000D01*
G04 #@! TO.N,Net-(J16-Pad27)*
X132330000Y-84430000D02*
X131079999Y-85680001D01*
X131079999Y-85680001D02*
X129229997Y-85680001D01*
X129229997Y-85680001D02*
X124750000Y-90159998D01*
X124750000Y-90159998D02*
X124750000Y-105150002D01*
X70060270Y-50079730D02*
X74750000Y-45390000D01*
X124750000Y-105150002D02*
X112656477Y-117243525D01*
X112656477Y-117243525D02*
X64412901Y-117243525D01*
X64412901Y-117243525D02*
X62730762Y-115561386D01*
X62730762Y-115561386D02*
X62730762Y-54210208D01*
X62730762Y-54210208D02*
X66861240Y-50079730D01*
X66861240Y-50079730D02*
X70060270Y-50079730D01*
G04 #@! TD*
D24*
G04 #@! TO.N,GND*
G36*
X154570001Y-119460000D02*
X59990000Y-119460000D01*
X59990000Y-54210208D01*
X61879405Y-54210208D01*
X61895763Y-54292446D01*
X61895762Y-115479153D01*
X61879405Y-115561386D01*
X61895762Y-115643619D01*
X61895762Y-115643622D01*
X61944210Y-115887186D01*
X62128761Y-116163387D01*
X62198482Y-116209973D01*
X63764316Y-117775808D01*
X63810900Y-117845526D01*
X64087100Y-118030077D01*
X64412901Y-118094883D01*
X64495138Y-118078525D01*
X112574244Y-118078525D01*
X112656477Y-118094882D01*
X112738710Y-118078525D01*
X112738714Y-118078525D01*
X112982278Y-118030077D01*
X113258478Y-117845526D01*
X113305064Y-117775805D01*
X125282283Y-105798587D01*
X125352001Y-105752003D01*
X125536552Y-105475803D01*
X125585000Y-105232239D01*
X125585000Y-105232236D01*
X125601357Y-105150003D01*
X125585000Y-105067770D01*
X125585000Y-90505865D01*
X128451357Y-87639508D01*
X128719375Y-88040625D01*
X129017761Y-88240000D01*
X128719375Y-88439375D01*
X128391161Y-88930582D01*
X128275908Y-89510000D01*
X128391161Y-90089418D01*
X128719375Y-90580625D01*
X129017761Y-90780000D01*
X128719375Y-90979375D01*
X128391161Y-91470582D01*
X128275908Y-92050000D01*
X128391161Y-92629418D01*
X128719375Y-93120625D01*
X129017761Y-93320000D01*
X128719375Y-93519375D01*
X128391161Y-94010582D01*
X128275908Y-94590000D01*
X128391161Y-95169418D01*
X128719375Y-95660625D01*
X129017761Y-95860000D01*
X128719375Y-96059375D01*
X128391161Y-96550582D01*
X128275908Y-97130000D01*
X128391161Y-97709418D01*
X128719375Y-98200625D01*
X129017761Y-98400000D01*
X128719375Y-98599375D01*
X128391161Y-99090582D01*
X128275908Y-99670000D01*
X128391161Y-100249418D01*
X128719375Y-100740625D01*
X129017761Y-100940000D01*
X128719375Y-101139375D01*
X128391161Y-101630582D01*
X128275908Y-102210000D01*
X128391161Y-102789418D01*
X128719375Y-103280625D01*
X129017761Y-103480000D01*
X128719375Y-103679375D01*
X128391161Y-104170582D01*
X128275908Y-104750000D01*
X128391161Y-105329418D01*
X128719375Y-105820625D01*
X129017761Y-106020000D01*
X128719375Y-106219375D01*
X128391161Y-106710582D01*
X128275908Y-107290000D01*
X128391161Y-107869418D01*
X128719375Y-108360625D01*
X129210582Y-108688839D01*
X129643744Y-108775000D01*
X129936256Y-108775000D01*
X130369418Y-108688839D01*
X130860625Y-108360625D01*
X131060000Y-108062239D01*
X131259375Y-108360625D01*
X131750582Y-108688839D01*
X132183744Y-108775000D01*
X132476256Y-108775000D01*
X132909418Y-108688839D01*
X133400625Y-108360625D01*
X133728839Y-107869418D01*
X133844092Y-107290000D01*
X133728839Y-106710582D01*
X133400625Y-106219375D01*
X133102239Y-106020000D01*
X133400625Y-105820625D01*
X133728839Y-105329418D01*
X133844092Y-104750000D01*
X133728839Y-104170582D01*
X133400625Y-103679375D01*
X133102239Y-103480000D01*
X133400625Y-103280625D01*
X133728839Y-102789418D01*
X133844092Y-102210000D01*
X133728839Y-101630582D01*
X133400625Y-101139375D01*
X133102239Y-100940000D01*
X133400625Y-100740625D01*
X133728839Y-100249418D01*
X133844092Y-99670000D01*
X133728839Y-99090582D01*
X133400625Y-98599375D01*
X133102239Y-98400000D01*
X133400625Y-98200625D01*
X133728839Y-97709418D01*
X133844092Y-97130000D01*
X133728839Y-96550582D01*
X133400625Y-96059375D01*
X133102239Y-95860000D01*
X133400625Y-95660625D01*
X133728839Y-95169418D01*
X133844092Y-94590000D01*
X133728839Y-94010582D01*
X133400625Y-93519375D01*
X133102239Y-93320000D01*
X133400625Y-93120625D01*
X133728839Y-92629418D01*
X133844092Y-92050000D01*
X133728839Y-91470582D01*
X133400625Y-90979375D01*
X133102239Y-90780000D01*
X133400625Y-90580625D01*
X133728839Y-90089418D01*
X133844092Y-89510000D01*
X133728839Y-88930582D01*
X133400625Y-88439375D01*
X133102239Y-88240000D01*
X133400625Y-88040625D01*
X133728839Y-87549418D01*
X133844092Y-86970000D01*
X133728839Y-86390582D01*
X133400625Y-85899375D01*
X133102239Y-85700000D01*
X133400625Y-85500625D01*
X133728839Y-85009418D01*
X133844092Y-84430000D01*
X133728839Y-83850582D01*
X133400625Y-83359375D01*
X133102239Y-83160000D01*
X133400625Y-82960625D01*
X133728839Y-82469418D01*
X133844092Y-81890000D01*
X133728839Y-81310582D01*
X133400625Y-80819375D01*
X133102239Y-80620000D01*
X133400625Y-80420625D01*
X133728839Y-79929418D01*
X133844092Y-79350000D01*
X133728839Y-78770582D01*
X133400625Y-78279375D01*
X133102239Y-78080000D01*
X133400625Y-77880625D01*
X133728839Y-77389418D01*
X133844092Y-76810000D01*
X133728839Y-76230582D01*
X133400625Y-75739375D01*
X133102239Y-75540000D01*
X133400625Y-75340625D01*
X133728839Y-74849418D01*
X133844092Y-74270000D01*
X133753587Y-73815001D01*
X141966133Y-73815001D01*
X134244658Y-81536477D01*
X134174940Y-81583061D01*
X134128356Y-81652779D01*
X133990388Y-81859262D01*
X133925583Y-82185062D01*
X133941941Y-82267300D01*
X133941940Y-108075429D01*
X133925583Y-108157662D01*
X133941940Y-108239895D01*
X133941940Y-108239898D01*
X133990388Y-108483462D01*
X134174939Y-108759663D01*
X134244660Y-108806249D01*
X137975423Y-112537013D01*
X137931843Y-112602235D01*
X137882560Y-112850000D01*
X137882560Y-115150000D01*
X137931843Y-115397765D01*
X138072191Y-115607809D01*
X138282235Y-115748157D01*
X138530000Y-115797440D01*
X139630000Y-115797440D01*
X139877765Y-115748157D01*
X140087809Y-115607809D01*
X140228157Y-115397765D01*
X140277440Y-115150000D01*
X140277440Y-113475866D01*
X141365000Y-113475866D01*
X141365000Y-114524134D01*
X141766155Y-115492608D01*
X142507392Y-116233845D01*
X143475866Y-116635000D01*
X144524134Y-116635000D01*
X145492608Y-116233845D01*
X146233845Y-115492608D01*
X146257330Y-115435909D01*
X146372191Y-115607809D01*
X146582235Y-115748157D01*
X146830000Y-115797440D01*
X147930000Y-115797440D01*
X148177765Y-115748157D01*
X148387809Y-115607809D01*
X148528157Y-115397765D01*
X148577440Y-115150000D01*
X148577440Y-114285750D01*
X149295000Y-114285750D01*
X149295000Y-115276309D01*
X149391673Y-115509698D01*
X149570301Y-115688327D01*
X149803690Y-115785000D01*
X150194250Y-115785000D01*
X150353000Y-115626250D01*
X150353000Y-114127000D01*
X150607000Y-114127000D01*
X150607000Y-115626250D01*
X150765750Y-115785000D01*
X151156310Y-115785000D01*
X151389699Y-115688327D01*
X151568327Y-115509698D01*
X151665000Y-115276309D01*
X151665000Y-114285750D01*
X151506250Y-114127000D01*
X150607000Y-114127000D01*
X150353000Y-114127000D01*
X149453750Y-114127000D01*
X149295000Y-114285750D01*
X148577440Y-114285750D01*
X148577440Y-112850000D01*
X148552316Y-112723691D01*
X149295000Y-112723691D01*
X149295000Y-113714250D01*
X149453750Y-113873000D01*
X150353000Y-113873000D01*
X150353000Y-112373750D01*
X150607000Y-112373750D01*
X150607000Y-113873000D01*
X151506250Y-113873000D01*
X151665000Y-113714250D01*
X151665000Y-112723691D01*
X151568327Y-112490302D01*
X151389699Y-112311673D01*
X151156310Y-112215000D01*
X150765750Y-112215000D01*
X150607000Y-112373750D01*
X150353000Y-112373750D01*
X150194250Y-112215000D01*
X149803690Y-112215000D01*
X149570301Y-112311673D01*
X149391673Y-112490302D01*
X149295000Y-112723691D01*
X148552316Y-112723691D01*
X148528157Y-112602235D01*
X148387809Y-112392191D01*
X148177765Y-112251843D01*
X147930000Y-112202560D01*
X146830000Y-112202560D01*
X146582235Y-112251843D01*
X146372191Y-112392191D01*
X146257330Y-112564091D01*
X146233845Y-112507392D01*
X145492608Y-111766155D01*
X144524134Y-111365000D01*
X143475866Y-111365000D01*
X142507392Y-111766155D01*
X141766155Y-112507392D01*
X141365000Y-113475866D01*
X140277440Y-113475866D01*
X140277440Y-112850000D01*
X140228157Y-112602235D01*
X140087809Y-112392191D01*
X139891655Y-112261124D01*
X139866552Y-112134921D01*
X139814966Y-112057717D01*
X139682001Y-111858721D01*
X139612283Y-111812137D01*
X135611940Y-107811795D01*
X135611940Y-102850000D01*
X137882560Y-102850000D01*
X137882560Y-105150000D01*
X137931843Y-105397765D01*
X138072191Y-105607809D01*
X138282235Y-105748157D01*
X138530000Y-105797440D01*
X139630000Y-105797440D01*
X139877765Y-105748157D01*
X140087809Y-105607809D01*
X140228157Y-105397765D01*
X140277440Y-105150000D01*
X140277440Y-103475866D01*
X141365000Y-103475866D01*
X141365000Y-104524134D01*
X141766155Y-105492608D01*
X142507392Y-106233845D01*
X143475866Y-106635000D01*
X144524134Y-106635000D01*
X145492608Y-106233845D01*
X146233845Y-105492608D01*
X146257330Y-105435909D01*
X146372191Y-105607809D01*
X146582235Y-105748157D01*
X146830000Y-105797440D01*
X147930000Y-105797440D01*
X148177765Y-105748157D01*
X148387809Y-105607809D01*
X148528157Y-105397765D01*
X148577440Y-105150000D01*
X148577440Y-104285750D01*
X149295000Y-104285750D01*
X149295000Y-105276309D01*
X149391673Y-105509698D01*
X149570301Y-105688327D01*
X149803690Y-105785000D01*
X150194250Y-105785000D01*
X150353000Y-105626250D01*
X150353000Y-104127000D01*
X150607000Y-104127000D01*
X150607000Y-105626250D01*
X150765750Y-105785000D01*
X151156310Y-105785000D01*
X151389699Y-105688327D01*
X151568327Y-105509698D01*
X151665000Y-105276309D01*
X151665000Y-104285750D01*
X151506250Y-104127000D01*
X150607000Y-104127000D01*
X150353000Y-104127000D01*
X149453750Y-104127000D01*
X149295000Y-104285750D01*
X148577440Y-104285750D01*
X148577440Y-102850000D01*
X148552316Y-102723691D01*
X149295000Y-102723691D01*
X149295000Y-103714250D01*
X149453750Y-103873000D01*
X150353000Y-103873000D01*
X150353000Y-102373750D01*
X150607000Y-102373750D01*
X150607000Y-103873000D01*
X151506250Y-103873000D01*
X151665000Y-103714250D01*
X151665000Y-102723691D01*
X151568327Y-102490302D01*
X151389699Y-102311673D01*
X151156310Y-102215000D01*
X150765750Y-102215000D01*
X150607000Y-102373750D01*
X150353000Y-102373750D01*
X150194250Y-102215000D01*
X149803690Y-102215000D01*
X149570301Y-102311673D01*
X149391673Y-102490302D01*
X149295000Y-102723691D01*
X148552316Y-102723691D01*
X148528157Y-102602235D01*
X148387809Y-102392191D01*
X148177765Y-102251843D01*
X147930000Y-102202560D01*
X146830000Y-102202560D01*
X146582235Y-102251843D01*
X146372191Y-102392191D01*
X146257330Y-102564091D01*
X146233845Y-102507392D01*
X145492608Y-101766155D01*
X144524134Y-101365000D01*
X143475866Y-101365000D01*
X142507392Y-101766155D01*
X141766155Y-102507392D01*
X141365000Y-103475866D01*
X140277440Y-103475866D01*
X140277440Y-102850000D01*
X140228157Y-102602235D01*
X140087809Y-102392191D01*
X139877765Y-102251843D01*
X139630000Y-102202560D01*
X138530000Y-102202560D01*
X138282235Y-102251843D01*
X138072191Y-102392191D01*
X137931843Y-102602235D01*
X137882560Y-102850000D01*
X135611940Y-102850000D01*
X135611940Y-92850000D01*
X137882560Y-92850000D01*
X137882560Y-95150000D01*
X137931843Y-95397765D01*
X138072191Y-95607809D01*
X138282235Y-95748157D01*
X138530000Y-95797440D01*
X139630000Y-95797440D01*
X139877765Y-95748157D01*
X140087809Y-95607809D01*
X140228157Y-95397765D01*
X140277440Y-95150000D01*
X140277440Y-93475866D01*
X141365000Y-93475866D01*
X141365000Y-94524134D01*
X141766155Y-95492608D01*
X142507392Y-96233845D01*
X143475866Y-96635000D01*
X144524134Y-96635000D01*
X145492608Y-96233845D01*
X146233845Y-95492608D01*
X146257330Y-95435909D01*
X146372191Y-95607809D01*
X146582235Y-95748157D01*
X146830000Y-95797440D01*
X147930000Y-95797440D01*
X148177765Y-95748157D01*
X148387809Y-95607809D01*
X148528157Y-95397765D01*
X148577440Y-95150000D01*
X148577440Y-94285750D01*
X149295000Y-94285750D01*
X149295000Y-95276309D01*
X149391673Y-95509698D01*
X149570301Y-95688327D01*
X149803690Y-95785000D01*
X150194250Y-95785000D01*
X150353000Y-95626250D01*
X150353000Y-94127000D01*
X150607000Y-94127000D01*
X150607000Y-95626250D01*
X150765750Y-95785000D01*
X151156310Y-95785000D01*
X151389699Y-95688327D01*
X151568327Y-95509698D01*
X151665000Y-95276309D01*
X151665000Y-94285750D01*
X151506250Y-94127000D01*
X150607000Y-94127000D01*
X150353000Y-94127000D01*
X149453750Y-94127000D01*
X149295000Y-94285750D01*
X148577440Y-94285750D01*
X148577440Y-92850000D01*
X148552316Y-92723691D01*
X149295000Y-92723691D01*
X149295000Y-93714250D01*
X149453750Y-93873000D01*
X150353000Y-93873000D01*
X150353000Y-92373750D01*
X150607000Y-92373750D01*
X150607000Y-93873000D01*
X151506250Y-93873000D01*
X151665000Y-93714250D01*
X151665000Y-92723691D01*
X151568327Y-92490302D01*
X151389699Y-92311673D01*
X151156310Y-92215000D01*
X150765750Y-92215000D01*
X150607000Y-92373750D01*
X150353000Y-92373750D01*
X150194250Y-92215000D01*
X149803690Y-92215000D01*
X149570301Y-92311673D01*
X149391673Y-92490302D01*
X149295000Y-92723691D01*
X148552316Y-92723691D01*
X148528157Y-92602235D01*
X148387809Y-92392191D01*
X148177765Y-92251843D01*
X147930000Y-92202560D01*
X146830000Y-92202560D01*
X146582235Y-92251843D01*
X146372191Y-92392191D01*
X146257330Y-92564091D01*
X146233845Y-92507392D01*
X145492608Y-91766155D01*
X144524134Y-91365000D01*
X143475866Y-91365000D01*
X142507392Y-91766155D01*
X141766155Y-92507392D01*
X141365000Y-93475866D01*
X140277440Y-93475866D01*
X140277440Y-92850000D01*
X140228157Y-92602235D01*
X140087809Y-92392191D01*
X139877765Y-92251843D01*
X139630000Y-92202560D01*
X138530000Y-92202560D01*
X138282235Y-92251843D01*
X138072191Y-92392191D01*
X137931843Y-92602235D01*
X137882560Y-92850000D01*
X135611940Y-92850000D01*
X135611940Y-82850000D01*
X137882560Y-82850000D01*
X137882560Y-85150000D01*
X137931843Y-85397765D01*
X138072191Y-85607809D01*
X138282235Y-85748157D01*
X138530000Y-85797440D01*
X139630000Y-85797440D01*
X139877765Y-85748157D01*
X140087809Y-85607809D01*
X140228157Y-85397765D01*
X140277440Y-85150000D01*
X140277440Y-83475866D01*
X141365000Y-83475866D01*
X141365000Y-84524134D01*
X141766155Y-85492608D01*
X142507392Y-86233845D01*
X143475866Y-86635000D01*
X144524134Y-86635000D01*
X145492608Y-86233845D01*
X146233845Y-85492608D01*
X146257330Y-85435909D01*
X146372191Y-85607809D01*
X146582235Y-85748157D01*
X146830000Y-85797440D01*
X147930000Y-85797440D01*
X148177765Y-85748157D01*
X148387809Y-85607809D01*
X148528157Y-85397765D01*
X148577440Y-85150000D01*
X148577440Y-84285750D01*
X149295000Y-84285750D01*
X149295000Y-85276309D01*
X149391673Y-85509698D01*
X149570301Y-85688327D01*
X149803690Y-85785000D01*
X150194250Y-85785000D01*
X150353000Y-85626250D01*
X150353000Y-84127000D01*
X150607000Y-84127000D01*
X150607000Y-85626250D01*
X150765750Y-85785000D01*
X151156310Y-85785000D01*
X151389699Y-85688327D01*
X151568327Y-85509698D01*
X151665000Y-85276309D01*
X151665000Y-84285750D01*
X151506250Y-84127000D01*
X150607000Y-84127000D01*
X150353000Y-84127000D01*
X149453750Y-84127000D01*
X149295000Y-84285750D01*
X148577440Y-84285750D01*
X148577440Y-82850000D01*
X148552316Y-82723691D01*
X149295000Y-82723691D01*
X149295000Y-83714250D01*
X149453750Y-83873000D01*
X150353000Y-83873000D01*
X150353000Y-82373750D01*
X150607000Y-82373750D01*
X150607000Y-83873000D01*
X151506250Y-83873000D01*
X151665000Y-83714250D01*
X151665000Y-82723691D01*
X151568327Y-82490302D01*
X151389699Y-82311673D01*
X151156310Y-82215000D01*
X150765750Y-82215000D01*
X150607000Y-82373750D01*
X150353000Y-82373750D01*
X150194250Y-82215000D01*
X149803690Y-82215000D01*
X149570301Y-82311673D01*
X149391673Y-82490302D01*
X149295000Y-82723691D01*
X148552316Y-82723691D01*
X148528157Y-82602235D01*
X148387809Y-82392191D01*
X148177765Y-82251843D01*
X147930000Y-82202560D01*
X146830000Y-82202560D01*
X146582235Y-82251843D01*
X146372191Y-82392191D01*
X146257330Y-82564091D01*
X146233845Y-82507392D01*
X145492608Y-81766155D01*
X144524134Y-81365000D01*
X143475866Y-81365000D01*
X142507392Y-81766155D01*
X141766155Y-82507392D01*
X141365000Y-83475866D01*
X140277440Y-83475866D01*
X140277440Y-82850000D01*
X140228157Y-82602235D01*
X140108184Y-82422683D01*
X149953892Y-72576976D01*
X150023610Y-72530392D01*
X150208161Y-72254192D01*
X150256609Y-72010628D01*
X150256609Y-72010627D01*
X150272967Y-71928391D01*
X150256609Y-71846154D01*
X150256609Y-63686865D01*
X150383816Y-63559658D01*
X150556609Y-63142498D01*
X150556609Y-62690966D01*
X150383816Y-62273806D01*
X150064535Y-61954525D01*
X149647375Y-61781732D01*
X149195843Y-61781732D01*
X148778683Y-61954525D01*
X148459402Y-62273806D01*
X148286609Y-62690966D01*
X148286609Y-63142498D01*
X148459402Y-63559658D01*
X148586610Y-63686866D01*
X148586609Y-71582523D01*
X138547718Y-81621415D01*
X138478000Y-81667999D01*
X138431416Y-81737717D01*
X138293448Y-81944200D01*
X138228643Y-82270000D01*
X138231742Y-82285581D01*
X138072191Y-82392191D01*
X137931843Y-82602235D01*
X137882560Y-82850000D01*
X135611940Y-82850000D01*
X135611940Y-82530929D01*
X147560262Y-70582609D01*
X147629977Y-70536027D01*
X147814528Y-70259827D01*
X147862976Y-70016263D01*
X147862976Y-70016260D01*
X147879333Y-69934027D01*
X147862976Y-69851794D01*
X147862976Y-63409048D01*
X147879334Y-63326811D01*
X147814528Y-63001010D01*
X147629977Y-62724810D01*
X147556745Y-62675878D01*
X147328587Y-62447720D01*
X147282001Y-62377999D01*
X147005801Y-62193448D01*
X146762237Y-62145000D01*
X146762233Y-62145000D01*
X146680000Y-62128643D01*
X146597767Y-62145000D01*
X144235868Y-62145000D01*
X143435000Y-61344133D01*
X143435000Y-61164234D01*
X143262207Y-60747074D01*
X142942926Y-60427793D01*
X142525766Y-60255000D01*
X142074234Y-60255000D01*
X141657074Y-60427793D01*
X141337793Y-60747074D01*
X141165000Y-61164234D01*
X141165000Y-61615766D01*
X141337793Y-62032926D01*
X141657074Y-62352207D01*
X142074234Y-62525000D01*
X142254133Y-62525000D01*
X143241415Y-63512283D01*
X143287999Y-63582001D01*
X143564199Y-63766552D01*
X143807763Y-63815000D01*
X143890000Y-63831358D01*
X143972237Y-63815000D01*
X146192977Y-63815000D01*
X146192977Y-64312129D01*
X146175766Y-64305000D01*
X145724234Y-64305000D01*
X145307074Y-64477793D01*
X144987793Y-64797074D01*
X144815000Y-65214234D01*
X144815000Y-65665766D01*
X144987793Y-66082926D01*
X145115000Y-66210133D01*
X145115001Y-67163215D01*
X144996675Y-67281542D01*
X144712926Y-66997793D01*
X144295766Y-66825000D01*
X143844234Y-66825000D01*
X143427074Y-66997793D01*
X143299867Y-67125000D01*
X137077926Y-67125000D01*
X137115000Y-67035494D01*
X137115000Y-66484506D01*
X136904147Y-65975460D01*
X136765000Y-65836313D01*
X136765000Y-51731934D01*
X136785276Y-51629999D01*
X136704948Y-51226163D01*
X136612492Y-51087793D01*
X136476193Y-50883807D01*
X136389776Y-50826065D01*
X127803935Y-42240225D01*
X127746191Y-42153805D01*
X127403835Y-41925050D01*
X127101933Y-41864998D01*
X127101932Y-41864998D01*
X126999998Y-41844722D01*
X126898064Y-41864998D01*
X112191936Y-41864998D01*
X112090001Y-41844722D01*
X111988067Y-41864998D01*
X111686165Y-41925050D01*
X111343809Y-42153805D01*
X111286067Y-42240222D01*
X103131290Y-50395000D01*
X102934506Y-50395000D01*
X102425460Y-50605853D01*
X102035853Y-50995460D01*
X101825000Y-51504506D01*
X101825000Y-51701289D01*
X98460227Y-55066063D01*
X98373807Y-55123807D01*
X98192602Y-55395000D01*
X98145052Y-55466164D01*
X98064724Y-55870000D01*
X98085000Y-55971934D01*
X98085001Y-66626314D01*
X97945853Y-66765462D01*
X97735000Y-67274508D01*
X97735000Y-67825496D01*
X97945853Y-68334542D01*
X98335460Y-68724149D01*
X98844506Y-68935002D01*
X99395494Y-68935002D01*
X99904540Y-68724149D01*
X100294147Y-68334542D01*
X100505000Y-67825496D01*
X100505000Y-67274508D01*
X100294147Y-66765462D01*
X100155000Y-66626315D01*
X100155000Y-56298710D01*
X103227228Y-53226483D01*
X103273807Y-53296193D01*
X103616163Y-53524948D01*
X103918065Y-53585000D01*
X103918070Y-53585000D01*
X104019999Y-53605275D01*
X104121929Y-53585000D01*
X110254991Y-53585000D01*
X110254991Y-53936976D01*
X110427784Y-54354136D01*
X110554992Y-54481344D01*
X110554991Y-68362592D01*
X101547718Y-77369866D01*
X101478000Y-77416450D01*
X101431416Y-77486168D01*
X101293448Y-77692651D01*
X101228643Y-78018451D01*
X101245001Y-78100689D01*
X101245000Y-82276723D01*
X101072191Y-82392191D01*
X100931843Y-82602235D01*
X100882560Y-82850000D01*
X100882560Y-85150000D01*
X100931843Y-85397765D01*
X101072191Y-85607809D01*
X101282235Y-85748157D01*
X101530000Y-85797440D01*
X102630000Y-85797440D01*
X102877765Y-85748157D01*
X103087809Y-85607809D01*
X103228157Y-85397765D01*
X103277440Y-85150000D01*
X103277440Y-82850000D01*
X103228157Y-82602235D01*
X103087809Y-82392191D01*
X102915000Y-82276723D01*
X102915000Y-78364318D01*
X110755000Y-70524319D01*
X110755000Y-70655766D01*
X110927793Y-71072926D01*
X111055000Y-71200133D01*
X111055000Y-82227424D01*
X110930000Y-82202560D01*
X109830000Y-82202560D01*
X109582235Y-82251843D01*
X109372191Y-82392191D01*
X109257330Y-82564091D01*
X109233845Y-82507392D01*
X108492608Y-81766155D01*
X107524134Y-81365000D01*
X107263866Y-81365000D01*
X107363866Y-81265000D01*
X108989867Y-81265000D01*
X109117074Y-81392207D01*
X109534234Y-81565000D01*
X109985766Y-81565000D01*
X110402926Y-81392207D01*
X110722207Y-81072926D01*
X110895000Y-80655766D01*
X110895000Y-80204234D01*
X110722207Y-79787074D01*
X110402926Y-79467793D01*
X109985766Y-79295000D01*
X109534234Y-79295000D01*
X109117074Y-79467793D01*
X108989867Y-79595000D01*
X107100231Y-79595000D01*
X107017998Y-79578643D01*
X106935765Y-79595000D01*
X106935761Y-79595000D01*
X106692197Y-79643448D01*
X106415997Y-79827999D01*
X106369413Y-79897717D01*
X104067717Y-82199414D01*
X103997999Y-82245998D01*
X103951415Y-82315716D01*
X103813447Y-82522199D01*
X103748642Y-82847999D01*
X103765000Y-82930237D01*
X103764999Y-106534133D01*
X98387718Y-111911415D01*
X98318000Y-111957999D01*
X98271416Y-112027717D01*
X98133448Y-112234200D01*
X98130256Y-112250248D01*
X98122235Y-112251843D01*
X97912191Y-112392191D01*
X97771843Y-112602235D01*
X97722560Y-112850000D01*
X97722560Y-115150000D01*
X97771843Y-115397765D01*
X97912191Y-115607809D01*
X98122235Y-115748157D01*
X98370000Y-115797440D01*
X99470000Y-115797440D01*
X99717765Y-115748157D01*
X99927809Y-115607809D01*
X100068157Y-115397765D01*
X100117440Y-115150000D01*
X100117440Y-112850000D01*
X100068157Y-112602235D01*
X100064342Y-112596525D01*
X105132282Y-107528586D01*
X105202000Y-107482002D01*
X105386551Y-107205802D01*
X105434999Y-106962238D01*
X105434999Y-106962237D01*
X105451357Y-106880001D01*
X105434999Y-106797764D01*
X105434999Y-106161452D01*
X105507392Y-106233845D01*
X106475866Y-106635000D01*
X106854132Y-106635000D01*
X101547718Y-111941415D01*
X101478000Y-111987999D01*
X101431416Y-112057717D01*
X101304689Y-112247377D01*
X101282235Y-112251843D01*
X101072191Y-112392191D01*
X100931843Y-112602235D01*
X100882560Y-112850000D01*
X100882560Y-115150000D01*
X100931843Y-115397765D01*
X101072191Y-115607809D01*
X101282235Y-115748157D01*
X101530000Y-115797440D01*
X102630000Y-115797440D01*
X102877765Y-115748157D01*
X103087809Y-115607809D01*
X103228157Y-115397765D01*
X103277440Y-115150000D01*
X103277440Y-112850000D01*
X103231554Y-112619313D01*
X107865868Y-107985000D01*
X113337767Y-107985000D01*
X113420000Y-108001357D01*
X113502233Y-107985000D01*
X113502237Y-107985000D01*
X113745801Y-107936552D01*
X114022001Y-107752001D01*
X114068587Y-107682280D01*
X121852283Y-99898585D01*
X121922001Y-99852001D01*
X122106552Y-99575801D01*
X122155000Y-99332237D01*
X122155000Y-99332234D01*
X122171357Y-99250001D01*
X122155000Y-99167768D01*
X122155000Y-86620133D01*
X122282207Y-86492926D01*
X122455000Y-86075766D01*
X122455000Y-85624234D01*
X122282207Y-85207074D01*
X121962926Y-84887793D01*
X121545766Y-84715000D01*
X121094234Y-84715000D01*
X120677074Y-84887793D01*
X120357793Y-85207074D01*
X120185000Y-85624234D01*
X120185000Y-86075766D01*
X120357793Y-86492926D01*
X120485000Y-86620133D01*
X120485000Y-86639342D01*
X120485001Y-86639347D01*
X120485000Y-98904132D01*
X114665000Y-104724133D01*
X114665000Y-104285750D01*
X114506250Y-104127000D01*
X113607000Y-104127000D01*
X113607000Y-105626250D01*
X113684941Y-105704191D01*
X113074133Y-106315000D01*
X108296682Y-106315000D01*
X108492608Y-106233845D01*
X109233845Y-105492608D01*
X109257330Y-105435909D01*
X109372191Y-105607809D01*
X109582235Y-105748157D01*
X109830000Y-105797440D01*
X110930000Y-105797440D01*
X111177765Y-105748157D01*
X111387809Y-105607809D01*
X111528157Y-105397765D01*
X111577440Y-105150000D01*
X111577440Y-104285750D01*
X112295000Y-104285750D01*
X112295000Y-105276309D01*
X112391673Y-105509698D01*
X112570301Y-105688327D01*
X112803690Y-105785000D01*
X113194250Y-105785000D01*
X113353000Y-105626250D01*
X113353000Y-104127000D01*
X112453750Y-104127000D01*
X112295000Y-104285750D01*
X111577440Y-104285750D01*
X111577440Y-102850000D01*
X111552316Y-102723691D01*
X112295000Y-102723691D01*
X112295000Y-103714250D01*
X112453750Y-103873000D01*
X113353000Y-103873000D01*
X113353000Y-102373750D01*
X113607000Y-102373750D01*
X113607000Y-103873000D01*
X114506250Y-103873000D01*
X114665000Y-103714250D01*
X114665000Y-102723691D01*
X114568327Y-102490302D01*
X114389699Y-102311673D01*
X114156310Y-102215000D01*
X113765750Y-102215000D01*
X113607000Y-102373750D01*
X113353000Y-102373750D01*
X113194250Y-102215000D01*
X112803690Y-102215000D01*
X112570301Y-102311673D01*
X112391673Y-102490302D01*
X112295000Y-102723691D01*
X111552316Y-102723691D01*
X111528157Y-102602235D01*
X111387809Y-102392191D01*
X111177765Y-102251843D01*
X110930000Y-102202560D01*
X109830000Y-102202560D01*
X109582235Y-102251843D01*
X109372191Y-102392191D01*
X109257330Y-102564091D01*
X109233845Y-102507392D01*
X108492608Y-101766155D01*
X107524134Y-101365000D01*
X106475866Y-101365000D01*
X105507392Y-101766155D01*
X105434999Y-101838548D01*
X105434999Y-96161452D01*
X105507392Y-96233845D01*
X106475866Y-96635000D01*
X107524134Y-96635000D01*
X108492608Y-96233845D01*
X109233845Y-95492608D01*
X109257330Y-95435909D01*
X109372191Y-95607809D01*
X109582235Y-95748157D01*
X109830000Y-95797440D01*
X110930000Y-95797440D01*
X111055001Y-95772576D01*
X111055001Y-98681094D01*
X110975000Y-98874234D01*
X110975000Y-99325766D01*
X111147793Y-99742926D01*
X111467074Y-100062207D01*
X111884234Y-100235000D01*
X112335766Y-100235000D01*
X112752926Y-100062207D01*
X113072207Y-99742926D01*
X113245000Y-99325766D01*
X113245000Y-98874234D01*
X113072207Y-98457074D01*
X112752926Y-98137793D01*
X112725000Y-98126226D01*
X112725000Y-95752405D01*
X112803690Y-95785000D01*
X113194250Y-95785000D01*
X113353000Y-95626250D01*
X113353000Y-94127000D01*
X113333000Y-94127000D01*
X113333000Y-93873000D01*
X113353000Y-93873000D01*
X113353000Y-92373750D01*
X113607000Y-92373750D01*
X113607000Y-93873000D01*
X114506250Y-93873000D01*
X114665000Y-93714250D01*
X114665000Y-92723691D01*
X114568327Y-92490302D01*
X114389699Y-92311673D01*
X114156310Y-92215000D01*
X113765750Y-92215000D01*
X113607000Y-92373750D01*
X113353000Y-92373750D01*
X113194250Y-92215000D01*
X112803690Y-92215000D01*
X112725000Y-92247595D01*
X112725000Y-85752405D01*
X112803690Y-85785000D01*
X113194250Y-85785000D01*
X113353000Y-85626250D01*
X113353000Y-84127000D01*
X113607000Y-84127000D01*
X113607000Y-85626250D01*
X113765750Y-85785000D01*
X114156310Y-85785000D01*
X114389699Y-85688327D01*
X114568327Y-85509698D01*
X114665000Y-85276309D01*
X114665000Y-84285750D01*
X114506250Y-84127000D01*
X113607000Y-84127000D01*
X113353000Y-84127000D01*
X113333000Y-84127000D01*
X113333000Y-83873000D01*
X113353000Y-83873000D01*
X113353000Y-82373750D01*
X113607000Y-82373750D01*
X113607000Y-83873000D01*
X114506250Y-83873000D01*
X114665000Y-83714250D01*
X114665000Y-82723691D01*
X114568327Y-82490302D01*
X114389699Y-82311673D01*
X114156310Y-82215000D01*
X113765750Y-82215000D01*
X113607000Y-82373750D01*
X113353000Y-82373750D01*
X113194250Y-82215000D01*
X112803690Y-82215000D01*
X112725000Y-82247595D01*
X112725000Y-79016916D01*
X112835853Y-79284540D01*
X113225460Y-79674147D01*
X113734506Y-79885000D01*
X114285494Y-79885000D01*
X114685000Y-79719520D01*
X114685001Y-95504132D01*
X114487718Y-95701415D01*
X114487715Y-95701417D01*
X114474132Y-95715000D01*
X114325305Y-95715000D01*
X114389699Y-95688327D01*
X114568327Y-95509698D01*
X114665000Y-95276309D01*
X114665000Y-94285750D01*
X114506250Y-94127000D01*
X113607000Y-94127000D01*
X113607000Y-95626250D01*
X113765750Y-95785000D01*
X114125239Y-95785000D01*
X113877074Y-95887793D01*
X113557793Y-96207074D01*
X113385000Y-96624234D01*
X113385000Y-97075766D01*
X113557793Y-97492926D01*
X113877074Y-97812207D01*
X114294234Y-97985000D01*
X114745766Y-97985000D01*
X115162926Y-97812207D01*
X115482207Y-97492926D01*
X115655000Y-97075766D01*
X115655000Y-96895868D01*
X115668583Y-96882285D01*
X115668585Y-96882282D01*
X116052280Y-96498587D01*
X116122001Y-96452001D01*
X116306552Y-96175801D01*
X116355000Y-95932237D01*
X116355000Y-95932234D01*
X116371357Y-95850001D01*
X116355000Y-95767768D01*
X116355000Y-87827327D01*
X116494234Y-87885000D01*
X116945766Y-87885000D01*
X117362926Y-87712207D01*
X117682207Y-87392926D01*
X117855000Y-86975766D01*
X117855000Y-86795868D01*
X117868583Y-86782285D01*
X117868585Y-86782282D01*
X126959751Y-77691117D01*
X127029469Y-77644533D01*
X127214020Y-77368333D01*
X127262468Y-77124769D01*
X127278826Y-77042532D01*
X127262468Y-76960295D01*
X127262468Y-53799705D01*
X127278826Y-53717468D01*
X127232673Y-53485444D01*
X127214020Y-53391667D01*
X127029469Y-53115467D01*
X126959751Y-53068883D01*
X126009303Y-52118436D01*
X126171476Y-51726890D01*
X126050155Y-51497000D01*
X124857000Y-51497000D01*
X124857000Y-51517000D01*
X124603000Y-51517000D01*
X124603000Y-51497000D01*
X123409845Y-51497000D01*
X123288524Y-51726890D01*
X123312593Y-51785001D01*
X122518749Y-51785001D01*
X122362207Y-51407074D01*
X122042926Y-51087793D01*
X121862625Y-51013110D01*
X123288524Y-51013110D01*
X123409845Y-51243000D01*
X124603000Y-51243000D01*
X124603000Y-50049181D01*
X124857000Y-50049181D01*
X124857000Y-51243000D01*
X126050155Y-51243000D01*
X126150366Y-51053110D01*
X128348524Y-51053110D01*
X128469845Y-51283000D01*
X129663000Y-51283000D01*
X129663000Y-50089181D01*
X129917000Y-50089181D01*
X129917000Y-51283000D01*
X132203000Y-51283000D01*
X132203000Y-50083750D01*
X132044250Y-49925000D01*
X131353691Y-49925000D01*
X131120302Y-50021673D01*
X130941673Y-50200301D01*
X130853070Y-50414208D01*
X130671358Y-50214817D01*
X130146892Y-49968514D01*
X129917000Y-50089181D01*
X129663000Y-50089181D01*
X129433108Y-49968514D01*
X128908642Y-50214817D01*
X128518355Y-50643076D01*
X128348524Y-51053110D01*
X126150366Y-51053110D01*
X126171476Y-51013110D01*
X126001645Y-50603076D01*
X125611358Y-50174817D01*
X125086892Y-49928514D01*
X124857000Y-50049181D01*
X124603000Y-50049181D01*
X124373108Y-49928514D01*
X123848642Y-50174817D01*
X123458355Y-50603076D01*
X123288524Y-51013110D01*
X121862625Y-51013110D01*
X121625766Y-50915000D01*
X121174234Y-50915000D01*
X120757074Y-51087793D01*
X120437793Y-51407074D01*
X120265000Y-51824234D01*
X120265000Y-52275766D01*
X120437793Y-52692926D01*
X120757074Y-53012207D01*
X121174234Y-53185000D01*
X121343276Y-53185000D01*
X121368000Y-53222002D01*
X121644200Y-53406553D01*
X121887764Y-53455001D01*
X121887767Y-53455001D01*
X121970000Y-53471358D01*
X122052233Y-53455001D01*
X123306413Y-53455001D01*
X123215908Y-53910000D01*
X123331161Y-54489418D01*
X123659375Y-54980625D01*
X123957761Y-55180000D01*
X123659375Y-55379375D01*
X123331161Y-55870582D01*
X123215908Y-56450000D01*
X123331161Y-57029418D01*
X123659375Y-57520625D01*
X123957761Y-57720000D01*
X123659375Y-57919375D01*
X123501935Y-58155000D01*
X122241128Y-58155000D01*
X117635000Y-53548874D01*
X117635000Y-53368975D01*
X117462207Y-52951815D01*
X117142926Y-52632534D01*
X116725766Y-52459741D01*
X116315000Y-52459741D01*
X116315000Y-48411928D01*
X116335276Y-48309993D01*
X116254948Y-47906157D01*
X116217421Y-47849994D01*
X116205000Y-47831405D01*
X116205000Y-47574500D01*
X115994147Y-47065454D01*
X115604540Y-46675847D01*
X115095494Y-46464994D01*
X114544506Y-46464994D01*
X114035460Y-46675847D01*
X113645853Y-47065454D01*
X113435000Y-47574500D01*
X113435000Y-48125488D01*
X113645853Y-48634534D01*
X114035460Y-49024141D01*
X114245001Y-49110935D01*
X114245001Y-53250630D01*
X112884597Y-51890227D01*
X112826853Y-51803807D01*
X112484497Y-51575052D01*
X112182595Y-51515000D01*
X112182594Y-51515000D01*
X112080660Y-51494724D01*
X111978726Y-51515000D01*
X104938710Y-51515000D01*
X112518713Y-43934998D01*
X126571288Y-43934998D01*
X132588520Y-49952230D01*
X132457000Y-50083750D01*
X132457000Y-51283000D01*
X133656250Y-51283000D01*
X133787770Y-51151480D01*
X134695001Y-52058712D01*
X134695000Y-62600132D01*
X134389196Y-62294328D01*
X134342610Y-62224607D01*
X134066410Y-62040056D01*
X133822846Y-61991608D01*
X133822842Y-61991608D01*
X133762612Y-61979628D01*
X133844092Y-61570000D01*
X133728839Y-60990582D01*
X133400625Y-60499375D01*
X133102239Y-60300000D01*
X133400625Y-60100625D01*
X133728839Y-59609418D01*
X133844092Y-59030000D01*
X133728839Y-58450582D01*
X133400625Y-57959375D01*
X133102239Y-57760000D01*
X133400625Y-57560625D01*
X133728839Y-57069418D01*
X133844092Y-56490000D01*
X133728839Y-55910582D01*
X133400625Y-55419375D01*
X133102239Y-55220000D01*
X133400625Y-55020625D01*
X133728839Y-54529418D01*
X133844092Y-53950000D01*
X133728839Y-53370582D01*
X133400625Y-52879375D01*
X133378967Y-52864904D01*
X133539698Y-52798327D01*
X133718327Y-52619699D01*
X133815000Y-52386310D01*
X133815000Y-51695750D01*
X133656250Y-51537000D01*
X132457000Y-51537000D01*
X132457000Y-51557000D01*
X132203000Y-51557000D01*
X132203000Y-51537000D01*
X129917000Y-51537000D01*
X129917000Y-51557000D01*
X129663000Y-51557000D01*
X129663000Y-51537000D01*
X128469845Y-51537000D01*
X128348524Y-51766890D01*
X128518355Y-52176924D01*
X128908642Y-52605183D01*
X129038478Y-52666157D01*
X128719375Y-52879375D01*
X128391161Y-53370582D01*
X128275908Y-53950000D01*
X128391161Y-54529418D01*
X128719375Y-55020625D01*
X129017761Y-55220000D01*
X128719375Y-55419375D01*
X128391161Y-55910582D01*
X128275908Y-56490000D01*
X128391161Y-57069418D01*
X128719375Y-57560625D01*
X129017761Y-57760000D01*
X128719375Y-57959375D01*
X128391161Y-58450582D01*
X128275908Y-59030000D01*
X128391161Y-59609418D01*
X128719375Y-60100625D01*
X129017761Y-60300000D01*
X128719375Y-60499375D01*
X128391161Y-60990582D01*
X128275908Y-61570000D01*
X128391161Y-62149418D01*
X128719375Y-62640625D01*
X129017761Y-62840000D01*
X128719375Y-63039375D01*
X128391161Y-63530582D01*
X128275908Y-64110000D01*
X128331193Y-64387939D01*
X127599926Y-65119207D01*
X127530208Y-65165791D01*
X127483624Y-65235509D01*
X127345656Y-65441992D01*
X127280851Y-65767792D01*
X127297209Y-65850030D01*
X127297208Y-72090566D01*
X127280851Y-72172799D01*
X127297208Y-72255032D01*
X127297208Y-72255035D01*
X127345656Y-72498599D01*
X127530207Y-72774800D01*
X127599928Y-72821386D01*
X128290824Y-73512283D01*
X128337409Y-73582002D01*
X128424727Y-73640346D01*
X128391161Y-73690582D01*
X128275908Y-74270000D01*
X128391161Y-74849418D01*
X128719375Y-75340625D01*
X129017761Y-75540000D01*
X128719375Y-75739375D01*
X128391161Y-76230582D01*
X128275908Y-76810000D01*
X128391161Y-77389418D01*
X128719375Y-77880625D01*
X129017761Y-78080000D01*
X128719375Y-78279375D01*
X128391161Y-78770582D01*
X128275908Y-79350000D01*
X128391161Y-79929418D01*
X128719375Y-80420625D01*
X129017761Y-80620000D01*
X128719375Y-80819375D01*
X128391161Y-81310582D01*
X128275908Y-81890000D01*
X128391161Y-82469418D01*
X128719375Y-82960625D01*
X129017761Y-83160000D01*
X128719375Y-83359375D01*
X128391161Y-83850582D01*
X128275908Y-84430000D01*
X128391161Y-85009418D01*
X128522760Y-85206370D01*
X124217720Y-89511411D01*
X124147999Y-89557997D01*
X123963448Y-89834198D01*
X123915000Y-90077762D01*
X123915000Y-90077765D01*
X123898643Y-90159998D01*
X123915000Y-90242231D01*
X123915001Y-104804133D01*
X114549192Y-114169942D01*
X114506250Y-114127000D01*
X113607000Y-114127000D01*
X113607000Y-114147000D01*
X113353000Y-114147000D01*
X113353000Y-114127000D01*
X112453750Y-114127000D01*
X112295000Y-114285750D01*
X112295000Y-115276309D01*
X112391673Y-115509698D01*
X112570301Y-115688327D01*
X112803690Y-115785000D01*
X112934135Y-115785000D01*
X112310610Y-116408525D01*
X108070893Y-116408525D01*
X108492608Y-116233845D01*
X109233845Y-115492608D01*
X109257330Y-115435909D01*
X109372191Y-115607809D01*
X109582235Y-115748157D01*
X109830000Y-115797440D01*
X110930000Y-115797440D01*
X111177765Y-115748157D01*
X111387809Y-115607809D01*
X111528157Y-115397765D01*
X111577440Y-115150000D01*
X111577440Y-112850000D01*
X111552316Y-112723691D01*
X112295000Y-112723691D01*
X112295000Y-113714250D01*
X112453750Y-113873000D01*
X113353000Y-113873000D01*
X113353000Y-112373750D01*
X113607000Y-112373750D01*
X113607000Y-113873000D01*
X114506250Y-113873000D01*
X114665000Y-113714250D01*
X114665000Y-112723691D01*
X114568327Y-112490302D01*
X114389699Y-112311673D01*
X114156310Y-112215000D01*
X113765750Y-112215000D01*
X113607000Y-112373750D01*
X113353000Y-112373750D01*
X113194250Y-112215000D01*
X112803690Y-112215000D01*
X112570301Y-112311673D01*
X112391673Y-112490302D01*
X112295000Y-112723691D01*
X111552316Y-112723691D01*
X111528157Y-112602235D01*
X111387809Y-112392191D01*
X111177765Y-112251843D01*
X110930000Y-112202560D01*
X109830000Y-112202560D01*
X109582235Y-112251843D01*
X109372191Y-112392191D01*
X109257330Y-112564091D01*
X109233845Y-112507392D01*
X108492608Y-111766155D01*
X107524134Y-111365000D01*
X106475866Y-111365000D01*
X105507392Y-111766155D01*
X104766155Y-112507392D01*
X104365000Y-113475866D01*
X104365000Y-114524134D01*
X104766155Y-115492608D01*
X105507392Y-116233845D01*
X105929107Y-116408525D01*
X95070893Y-116408525D01*
X95492608Y-116233845D01*
X96233845Y-115492608D01*
X96635000Y-114524134D01*
X96635000Y-113475866D01*
X96233845Y-112507392D01*
X95492608Y-111766155D01*
X94524134Y-111365000D01*
X93475866Y-111365000D01*
X92507392Y-111766155D01*
X91766155Y-112507392D01*
X91742670Y-112564091D01*
X91627809Y-112392191D01*
X91417765Y-112251843D01*
X91170000Y-112202560D01*
X90070000Y-112202560D01*
X89822235Y-112251843D01*
X89612191Y-112392191D01*
X89471843Y-112602235D01*
X89422560Y-112850000D01*
X89422560Y-115150000D01*
X89471843Y-115397765D01*
X89612191Y-115607809D01*
X89822235Y-115748157D01*
X90070000Y-115797440D01*
X91170000Y-115797440D01*
X91417765Y-115748157D01*
X91627809Y-115607809D01*
X91742670Y-115435909D01*
X91766155Y-115492608D01*
X92507392Y-116233845D01*
X92929107Y-116408525D01*
X64758769Y-116408525D01*
X64467684Y-116117440D01*
X65740000Y-116117440D01*
X65987765Y-116068157D01*
X66197809Y-115927809D01*
X66296900Y-115779510D01*
X66642056Y-116010136D01*
X67280000Y-116137031D01*
X67917945Y-116010136D01*
X68458769Y-115648769D01*
X68569952Y-115482371D01*
X68753683Y-115715922D01*
X69311645Y-116029144D01*
X69439566Y-116060124D01*
X69693000Y-115940777D01*
X69693000Y-114297000D01*
X69947000Y-114297000D01*
X69947000Y-115940777D01*
X70200434Y-116060124D01*
X70328355Y-116029144D01*
X70886317Y-115715922D01*
X71281942Y-115213020D01*
X71455000Y-114597000D01*
X71455000Y-114297000D01*
X69947000Y-114297000D01*
X69693000Y-114297000D01*
X69673000Y-114297000D01*
X69673000Y-114285750D01*
X86335000Y-114285750D01*
X86335000Y-115276309D01*
X86431673Y-115509698D01*
X86610301Y-115688327D01*
X86843690Y-115785000D01*
X87234250Y-115785000D01*
X87393000Y-115626250D01*
X87393000Y-114127000D01*
X87647000Y-114127000D01*
X87647000Y-115626250D01*
X87805750Y-115785000D01*
X88196310Y-115785000D01*
X88429699Y-115688327D01*
X88608327Y-115509698D01*
X88705000Y-115276309D01*
X88705000Y-114285750D01*
X88546250Y-114127000D01*
X87647000Y-114127000D01*
X87393000Y-114127000D01*
X86493750Y-114127000D01*
X86335000Y-114285750D01*
X69673000Y-114285750D01*
X69673000Y-114043000D01*
X69693000Y-114043000D01*
X69693000Y-114023000D01*
X69947000Y-114023000D01*
X69947000Y-114043000D01*
X71455000Y-114043000D01*
X71455000Y-113743000D01*
X71281942Y-113126980D01*
X70964681Y-112723691D01*
X86335000Y-112723691D01*
X86335000Y-113714250D01*
X86493750Y-113873000D01*
X87393000Y-113873000D01*
X87393000Y-112373750D01*
X87647000Y-112373750D01*
X87647000Y-113873000D01*
X88546250Y-113873000D01*
X88705000Y-113714250D01*
X88705000Y-112723691D01*
X88608327Y-112490302D01*
X88429699Y-112311673D01*
X88196310Y-112215000D01*
X87805750Y-112215000D01*
X87647000Y-112373750D01*
X87393000Y-112373750D01*
X87234250Y-112215000D01*
X86843690Y-112215000D01*
X86610301Y-112311673D01*
X86431673Y-112490302D01*
X86335000Y-112723691D01*
X70964681Y-112723691D01*
X70886317Y-112624078D01*
X70328355Y-112310856D01*
X70200434Y-112279876D01*
X69947002Y-112399222D01*
X69947002Y-112383865D01*
X72505868Y-109825000D01*
X88167767Y-109825000D01*
X88250000Y-109841357D01*
X88332233Y-109825000D01*
X88332237Y-109825000D01*
X88575801Y-109776552D01*
X88852001Y-109592001D01*
X88898587Y-109522280D01*
X90202282Y-108218586D01*
X90272000Y-108172002D01*
X90456551Y-107895802D01*
X90504999Y-107652238D01*
X90504999Y-107652237D01*
X90521357Y-107570001D01*
X90504999Y-107487764D01*
X90504999Y-105797440D01*
X91170000Y-105797440D01*
X91417765Y-105748157D01*
X91627809Y-105607809D01*
X91742670Y-105435909D01*
X91766155Y-105492608D01*
X92507392Y-106233845D01*
X93475866Y-106635000D01*
X94524134Y-106635000D01*
X95492608Y-106233845D01*
X96233845Y-105492608D01*
X96635000Y-104524134D01*
X96635000Y-103475866D01*
X96375758Y-102850000D01*
X97722560Y-102850000D01*
X97722560Y-105150000D01*
X97771843Y-105397765D01*
X97912191Y-105607809D01*
X98122235Y-105748157D01*
X98370000Y-105797440D01*
X99470000Y-105797440D01*
X99717765Y-105748157D01*
X99927809Y-105607809D01*
X100068157Y-105397765D01*
X100117440Y-105150000D01*
X100117440Y-102850000D01*
X100882560Y-102850000D01*
X100882560Y-105150000D01*
X100931843Y-105397765D01*
X101072191Y-105607809D01*
X101282235Y-105748157D01*
X101530000Y-105797440D01*
X102630000Y-105797440D01*
X102877765Y-105748157D01*
X103087809Y-105607809D01*
X103228157Y-105397765D01*
X103277440Y-105150000D01*
X103277440Y-102850000D01*
X103228157Y-102602235D01*
X103087809Y-102392191D01*
X102877765Y-102251843D01*
X102630000Y-102202560D01*
X101530000Y-102202560D01*
X101282235Y-102251843D01*
X101072191Y-102392191D01*
X100931843Y-102602235D01*
X100882560Y-102850000D01*
X100117440Y-102850000D01*
X100068157Y-102602235D01*
X99927809Y-102392191D01*
X99717765Y-102251843D01*
X99470000Y-102202560D01*
X98370000Y-102202560D01*
X98122235Y-102251843D01*
X97912191Y-102392191D01*
X97771843Y-102602235D01*
X97722560Y-102850000D01*
X96375758Y-102850000D01*
X96233845Y-102507392D01*
X95492608Y-101766155D01*
X94524134Y-101365000D01*
X93475866Y-101365000D01*
X92507392Y-101766155D01*
X91766155Y-102507392D01*
X91742670Y-102564091D01*
X91627809Y-102392191D01*
X91417765Y-102251843D01*
X91170000Y-102202560D01*
X90504999Y-102202560D01*
X90504999Y-95797440D01*
X91170000Y-95797440D01*
X91417765Y-95748157D01*
X91627809Y-95607809D01*
X91742670Y-95435909D01*
X91766155Y-95492608D01*
X92507392Y-96233845D01*
X93475866Y-96635000D01*
X94524134Y-96635000D01*
X95492608Y-96233845D01*
X96233845Y-95492608D01*
X96635000Y-94524134D01*
X96635000Y-93475866D01*
X96233845Y-92507392D01*
X95492608Y-91766155D01*
X94524134Y-91365000D01*
X93475866Y-91365000D01*
X92507392Y-91766155D01*
X91766155Y-92507392D01*
X91742670Y-92564091D01*
X91627809Y-92392191D01*
X91417765Y-92251843D01*
X91170000Y-92202560D01*
X90504999Y-92202560D01*
X90504999Y-85797440D01*
X91170000Y-85797440D01*
X91417765Y-85748157D01*
X91627809Y-85607809D01*
X91742670Y-85435909D01*
X91766155Y-85492608D01*
X92507392Y-86233845D01*
X93475866Y-86635000D01*
X94524134Y-86635000D01*
X95492608Y-86233845D01*
X96233845Y-85492608D01*
X96635000Y-84524134D01*
X96635000Y-83475866D01*
X96233845Y-82507392D01*
X95492608Y-81766155D01*
X94524134Y-81365000D01*
X93475866Y-81365000D01*
X92507392Y-81766155D01*
X91766155Y-82507392D01*
X91742670Y-82564091D01*
X91627809Y-82392191D01*
X91417765Y-82251843D01*
X91170000Y-82202560D01*
X90504999Y-82202560D01*
X90504999Y-69150134D01*
X90632207Y-69022926D01*
X90805000Y-68605766D01*
X90805000Y-68154234D01*
X90632207Y-67737074D01*
X90312926Y-67417793D01*
X89895766Y-67245000D01*
X89444234Y-67245000D01*
X89027074Y-67417793D01*
X88707793Y-67737074D01*
X88535000Y-68154234D01*
X88535000Y-68605766D01*
X88707793Y-69022926D01*
X88835000Y-69150133D01*
X88834999Y-107224133D01*
X87904133Y-108155000D01*
X85254656Y-108155000D01*
X85458839Y-107849418D01*
X85574092Y-107270000D01*
X85458839Y-106690582D01*
X85130625Y-106199375D01*
X84832239Y-106000000D01*
X85130625Y-105800625D01*
X85458839Y-105309418D01*
X85574092Y-104730000D01*
X85485726Y-104285750D01*
X86335000Y-104285750D01*
X86335000Y-105276309D01*
X86431673Y-105509698D01*
X86610301Y-105688327D01*
X86843690Y-105785000D01*
X87234250Y-105785000D01*
X87393000Y-105626250D01*
X87393000Y-104127000D01*
X87647000Y-104127000D01*
X87647000Y-105626250D01*
X87805750Y-105785000D01*
X88196310Y-105785000D01*
X88429699Y-105688327D01*
X88608327Y-105509698D01*
X88705000Y-105276309D01*
X88705000Y-104285750D01*
X88546250Y-104127000D01*
X87647000Y-104127000D01*
X87393000Y-104127000D01*
X86493750Y-104127000D01*
X86335000Y-104285750D01*
X85485726Y-104285750D01*
X85458839Y-104150582D01*
X85130625Y-103659375D01*
X84832239Y-103460000D01*
X85130625Y-103260625D01*
X85458839Y-102769418D01*
X85467934Y-102723691D01*
X86335000Y-102723691D01*
X86335000Y-103714250D01*
X86493750Y-103873000D01*
X87393000Y-103873000D01*
X87393000Y-102373750D01*
X87647000Y-102373750D01*
X87647000Y-103873000D01*
X88546250Y-103873000D01*
X88705000Y-103714250D01*
X88705000Y-102723691D01*
X88608327Y-102490302D01*
X88429699Y-102311673D01*
X88196310Y-102215000D01*
X87805750Y-102215000D01*
X87647000Y-102373750D01*
X87393000Y-102373750D01*
X87234250Y-102215000D01*
X86843690Y-102215000D01*
X86610301Y-102311673D01*
X86431673Y-102490302D01*
X86335000Y-102723691D01*
X85467934Y-102723691D01*
X85574092Y-102190000D01*
X85458839Y-101610582D01*
X85130625Y-101119375D01*
X84832239Y-100920000D01*
X85130625Y-100720625D01*
X85458839Y-100229418D01*
X85574092Y-99650000D01*
X85458839Y-99070582D01*
X85130625Y-98579375D01*
X84832239Y-98380000D01*
X85130625Y-98180625D01*
X85458839Y-97689418D01*
X85574092Y-97110000D01*
X85458839Y-96530582D01*
X85130625Y-96039375D01*
X84832239Y-95840000D01*
X85130625Y-95640625D01*
X85458839Y-95149418D01*
X85574092Y-94570000D01*
X85517552Y-94285750D01*
X86335000Y-94285750D01*
X86335000Y-95276309D01*
X86431673Y-95509698D01*
X86610301Y-95688327D01*
X86843690Y-95785000D01*
X87234250Y-95785000D01*
X87393000Y-95626250D01*
X87393000Y-94127000D01*
X87647000Y-94127000D01*
X87647000Y-95626250D01*
X87805750Y-95785000D01*
X88196310Y-95785000D01*
X88429699Y-95688327D01*
X88608327Y-95509698D01*
X88705000Y-95276309D01*
X88705000Y-94285750D01*
X88546250Y-94127000D01*
X87647000Y-94127000D01*
X87393000Y-94127000D01*
X86493750Y-94127000D01*
X86335000Y-94285750D01*
X85517552Y-94285750D01*
X85458839Y-93990582D01*
X85130625Y-93499375D01*
X84832239Y-93300000D01*
X85130625Y-93100625D01*
X85382484Y-92723691D01*
X86335000Y-92723691D01*
X86335000Y-93714250D01*
X86493750Y-93873000D01*
X87393000Y-93873000D01*
X87393000Y-92373750D01*
X87647000Y-92373750D01*
X87647000Y-93873000D01*
X88546250Y-93873000D01*
X88705000Y-93714250D01*
X88705000Y-92723691D01*
X88608327Y-92490302D01*
X88429699Y-92311673D01*
X88196310Y-92215000D01*
X87805750Y-92215000D01*
X87647000Y-92373750D01*
X87393000Y-92373750D01*
X87234250Y-92215000D01*
X86843690Y-92215000D01*
X86610301Y-92311673D01*
X86431673Y-92490302D01*
X86335000Y-92723691D01*
X85382484Y-92723691D01*
X85458839Y-92609418D01*
X85574092Y-92030000D01*
X85458839Y-91450582D01*
X85130625Y-90959375D01*
X84832239Y-90760000D01*
X85130625Y-90560625D01*
X85458839Y-90069418D01*
X85574092Y-89490000D01*
X85458839Y-88910582D01*
X85130625Y-88419375D01*
X84832239Y-88220000D01*
X85130625Y-88020625D01*
X85458839Y-87529418D01*
X85574092Y-86950000D01*
X85458839Y-86370582D01*
X85130625Y-85879375D01*
X84832239Y-85680000D01*
X85130625Y-85480625D01*
X85458839Y-84989418D01*
X85574092Y-84410000D01*
X85549378Y-84285750D01*
X86335000Y-84285750D01*
X86335000Y-85276309D01*
X86431673Y-85509698D01*
X86610301Y-85688327D01*
X86843690Y-85785000D01*
X87234250Y-85785000D01*
X87393000Y-85626250D01*
X87393000Y-84127000D01*
X87647000Y-84127000D01*
X87647000Y-85626250D01*
X87805750Y-85785000D01*
X88196310Y-85785000D01*
X88429699Y-85688327D01*
X88608327Y-85509698D01*
X88705000Y-85276309D01*
X88705000Y-84285750D01*
X88546250Y-84127000D01*
X87647000Y-84127000D01*
X87393000Y-84127000D01*
X86493750Y-84127000D01*
X86335000Y-84285750D01*
X85549378Y-84285750D01*
X85458839Y-83830582D01*
X85130625Y-83339375D01*
X84832239Y-83140000D01*
X85130625Y-82940625D01*
X85275575Y-82723691D01*
X86335000Y-82723691D01*
X86335000Y-83714250D01*
X86493750Y-83873000D01*
X87393000Y-83873000D01*
X87393000Y-82373750D01*
X87647000Y-82373750D01*
X87647000Y-83873000D01*
X88546250Y-83873000D01*
X88705000Y-83714250D01*
X88705000Y-82723691D01*
X88608327Y-82490302D01*
X88429699Y-82311673D01*
X88196310Y-82215000D01*
X87805750Y-82215000D01*
X87647000Y-82373750D01*
X87393000Y-82373750D01*
X87234250Y-82215000D01*
X86843690Y-82215000D01*
X86610301Y-82311673D01*
X86431673Y-82490302D01*
X86335000Y-82723691D01*
X85275575Y-82723691D01*
X85458839Y-82449418D01*
X85574092Y-81870000D01*
X85458839Y-81290582D01*
X85130625Y-80799375D01*
X84832239Y-80600000D01*
X85130625Y-80400625D01*
X85458839Y-79909418D01*
X85574092Y-79330000D01*
X85458839Y-78750582D01*
X85130625Y-78259375D01*
X84832239Y-78060000D01*
X85130625Y-77860625D01*
X85458839Y-77369418D01*
X85574092Y-76790000D01*
X85458839Y-76210582D01*
X85352485Y-76051412D01*
X85358587Y-76042280D01*
X86492283Y-74908585D01*
X86562001Y-74862001D01*
X86746552Y-74585801D01*
X86795000Y-74342237D01*
X86795000Y-74342236D01*
X86811358Y-74260000D01*
X86795000Y-74177763D01*
X86795000Y-65645867D01*
X87915868Y-64525000D01*
X91769867Y-64525000D01*
X91897074Y-64652207D01*
X92314234Y-64825000D01*
X92765766Y-64825000D01*
X93182926Y-64652207D01*
X93204331Y-64630802D01*
X93919420Y-64630802D01*
X93919420Y-65082334D01*
X94092213Y-65499494D01*
X94219421Y-65626702D01*
X94219420Y-76126091D01*
X94203063Y-76208324D01*
X94219420Y-76290557D01*
X94219420Y-76290560D01*
X94267868Y-76534124D01*
X94452419Y-76810325D01*
X94522140Y-76856911D01*
X95332930Y-77667702D01*
X95332930Y-77847600D01*
X95505723Y-78264760D01*
X95825004Y-78584041D01*
X96242164Y-78756834D01*
X96693696Y-78756834D01*
X96985000Y-78636172D01*
X96985001Y-91348510D01*
X96968643Y-91430748D01*
X97033448Y-91756548D01*
X97141092Y-91917648D01*
X97218000Y-92032749D01*
X97287718Y-92079333D01*
X97787375Y-92578990D01*
X97771843Y-92602235D01*
X97722560Y-92850000D01*
X97722560Y-95150000D01*
X97771843Y-95397765D01*
X97912191Y-95607809D01*
X98122235Y-95748157D01*
X98370000Y-95797440D01*
X99470000Y-95797440D01*
X99717765Y-95748157D01*
X99927809Y-95607809D01*
X100068157Y-95397765D01*
X100117440Y-95150000D01*
X100117440Y-92850000D01*
X100882560Y-92850000D01*
X100882560Y-95150000D01*
X100931843Y-95397765D01*
X101072191Y-95607809D01*
X101282235Y-95748157D01*
X101530000Y-95797440D01*
X102630000Y-95797440D01*
X102877765Y-95748157D01*
X103087809Y-95607809D01*
X103228157Y-95397765D01*
X103277440Y-95150000D01*
X103277440Y-92850000D01*
X103228157Y-92602235D01*
X103087809Y-92392191D01*
X102877765Y-92251843D01*
X102630000Y-92202560D01*
X101530000Y-92202560D01*
X101282235Y-92251843D01*
X101072191Y-92392191D01*
X100931843Y-92602235D01*
X100882560Y-92850000D01*
X100117440Y-92850000D01*
X100068157Y-92602235D01*
X99927809Y-92392191D01*
X99717765Y-92251843D01*
X99715803Y-92251453D01*
X99706552Y-92204947D01*
X99704957Y-92202560D01*
X99522001Y-91928747D01*
X99452283Y-91882163D01*
X98655000Y-91084881D01*
X98655000Y-85797440D01*
X99470000Y-85797440D01*
X99717765Y-85748157D01*
X99927809Y-85607809D01*
X100068157Y-85397765D01*
X100117440Y-85150000D01*
X100117440Y-82850000D01*
X100068157Y-82602235D01*
X99927809Y-82392191D01*
X99717765Y-82251843D01*
X99470000Y-82202560D01*
X98655000Y-82202560D01*
X98655000Y-73195867D01*
X108602283Y-63248585D01*
X108672001Y-63202001D01*
X108856552Y-62925801D01*
X108905000Y-62682237D01*
X108905000Y-62682234D01*
X108921357Y-62600001D01*
X108905000Y-62517768D01*
X108905000Y-61870133D01*
X109032207Y-61742926D01*
X109205000Y-61325766D01*
X109205000Y-60874234D01*
X109032207Y-60457074D01*
X108712926Y-60137793D01*
X108295766Y-59965000D01*
X107844234Y-59965000D01*
X107427074Y-60137793D01*
X107107793Y-60457074D01*
X106935000Y-60874234D01*
X106935000Y-61325766D01*
X107107793Y-61742926D01*
X107235001Y-61870134D01*
X107235001Y-62254131D01*
X97287720Y-72201413D01*
X97217999Y-72247999D01*
X97033448Y-72524200D01*
X96985000Y-72767764D01*
X96985000Y-72767767D01*
X96968643Y-72850000D01*
X96985000Y-72932233D01*
X96985000Y-76607496D01*
X96693696Y-76486834D01*
X96513798Y-76486834D01*
X95889420Y-75862457D01*
X95889420Y-65626701D01*
X96016627Y-65499494D01*
X96189420Y-65082334D01*
X96189420Y-64630802D01*
X96016627Y-64213642D01*
X95697346Y-63894361D01*
X95280186Y-63721568D01*
X94828654Y-63721568D01*
X94411494Y-63894361D01*
X94092213Y-64213642D01*
X93919420Y-64630802D01*
X93204331Y-64630802D01*
X93502207Y-64332926D01*
X93675000Y-63915766D01*
X93675000Y-63464234D01*
X93502207Y-63047074D01*
X93182926Y-62727793D01*
X92765766Y-62555000D01*
X92314234Y-62555000D01*
X91897074Y-62727793D01*
X91769867Y-62855000D01*
X87652237Y-62855000D01*
X87570000Y-62838642D01*
X87487763Y-62855000D01*
X87244199Y-62903448D01*
X86967999Y-63087999D01*
X86921415Y-63157717D01*
X85471037Y-64608096D01*
X85574092Y-64090000D01*
X85458839Y-63510582D01*
X85130625Y-63019375D01*
X84832239Y-62820000D01*
X85130625Y-62620625D01*
X85458839Y-62129418D01*
X85574092Y-61550000D01*
X85458839Y-60970582D01*
X85130625Y-60479375D01*
X84832239Y-60280000D01*
X85130625Y-60080625D01*
X85458839Y-59589418D01*
X85574092Y-59010000D01*
X85458839Y-58430582D01*
X85130625Y-57939375D01*
X84832239Y-57740000D01*
X85130625Y-57540625D01*
X85458839Y-57049418D01*
X85574092Y-56470000D01*
X85458839Y-55890582D01*
X85130625Y-55399375D01*
X84832239Y-55200000D01*
X85130625Y-55000625D01*
X85458839Y-54509418D01*
X85574092Y-53930000D01*
X85458839Y-53350582D01*
X85130625Y-52859375D01*
X85108967Y-52844904D01*
X85269698Y-52778327D01*
X85448327Y-52599699D01*
X85545000Y-52366310D01*
X85545000Y-51675750D01*
X85386250Y-51517000D01*
X84187000Y-51517000D01*
X84187000Y-51537000D01*
X83933000Y-51537000D01*
X83933000Y-51517000D01*
X81647000Y-51517000D01*
X81647000Y-51537000D01*
X81393000Y-51537000D01*
X81393000Y-51517000D01*
X80199845Y-51517000D01*
X80078524Y-51746890D01*
X80248355Y-52156924D01*
X80638642Y-52585183D01*
X80768478Y-52646157D01*
X80449375Y-52859375D01*
X80121161Y-53350582D01*
X80005908Y-53930000D01*
X80121161Y-54509418D01*
X80449375Y-55000625D01*
X80747761Y-55200000D01*
X80449375Y-55399375D01*
X80121161Y-55890582D01*
X80005908Y-56470000D01*
X80121161Y-57049418D01*
X80449375Y-57540625D01*
X80747761Y-57740000D01*
X80449375Y-57939375D01*
X80121161Y-58430582D01*
X80005908Y-59010000D01*
X80121161Y-59589418D01*
X80449375Y-60080625D01*
X80747761Y-60280000D01*
X80449375Y-60479375D01*
X80121161Y-60970582D01*
X80005908Y-61550000D01*
X80121161Y-62129418D01*
X80449375Y-62620625D01*
X80747761Y-62820000D01*
X80449375Y-63019375D01*
X80121161Y-63510582D01*
X80005908Y-64090000D01*
X80121161Y-64669418D01*
X80449375Y-65160625D01*
X80747761Y-65360000D01*
X80449375Y-65559375D01*
X80121161Y-66050582D01*
X80005908Y-66630000D01*
X80121161Y-67209418D01*
X80449375Y-67700625D01*
X80747761Y-67900000D01*
X80449375Y-68099375D01*
X80121161Y-68590582D01*
X80005908Y-69170000D01*
X80121161Y-69749418D01*
X80449375Y-70240625D01*
X80747761Y-70440000D01*
X80449375Y-70639375D01*
X80121161Y-71130582D01*
X80005908Y-71710000D01*
X80121161Y-72289418D01*
X80449375Y-72780625D01*
X80747761Y-72980000D01*
X80449375Y-73179375D01*
X80121161Y-73670582D01*
X80005908Y-74250000D01*
X80121161Y-74829418D01*
X80236739Y-75002392D01*
X78947718Y-76291415D01*
X78878000Y-76337999D01*
X78831416Y-76407717D01*
X78693448Y-76614200D01*
X78628643Y-76940000D01*
X78645001Y-77022238D01*
X78645000Y-98784132D01*
X65206573Y-112222560D01*
X63740000Y-112222560D01*
X63565762Y-112257218D01*
X63565762Y-95643788D01*
X63610301Y-95688327D01*
X63843690Y-95785000D01*
X64234250Y-95785000D01*
X64393000Y-95626250D01*
X64393000Y-94127000D01*
X64647000Y-94127000D01*
X64647000Y-95626250D01*
X64805750Y-95785000D01*
X65196310Y-95785000D01*
X65429699Y-95688327D01*
X65608327Y-95509698D01*
X65705000Y-95276309D01*
X65705000Y-94285750D01*
X65546250Y-94127000D01*
X64647000Y-94127000D01*
X64393000Y-94127000D01*
X64373000Y-94127000D01*
X64373000Y-93873000D01*
X64393000Y-93873000D01*
X64393000Y-92373750D01*
X64647000Y-92373750D01*
X64647000Y-93873000D01*
X65546250Y-93873000D01*
X65705000Y-93714250D01*
X65705000Y-92850000D01*
X66422560Y-92850000D01*
X66422560Y-95150000D01*
X66471843Y-95397765D01*
X66612191Y-95607809D01*
X66822235Y-95748157D01*
X67070000Y-95797440D01*
X68170000Y-95797440D01*
X68417765Y-95748157D01*
X68627809Y-95607809D01*
X68742670Y-95435909D01*
X68766155Y-95492608D01*
X69507392Y-96233845D01*
X70475866Y-96635000D01*
X71524134Y-96635000D01*
X72492608Y-96233845D01*
X73233845Y-95492608D01*
X73635000Y-94524134D01*
X73635000Y-93475866D01*
X73375758Y-92850000D01*
X74722560Y-92850000D01*
X74722560Y-95150000D01*
X74771843Y-95397765D01*
X74912191Y-95607809D01*
X75122235Y-95748157D01*
X75370000Y-95797440D01*
X76470000Y-95797440D01*
X76717765Y-95748157D01*
X76927809Y-95607809D01*
X77068157Y-95397765D01*
X77117440Y-95150000D01*
X77117440Y-92850000D01*
X77068157Y-92602235D01*
X76927809Y-92392191D01*
X76717765Y-92251843D01*
X76470000Y-92202560D01*
X75370000Y-92202560D01*
X75122235Y-92251843D01*
X74912191Y-92392191D01*
X74771843Y-92602235D01*
X74722560Y-92850000D01*
X73375758Y-92850000D01*
X73233845Y-92507392D01*
X72492608Y-91766155D01*
X71524134Y-91365000D01*
X70475866Y-91365000D01*
X69507392Y-91766155D01*
X68766155Y-92507392D01*
X68742670Y-92564091D01*
X68627809Y-92392191D01*
X68417765Y-92251843D01*
X68170000Y-92202560D01*
X67070000Y-92202560D01*
X66822235Y-92251843D01*
X66612191Y-92392191D01*
X66471843Y-92602235D01*
X66422560Y-92850000D01*
X65705000Y-92850000D01*
X65705000Y-92723691D01*
X65608327Y-92490302D01*
X65429699Y-92311673D01*
X65196310Y-92215000D01*
X64805750Y-92215000D01*
X64647000Y-92373750D01*
X64393000Y-92373750D01*
X64234250Y-92215000D01*
X63843690Y-92215000D01*
X63610301Y-92311673D01*
X63565762Y-92356212D01*
X63565762Y-85643788D01*
X63610301Y-85688327D01*
X63843690Y-85785000D01*
X64234250Y-85785000D01*
X64393000Y-85626250D01*
X64393000Y-84127000D01*
X64647000Y-84127000D01*
X64647000Y-85626250D01*
X64805750Y-85785000D01*
X65196310Y-85785000D01*
X65429699Y-85688327D01*
X65608327Y-85509698D01*
X65705000Y-85276309D01*
X65705000Y-84285750D01*
X65546250Y-84127000D01*
X64647000Y-84127000D01*
X64393000Y-84127000D01*
X64373000Y-84127000D01*
X64373000Y-83873000D01*
X64393000Y-83873000D01*
X64393000Y-82373750D01*
X64647000Y-82373750D01*
X64647000Y-83873000D01*
X65546250Y-83873000D01*
X65705000Y-83714250D01*
X65705000Y-82850000D01*
X66422560Y-82850000D01*
X66422560Y-85150000D01*
X66471843Y-85397765D01*
X66612191Y-85607809D01*
X66822235Y-85748157D01*
X67070000Y-85797440D01*
X68170000Y-85797440D01*
X68417765Y-85748157D01*
X68627809Y-85607809D01*
X68742670Y-85435909D01*
X68766155Y-85492608D01*
X69507392Y-86233845D01*
X70475866Y-86635000D01*
X71524134Y-86635000D01*
X72492608Y-86233845D01*
X73233845Y-85492608D01*
X73635000Y-84524134D01*
X73635000Y-83475866D01*
X73375758Y-82850000D01*
X74722560Y-82850000D01*
X74722560Y-85150000D01*
X74771843Y-85397765D01*
X74912191Y-85607809D01*
X75122235Y-85748157D01*
X75370000Y-85797440D01*
X76470000Y-85797440D01*
X76717765Y-85748157D01*
X76927809Y-85607809D01*
X77068157Y-85397765D01*
X77117440Y-85150000D01*
X77117440Y-82850000D01*
X77068157Y-82602235D01*
X76927809Y-82392191D01*
X76717765Y-82251843D01*
X76470000Y-82202560D01*
X75370000Y-82202560D01*
X75122235Y-82251843D01*
X74912191Y-82392191D01*
X74771843Y-82602235D01*
X74722560Y-82850000D01*
X73375758Y-82850000D01*
X73233845Y-82507392D01*
X72492608Y-81766155D01*
X71524134Y-81365000D01*
X70475866Y-81365000D01*
X69507392Y-81766155D01*
X68766155Y-82507392D01*
X68742670Y-82564091D01*
X68627809Y-82392191D01*
X68417765Y-82251843D01*
X68170000Y-82202560D01*
X67070000Y-82202560D01*
X66822235Y-82251843D01*
X66612191Y-82392191D01*
X66471843Y-82602235D01*
X66422560Y-82850000D01*
X65705000Y-82850000D01*
X65705000Y-82723691D01*
X65608327Y-82490302D01*
X65429699Y-82311673D01*
X65196310Y-82215000D01*
X64805750Y-82215000D01*
X64647000Y-82373750D01*
X64393000Y-82373750D01*
X64234250Y-82215000D01*
X63843690Y-82215000D01*
X63610301Y-82311673D01*
X63565762Y-82356212D01*
X63565762Y-54556075D01*
X65732560Y-52389278D01*
X65732560Y-54620000D01*
X65781843Y-54867765D01*
X65922191Y-55077809D01*
X66132235Y-55218157D01*
X66380000Y-55267440D01*
X67880000Y-55267440D01*
X68127765Y-55218157D01*
X68302614Y-55101325D01*
X68235000Y-55264561D01*
X68235000Y-55835439D01*
X68453466Y-56362862D01*
X68857138Y-56766534D01*
X69384561Y-56985000D01*
X69955439Y-56985000D01*
X70482862Y-56766534D01*
X70886534Y-56362862D01*
X70940000Y-56233784D01*
X70993466Y-56362862D01*
X71397138Y-56766534D01*
X71924561Y-56985000D01*
X72495439Y-56985000D01*
X73022862Y-56766534D01*
X73426534Y-56362862D01*
X73480000Y-56233784D01*
X73533466Y-56362862D01*
X73937138Y-56766534D01*
X74464561Y-56985000D01*
X75035439Y-56985000D01*
X75562862Y-56766534D01*
X75966534Y-56362862D01*
X76185000Y-55835439D01*
X76185000Y-55264561D01*
X76029283Y-54888627D01*
X76082191Y-54967809D01*
X76292235Y-55108157D01*
X76540000Y-55157440D01*
X78040000Y-55157440D01*
X78287765Y-55108157D01*
X78497809Y-54967809D01*
X78638157Y-54757765D01*
X78687440Y-54510000D01*
X78687440Y-51510000D01*
X78638157Y-51262235D01*
X78497809Y-51052191D01*
X78469253Y-51033110D01*
X80078524Y-51033110D01*
X80199845Y-51263000D01*
X81393000Y-51263000D01*
X81393000Y-50069181D01*
X81647000Y-50069181D01*
X81647000Y-51263000D01*
X83933000Y-51263000D01*
X83933000Y-50063750D01*
X84187000Y-50063750D01*
X84187000Y-51263000D01*
X85386250Y-51263000D01*
X85545000Y-51104250D01*
X85545000Y-50413690D01*
X85448327Y-50180301D01*
X85269698Y-50001673D01*
X85036309Y-49905000D01*
X84345750Y-49905000D01*
X84187000Y-50063750D01*
X83933000Y-50063750D01*
X83774250Y-49905000D01*
X83083691Y-49905000D01*
X82850302Y-50001673D01*
X82671673Y-50180301D01*
X82583070Y-50394208D01*
X82401358Y-50194817D01*
X81876892Y-49948514D01*
X81647000Y-50069181D01*
X81393000Y-50069181D01*
X81163108Y-49948514D01*
X80638642Y-50194817D01*
X80248355Y-50623076D01*
X80078524Y-51033110D01*
X78469253Y-51033110D01*
X78287765Y-50911843D01*
X78040000Y-50862560D01*
X76540000Y-50862560D01*
X76292235Y-50911843D01*
X76082191Y-51052191D01*
X75941843Y-51262235D01*
X75892560Y-51510000D01*
X75892560Y-54510000D01*
X75930591Y-54701195D01*
X75562862Y-54333466D01*
X75035439Y-54115000D01*
X74464561Y-54115000D01*
X73937138Y-54333466D01*
X73533466Y-54737138D01*
X73480000Y-54866216D01*
X73426534Y-54737138D01*
X73022862Y-54333466D01*
X72495439Y-54115000D01*
X71924561Y-54115000D01*
X71397138Y-54333466D01*
X70993466Y-54737138D01*
X70940000Y-54866216D01*
X70886534Y-54737138D01*
X70482862Y-54333466D01*
X69955439Y-54115000D01*
X69384561Y-54115000D01*
X68857138Y-54333466D01*
X68516722Y-54673882D01*
X68527440Y-54620000D01*
X68527440Y-51620000D01*
X68478157Y-51372235D01*
X68337809Y-51162191D01*
X68127765Y-51021843D01*
X67880000Y-50972560D01*
X67149278Y-50972560D01*
X67207108Y-50914730D01*
X69978037Y-50914730D01*
X70060270Y-50931087D01*
X70142503Y-50914730D01*
X70142507Y-50914730D01*
X70386071Y-50866282D01*
X70662271Y-50681731D01*
X70708857Y-50612010D01*
X74495868Y-46825000D01*
X75035439Y-46825000D01*
X75562862Y-46606534D01*
X75930591Y-46238805D01*
X75892560Y-46430000D01*
X75892560Y-49430000D01*
X75941843Y-49677765D01*
X76082191Y-49887809D01*
X76292235Y-50028157D01*
X76540000Y-50077440D01*
X78040000Y-50077440D01*
X78287765Y-50028157D01*
X78497809Y-49887809D01*
X78638157Y-49677765D01*
X78687440Y-49430000D01*
X78687440Y-46430000D01*
X78638157Y-46182235D01*
X78497809Y-45972191D01*
X78287765Y-45831843D01*
X78040000Y-45782560D01*
X76540000Y-45782560D01*
X76292235Y-45831843D01*
X76082191Y-45972191D01*
X76029283Y-46051373D01*
X76185000Y-45675439D01*
X76185000Y-45104561D01*
X75966534Y-44577138D01*
X75562862Y-44173466D01*
X75035439Y-43955000D01*
X74464561Y-43955000D01*
X73937138Y-44173466D01*
X73533466Y-44577138D01*
X73480000Y-44706216D01*
X73426534Y-44577138D01*
X73022862Y-44173466D01*
X72495439Y-43955000D01*
X71924561Y-43955000D01*
X71397138Y-44173466D01*
X70993466Y-44577138D01*
X70940000Y-44706216D01*
X70886534Y-44577138D01*
X70482862Y-44173466D01*
X69955439Y-43955000D01*
X69384561Y-43955000D01*
X68857138Y-44173466D01*
X68453466Y-44577138D01*
X68235000Y-45104561D01*
X68235000Y-45675439D01*
X68390717Y-46051373D01*
X68337809Y-45972191D01*
X68127765Y-45831843D01*
X67880000Y-45782560D01*
X66380000Y-45782560D01*
X66132235Y-45831843D01*
X65922191Y-45972191D01*
X65781843Y-46182235D01*
X65732560Y-46430000D01*
X65732560Y-49430000D01*
X65781843Y-49677765D01*
X65902205Y-49857897D01*
X62198480Y-53561623D01*
X62128762Y-53608207D01*
X62082178Y-53677925D01*
X61944210Y-53884408D01*
X61879405Y-54210208D01*
X59990000Y-54210208D01*
X59990000Y-34280000D01*
X94795908Y-34280000D01*
X94911161Y-34859418D01*
X95239375Y-35350625D01*
X95730582Y-35678839D01*
X96163744Y-35765000D01*
X96456256Y-35765000D01*
X96889418Y-35678839D01*
X97380625Y-35350625D01*
X97580000Y-35052239D01*
X97779375Y-35350625D01*
X98270582Y-35678839D01*
X98703744Y-35765000D01*
X98996256Y-35765000D01*
X99429418Y-35678839D01*
X99920625Y-35350625D01*
X100120000Y-35052239D01*
X100319375Y-35350625D01*
X100810582Y-35678839D01*
X101243744Y-35765000D01*
X101536256Y-35765000D01*
X101969418Y-35678839D01*
X102460625Y-35350625D01*
X102660000Y-35052239D01*
X102859375Y-35350625D01*
X103350582Y-35678839D01*
X103783744Y-35765000D01*
X104076256Y-35765000D01*
X104509418Y-35678839D01*
X105000625Y-35350625D01*
X105213843Y-35031522D01*
X105274817Y-35161358D01*
X105703076Y-35551645D01*
X106113110Y-35721476D01*
X106343000Y-35600155D01*
X106343000Y-34407000D01*
X106597000Y-34407000D01*
X106597000Y-35600155D01*
X106826890Y-35721476D01*
X107236924Y-35551645D01*
X107665183Y-35161358D01*
X107740000Y-35002046D01*
X107814817Y-35161358D01*
X108243076Y-35551645D01*
X108653110Y-35721476D01*
X108883000Y-35600155D01*
X108883000Y-34407000D01*
X109137000Y-34407000D01*
X109137000Y-35600155D01*
X109366890Y-35721476D01*
X109776924Y-35551645D01*
X110205183Y-35161358D01*
X110280000Y-35002046D01*
X110354817Y-35161358D01*
X110783076Y-35551645D01*
X111193110Y-35721476D01*
X111423000Y-35600155D01*
X111423000Y-34407000D01*
X109137000Y-34407000D01*
X108883000Y-34407000D01*
X106597000Y-34407000D01*
X106343000Y-34407000D01*
X106323000Y-34407000D01*
X106323000Y-34153000D01*
X106343000Y-34153000D01*
X106343000Y-31867000D01*
X106597000Y-31867000D01*
X106597000Y-34153000D01*
X108883000Y-34153000D01*
X108883000Y-31867000D01*
X109137000Y-31867000D01*
X109137000Y-34153000D01*
X111423000Y-34153000D01*
X111423000Y-31867000D01*
X109137000Y-31867000D01*
X108883000Y-31867000D01*
X106597000Y-31867000D01*
X106343000Y-31867000D01*
X106323000Y-31867000D01*
X106323000Y-31613000D01*
X106343000Y-31613000D01*
X106343000Y-30419845D01*
X106597000Y-30419845D01*
X106597000Y-31613000D01*
X108883000Y-31613000D01*
X108883000Y-30419845D01*
X109137000Y-30419845D01*
X109137000Y-31613000D01*
X111423000Y-31613000D01*
X111423000Y-30419845D01*
X111677000Y-30419845D01*
X111677000Y-31613000D01*
X111697000Y-31613000D01*
X111697000Y-31867000D01*
X111677000Y-31867000D01*
X111677000Y-34153000D01*
X111697000Y-34153000D01*
X111697000Y-34407000D01*
X111677000Y-34407000D01*
X111677000Y-35600155D01*
X111906890Y-35721476D01*
X112316924Y-35551645D01*
X112745183Y-35161358D01*
X112806157Y-35031522D01*
X113019375Y-35350625D01*
X113510582Y-35678839D01*
X113943744Y-35765000D01*
X114236256Y-35765000D01*
X114669418Y-35678839D01*
X115160625Y-35350625D01*
X115488839Y-34859418D01*
X115604092Y-34280000D01*
X115488839Y-33700582D01*
X115160625Y-33209375D01*
X114862239Y-33010000D01*
X115160625Y-32810625D01*
X115488839Y-32319418D01*
X115604092Y-31740000D01*
X115488839Y-31160582D01*
X115160625Y-30669375D01*
X114669418Y-30341161D01*
X114236256Y-30255000D01*
X113943744Y-30255000D01*
X113510582Y-30341161D01*
X113019375Y-30669375D01*
X112806157Y-30988478D01*
X112745183Y-30858642D01*
X112316924Y-30468355D01*
X111906890Y-30298524D01*
X111677000Y-30419845D01*
X111423000Y-30419845D01*
X111193110Y-30298524D01*
X110783076Y-30468355D01*
X110354817Y-30858642D01*
X110280000Y-31017954D01*
X110205183Y-30858642D01*
X109776924Y-30468355D01*
X109366890Y-30298524D01*
X109137000Y-30419845D01*
X108883000Y-30419845D01*
X108653110Y-30298524D01*
X108243076Y-30468355D01*
X107814817Y-30858642D01*
X107740000Y-31017954D01*
X107665183Y-30858642D01*
X107236924Y-30468355D01*
X106826890Y-30298524D01*
X106597000Y-30419845D01*
X106343000Y-30419845D01*
X106113110Y-30298524D01*
X105703076Y-30468355D01*
X105274817Y-30858642D01*
X105213843Y-30988478D01*
X105000625Y-30669375D01*
X104509418Y-30341161D01*
X104076256Y-30255000D01*
X103783744Y-30255000D01*
X103350582Y-30341161D01*
X102859375Y-30669375D01*
X102660000Y-30967761D01*
X102460625Y-30669375D01*
X101969418Y-30341161D01*
X101536256Y-30255000D01*
X101243744Y-30255000D01*
X100810582Y-30341161D01*
X100319375Y-30669375D01*
X100120000Y-30967761D01*
X99920625Y-30669375D01*
X99429418Y-30341161D01*
X98996256Y-30255000D01*
X98703744Y-30255000D01*
X98270582Y-30341161D01*
X97779375Y-30669375D01*
X97767184Y-30687619D01*
X97758157Y-30642235D01*
X97617809Y-30432191D01*
X97407765Y-30291843D01*
X97160000Y-30242560D01*
X95460000Y-30242560D01*
X95212235Y-30291843D01*
X95002191Y-30432191D01*
X94861843Y-30642235D01*
X94812560Y-30890000D01*
X94812560Y-32590000D01*
X94861843Y-32837765D01*
X95002191Y-33047809D01*
X95212235Y-33188157D01*
X95257619Y-33197184D01*
X95239375Y-33209375D01*
X94911161Y-33700582D01*
X94795908Y-34280000D01*
X59990000Y-34280000D01*
X59990000Y-25880000D01*
X154570000Y-25880000D01*
X154570001Y-119460000D01*
X154570001Y-119460000D01*
G37*
X154570001Y-119460000D02*
X59990000Y-119460000D01*
X59990000Y-54210208D01*
X61879405Y-54210208D01*
X61895763Y-54292446D01*
X61895762Y-115479153D01*
X61879405Y-115561386D01*
X61895762Y-115643619D01*
X61895762Y-115643622D01*
X61944210Y-115887186D01*
X62128761Y-116163387D01*
X62198482Y-116209973D01*
X63764316Y-117775808D01*
X63810900Y-117845526D01*
X64087100Y-118030077D01*
X64412901Y-118094883D01*
X64495138Y-118078525D01*
X112574244Y-118078525D01*
X112656477Y-118094882D01*
X112738710Y-118078525D01*
X112738714Y-118078525D01*
X112982278Y-118030077D01*
X113258478Y-117845526D01*
X113305064Y-117775805D01*
X125282283Y-105798587D01*
X125352001Y-105752003D01*
X125536552Y-105475803D01*
X125585000Y-105232239D01*
X125585000Y-105232236D01*
X125601357Y-105150003D01*
X125585000Y-105067770D01*
X125585000Y-90505865D01*
X128451357Y-87639508D01*
X128719375Y-88040625D01*
X129017761Y-88240000D01*
X128719375Y-88439375D01*
X128391161Y-88930582D01*
X128275908Y-89510000D01*
X128391161Y-90089418D01*
X128719375Y-90580625D01*
X129017761Y-90780000D01*
X128719375Y-90979375D01*
X128391161Y-91470582D01*
X128275908Y-92050000D01*
X128391161Y-92629418D01*
X128719375Y-93120625D01*
X129017761Y-93320000D01*
X128719375Y-93519375D01*
X128391161Y-94010582D01*
X128275908Y-94590000D01*
X128391161Y-95169418D01*
X128719375Y-95660625D01*
X129017761Y-95860000D01*
X128719375Y-96059375D01*
X128391161Y-96550582D01*
X128275908Y-97130000D01*
X128391161Y-97709418D01*
X128719375Y-98200625D01*
X129017761Y-98400000D01*
X128719375Y-98599375D01*
X128391161Y-99090582D01*
X128275908Y-99670000D01*
X128391161Y-100249418D01*
X128719375Y-100740625D01*
X129017761Y-100940000D01*
X128719375Y-101139375D01*
X128391161Y-101630582D01*
X128275908Y-102210000D01*
X128391161Y-102789418D01*
X128719375Y-103280625D01*
X129017761Y-103480000D01*
X128719375Y-103679375D01*
X128391161Y-104170582D01*
X128275908Y-104750000D01*
X128391161Y-105329418D01*
X128719375Y-105820625D01*
X129017761Y-106020000D01*
X128719375Y-106219375D01*
X128391161Y-106710582D01*
X128275908Y-107290000D01*
X128391161Y-107869418D01*
X128719375Y-108360625D01*
X129210582Y-108688839D01*
X129643744Y-108775000D01*
X129936256Y-108775000D01*
X130369418Y-108688839D01*
X130860625Y-108360625D01*
X131060000Y-108062239D01*
X131259375Y-108360625D01*
X131750582Y-108688839D01*
X132183744Y-108775000D01*
X132476256Y-108775000D01*
X132909418Y-108688839D01*
X133400625Y-108360625D01*
X133728839Y-107869418D01*
X133844092Y-107290000D01*
X133728839Y-106710582D01*
X133400625Y-106219375D01*
X133102239Y-106020000D01*
X133400625Y-105820625D01*
X133728839Y-105329418D01*
X133844092Y-104750000D01*
X133728839Y-104170582D01*
X133400625Y-103679375D01*
X133102239Y-103480000D01*
X133400625Y-103280625D01*
X133728839Y-102789418D01*
X133844092Y-102210000D01*
X133728839Y-101630582D01*
X133400625Y-101139375D01*
X133102239Y-100940000D01*
X133400625Y-100740625D01*
X133728839Y-100249418D01*
X133844092Y-99670000D01*
X133728839Y-99090582D01*
X133400625Y-98599375D01*
X133102239Y-98400000D01*
X133400625Y-98200625D01*
X133728839Y-97709418D01*
X133844092Y-97130000D01*
X133728839Y-96550582D01*
X133400625Y-96059375D01*
X133102239Y-95860000D01*
X133400625Y-95660625D01*
X133728839Y-95169418D01*
X133844092Y-94590000D01*
X133728839Y-94010582D01*
X133400625Y-93519375D01*
X133102239Y-93320000D01*
X133400625Y-93120625D01*
X133728839Y-92629418D01*
X133844092Y-92050000D01*
X133728839Y-91470582D01*
X133400625Y-90979375D01*
X133102239Y-90780000D01*
X133400625Y-90580625D01*
X133728839Y-90089418D01*
X133844092Y-89510000D01*
X133728839Y-88930582D01*
X133400625Y-88439375D01*
X133102239Y-88240000D01*
X133400625Y-88040625D01*
X133728839Y-87549418D01*
X133844092Y-86970000D01*
X133728839Y-86390582D01*
X133400625Y-85899375D01*
X133102239Y-85700000D01*
X133400625Y-85500625D01*
X133728839Y-85009418D01*
X133844092Y-84430000D01*
X133728839Y-83850582D01*
X133400625Y-83359375D01*
X133102239Y-83160000D01*
X133400625Y-82960625D01*
X133728839Y-82469418D01*
X133844092Y-81890000D01*
X133728839Y-81310582D01*
X133400625Y-80819375D01*
X133102239Y-80620000D01*
X133400625Y-80420625D01*
X133728839Y-79929418D01*
X133844092Y-79350000D01*
X133728839Y-78770582D01*
X133400625Y-78279375D01*
X133102239Y-78080000D01*
X133400625Y-77880625D01*
X133728839Y-77389418D01*
X133844092Y-76810000D01*
X133728839Y-76230582D01*
X133400625Y-75739375D01*
X133102239Y-75540000D01*
X133400625Y-75340625D01*
X133728839Y-74849418D01*
X133844092Y-74270000D01*
X133753587Y-73815001D01*
X141966133Y-73815001D01*
X134244658Y-81536477D01*
X134174940Y-81583061D01*
X134128356Y-81652779D01*
X133990388Y-81859262D01*
X133925583Y-82185062D01*
X133941941Y-82267300D01*
X133941940Y-108075429D01*
X133925583Y-108157662D01*
X133941940Y-108239895D01*
X133941940Y-108239898D01*
X133990388Y-108483462D01*
X134174939Y-108759663D01*
X134244660Y-108806249D01*
X137975423Y-112537013D01*
X137931843Y-112602235D01*
X137882560Y-112850000D01*
X137882560Y-115150000D01*
X137931843Y-115397765D01*
X138072191Y-115607809D01*
X138282235Y-115748157D01*
X138530000Y-115797440D01*
X139630000Y-115797440D01*
X139877765Y-115748157D01*
X140087809Y-115607809D01*
X140228157Y-115397765D01*
X140277440Y-115150000D01*
X140277440Y-113475866D01*
X141365000Y-113475866D01*
X141365000Y-114524134D01*
X141766155Y-115492608D01*
X142507392Y-116233845D01*
X143475866Y-116635000D01*
X144524134Y-116635000D01*
X145492608Y-116233845D01*
X146233845Y-115492608D01*
X146257330Y-115435909D01*
X146372191Y-115607809D01*
X146582235Y-115748157D01*
X146830000Y-115797440D01*
X147930000Y-115797440D01*
X148177765Y-115748157D01*
X148387809Y-115607809D01*
X148528157Y-115397765D01*
X148577440Y-115150000D01*
X148577440Y-114285750D01*
X149295000Y-114285750D01*
X149295000Y-115276309D01*
X149391673Y-115509698D01*
X149570301Y-115688327D01*
X149803690Y-115785000D01*
X150194250Y-115785000D01*
X150353000Y-115626250D01*
X150353000Y-114127000D01*
X150607000Y-114127000D01*
X150607000Y-115626250D01*
X150765750Y-115785000D01*
X151156310Y-115785000D01*
X151389699Y-115688327D01*
X151568327Y-115509698D01*
X151665000Y-115276309D01*
X151665000Y-114285750D01*
X151506250Y-114127000D01*
X150607000Y-114127000D01*
X150353000Y-114127000D01*
X149453750Y-114127000D01*
X149295000Y-114285750D01*
X148577440Y-114285750D01*
X148577440Y-112850000D01*
X148552316Y-112723691D01*
X149295000Y-112723691D01*
X149295000Y-113714250D01*
X149453750Y-113873000D01*
X150353000Y-113873000D01*
X150353000Y-112373750D01*
X150607000Y-112373750D01*
X150607000Y-113873000D01*
X151506250Y-113873000D01*
X151665000Y-113714250D01*
X151665000Y-112723691D01*
X151568327Y-112490302D01*
X151389699Y-112311673D01*
X151156310Y-112215000D01*
X150765750Y-112215000D01*
X150607000Y-112373750D01*
X150353000Y-112373750D01*
X150194250Y-112215000D01*
X149803690Y-112215000D01*
X149570301Y-112311673D01*
X149391673Y-112490302D01*
X149295000Y-112723691D01*
X148552316Y-112723691D01*
X148528157Y-112602235D01*
X148387809Y-112392191D01*
X148177765Y-112251843D01*
X147930000Y-112202560D01*
X146830000Y-112202560D01*
X146582235Y-112251843D01*
X146372191Y-112392191D01*
X146257330Y-112564091D01*
X146233845Y-112507392D01*
X145492608Y-111766155D01*
X144524134Y-111365000D01*
X143475866Y-111365000D01*
X142507392Y-111766155D01*
X141766155Y-112507392D01*
X141365000Y-113475866D01*
X140277440Y-113475866D01*
X140277440Y-112850000D01*
X140228157Y-112602235D01*
X140087809Y-112392191D01*
X139891655Y-112261124D01*
X139866552Y-112134921D01*
X139814966Y-112057717D01*
X139682001Y-111858721D01*
X139612283Y-111812137D01*
X135611940Y-107811795D01*
X135611940Y-102850000D01*
X137882560Y-102850000D01*
X137882560Y-105150000D01*
X137931843Y-105397765D01*
X138072191Y-105607809D01*
X138282235Y-105748157D01*
X138530000Y-105797440D01*
X139630000Y-105797440D01*
X139877765Y-105748157D01*
X140087809Y-105607809D01*
X140228157Y-105397765D01*
X140277440Y-105150000D01*
X140277440Y-103475866D01*
X141365000Y-103475866D01*
X141365000Y-104524134D01*
X141766155Y-105492608D01*
X142507392Y-106233845D01*
X143475866Y-106635000D01*
X144524134Y-106635000D01*
X145492608Y-106233845D01*
X146233845Y-105492608D01*
X146257330Y-105435909D01*
X146372191Y-105607809D01*
X146582235Y-105748157D01*
X146830000Y-105797440D01*
X147930000Y-105797440D01*
X148177765Y-105748157D01*
X148387809Y-105607809D01*
X148528157Y-105397765D01*
X148577440Y-105150000D01*
X148577440Y-104285750D01*
X149295000Y-104285750D01*
X149295000Y-105276309D01*
X149391673Y-105509698D01*
X149570301Y-105688327D01*
X149803690Y-105785000D01*
X150194250Y-105785000D01*
X150353000Y-105626250D01*
X150353000Y-104127000D01*
X150607000Y-104127000D01*
X150607000Y-105626250D01*
X150765750Y-105785000D01*
X151156310Y-105785000D01*
X151389699Y-105688327D01*
X151568327Y-105509698D01*
X151665000Y-105276309D01*
X151665000Y-104285750D01*
X151506250Y-104127000D01*
X150607000Y-104127000D01*
X150353000Y-104127000D01*
X149453750Y-104127000D01*
X149295000Y-104285750D01*
X148577440Y-104285750D01*
X148577440Y-102850000D01*
X148552316Y-102723691D01*
X149295000Y-102723691D01*
X149295000Y-103714250D01*
X149453750Y-103873000D01*
X150353000Y-103873000D01*
X150353000Y-102373750D01*
X150607000Y-102373750D01*
X150607000Y-103873000D01*
X151506250Y-103873000D01*
X151665000Y-103714250D01*
X151665000Y-102723691D01*
X151568327Y-102490302D01*
X151389699Y-102311673D01*
X151156310Y-102215000D01*
X150765750Y-102215000D01*
X150607000Y-102373750D01*
X150353000Y-102373750D01*
X150194250Y-102215000D01*
X149803690Y-102215000D01*
X149570301Y-102311673D01*
X149391673Y-102490302D01*
X149295000Y-102723691D01*
X148552316Y-102723691D01*
X148528157Y-102602235D01*
X148387809Y-102392191D01*
X148177765Y-102251843D01*
X147930000Y-102202560D01*
X146830000Y-102202560D01*
X146582235Y-102251843D01*
X146372191Y-102392191D01*
X146257330Y-102564091D01*
X146233845Y-102507392D01*
X145492608Y-101766155D01*
X144524134Y-101365000D01*
X143475866Y-101365000D01*
X142507392Y-101766155D01*
X141766155Y-102507392D01*
X141365000Y-103475866D01*
X140277440Y-103475866D01*
X140277440Y-102850000D01*
X140228157Y-102602235D01*
X140087809Y-102392191D01*
X139877765Y-102251843D01*
X139630000Y-102202560D01*
X138530000Y-102202560D01*
X138282235Y-102251843D01*
X138072191Y-102392191D01*
X137931843Y-102602235D01*
X137882560Y-102850000D01*
X135611940Y-102850000D01*
X135611940Y-92850000D01*
X137882560Y-92850000D01*
X137882560Y-95150000D01*
X137931843Y-95397765D01*
X138072191Y-95607809D01*
X138282235Y-95748157D01*
X138530000Y-95797440D01*
X139630000Y-95797440D01*
X139877765Y-95748157D01*
X140087809Y-95607809D01*
X140228157Y-95397765D01*
X140277440Y-95150000D01*
X140277440Y-93475866D01*
X141365000Y-93475866D01*
X141365000Y-94524134D01*
X141766155Y-95492608D01*
X142507392Y-96233845D01*
X143475866Y-96635000D01*
X144524134Y-96635000D01*
X145492608Y-96233845D01*
X146233845Y-95492608D01*
X146257330Y-95435909D01*
X146372191Y-95607809D01*
X146582235Y-95748157D01*
X146830000Y-95797440D01*
X147930000Y-95797440D01*
X148177765Y-95748157D01*
X148387809Y-95607809D01*
X148528157Y-95397765D01*
X148577440Y-95150000D01*
X148577440Y-94285750D01*
X149295000Y-94285750D01*
X149295000Y-95276309D01*
X149391673Y-95509698D01*
X149570301Y-95688327D01*
X149803690Y-95785000D01*
X150194250Y-95785000D01*
X150353000Y-95626250D01*
X150353000Y-94127000D01*
X150607000Y-94127000D01*
X150607000Y-95626250D01*
X150765750Y-95785000D01*
X151156310Y-95785000D01*
X151389699Y-95688327D01*
X151568327Y-95509698D01*
X151665000Y-95276309D01*
X151665000Y-94285750D01*
X151506250Y-94127000D01*
X150607000Y-94127000D01*
X150353000Y-94127000D01*
X149453750Y-94127000D01*
X149295000Y-94285750D01*
X148577440Y-94285750D01*
X148577440Y-92850000D01*
X148552316Y-92723691D01*
X149295000Y-92723691D01*
X149295000Y-93714250D01*
X149453750Y-93873000D01*
X150353000Y-93873000D01*
X150353000Y-92373750D01*
X150607000Y-92373750D01*
X150607000Y-93873000D01*
X151506250Y-93873000D01*
X151665000Y-93714250D01*
X151665000Y-92723691D01*
X151568327Y-92490302D01*
X151389699Y-92311673D01*
X151156310Y-92215000D01*
X150765750Y-92215000D01*
X150607000Y-92373750D01*
X150353000Y-92373750D01*
X150194250Y-92215000D01*
X149803690Y-92215000D01*
X149570301Y-92311673D01*
X149391673Y-92490302D01*
X149295000Y-92723691D01*
X148552316Y-92723691D01*
X148528157Y-92602235D01*
X148387809Y-92392191D01*
X148177765Y-92251843D01*
X147930000Y-92202560D01*
X146830000Y-92202560D01*
X146582235Y-92251843D01*
X146372191Y-92392191D01*
X146257330Y-92564091D01*
X146233845Y-92507392D01*
X145492608Y-91766155D01*
X144524134Y-91365000D01*
X143475866Y-91365000D01*
X142507392Y-91766155D01*
X141766155Y-92507392D01*
X141365000Y-93475866D01*
X140277440Y-93475866D01*
X140277440Y-92850000D01*
X140228157Y-92602235D01*
X140087809Y-92392191D01*
X139877765Y-92251843D01*
X139630000Y-92202560D01*
X138530000Y-92202560D01*
X138282235Y-92251843D01*
X138072191Y-92392191D01*
X137931843Y-92602235D01*
X137882560Y-92850000D01*
X135611940Y-92850000D01*
X135611940Y-82850000D01*
X137882560Y-82850000D01*
X137882560Y-85150000D01*
X137931843Y-85397765D01*
X138072191Y-85607809D01*
X138282235Y-85748157D01*
X138530000Y-85797440D01*
X139630000Y-85797440D01*
X139877765Y-85748157D01*
X140087809Y-85607809D01*
X140228157Y-85397765D01*
X140277440Y-85150000D01*
X140277440Y-83475866D01*
X141365000Y-83475866D01*
X141365000Y-84524134D01*
X141766155Y-85492608D01*
X142507392Y-86233845D01*
X143475866Y-86635000D01*
X144524134Y-86635000D01*
X145492608Y-86233845D01*
X146233845Y-85492608D01*
X146257330Y-85435909D01*
X146372191Y-85607809D01*
X146582235Y-85748157D01*
X146830000Y-85797440D01*
X147930000Y-85797440D01*
X148177765Y-85748157D01*
X148387809Y-85607809D01*
X148528157Y-85397765D01*
X148577440Y-85150000D01*
X148577440Y-84285750D01*
X149295000Y-84285750D01*
X149295000Y-85276309D01*
X149391673Y-85509698D01*
X149570301Y-85688327D01*
X149803690Y-85785000D01*
X150194250Y-85785000D01*
X150353000Y-85626250D01*
X150353000Y-84127000D01*
X150607000Y-84127000D01*
X150607000Y-85626250D01*
X150765750Y-85785000D01*
X151156310Y-85785000D01*
X151389699Y-85688327D01*
X151568327Y-85509698D01*
X151665000Y-85276309D01*
X151665000Y-84285750D01*
X151506250Y-84127000D01*
X150607000Y-84127000D01*
X150353000Y-84127000D01*
X149453750Y-84127000D01*
X149295000Y-84285750D01*
X148577440Y-84285750D01*
X148577440Y-82850000D01*
X148552316Y-82723691D01*
X149295000Y-82723691D01*
X149295000Y-83714250D01*
X149453750Y-83873000D01*
X150353000Y-83873000D01*
X150353000Y-82373750D01*
X150607000Y-82373750D01*
X150607000Y-83873000D01*
X151506250Y-83873000D01*
X151665000Y-83714250D01*
X151665000Y-82723691D01*
X151568327Y-82490302D01*
X151389699Y-82311673D01*
X151156310Y-82215000D01*
X150765750Y-82215000D01*
X150607000Y-82373750D01*
X150353000Y-82373750D01*
X150194250Y-82215000D01*
X149803690Y-82215000D01*
X149570301Y-82311673D01*
X149391673Y-82490302D01*
X149295000Y-82723691D01*
X148552316Y-82723691D01*
X148528157Y-82602235D01*
X148387809Y-82392191D01*
X148177765Y-82251843D01*
X147930000Y-82202560D01*
X146830000Y-82202560D01*
X146582235Y-82251843D01*
X146372191Y-82392191D01*
X146257330Y-82564091D01*
X146233845Y-82507392D01*
X145492608Y-81766155D01*
X144524134Y-81365000D01*
X143475866Y-81365000D01*
X142507392Y-81766155D01*
X141766155Y-82507392D01*
X141365000Y-83475866D01*
X140277440Y-83475866D01*
X140277440Y-82850000D01*
X140228157Y-82602235D01*
X140108184Y-82422683D01*
X149953892Y-72576976D01*
X150023610Y-72530392D01*
X150208161Y-72254192D01*
X150256609Y-72010628D01*
X150256609Y-72010627D01*
X150272967Y-71928391D01*
X150256609Y-71846154D01*
X150256609Y-63686865D01*
X150383816Y-63559658D01*
X150556609Y-63142498D01*
X150556609Y-62690966D01*
X150383816Y-62273806D01*
X150064535Y-61954525D01*
X149647375Y-61781732D01*
X149195843Y-61781732D01*
X148778683Y-61954525D01*
X148459402Y-62273806D01*
X148286609Y-62690966D01*
X148286609Y-63142498D01*
X148459402Y-63559658D01*
X148586610Y-63686866D01*
X148586609Y-71582523D01*
X138547718Y-81621415D01*
X138478000Y-81667999D01*
X138431416Y-81737717D01*
X138293448Y-81944200D01*
X138228643Y-82270000D01*
X138231742Y-82285581D01*
X138072191Y-82392191D01*
X137931843Y-82602235D01*
X137882560Y-82850000D01*
X135611940Y-82850000D01*
X135611940Y-82530929D01*
X147560262Y-70582609D01*
X147629977Y-70536027D01*
X147814528Y-70259827D01*
X147862976Y-70016263D01*
X147862976Y-70016260D01*
X147879333Y-69934027D01*
X147862976Y-69851794D01*
X147862976Y-63409048D01*
X147879334Y-63326811D01*
X147814528Y-63001010D01*
X147629977Y-62724810D01*
X147556745Y-62675878D01*
X147328587Y-62447720D01*
X147282001Y-62377999D01*
X147005801Y-62193448D01*
X146762237Y-62145000D01*
X146762233Y-62145000D01*
X146680000Y-62128643D01*
X146597767Y-62145000D01*
X144235868Y-62145000D01*
X143435000Y-61344133D01*
X143435000Y-61164234D01*
X143262207Y-60747074D01*
X142942926Y-60427793D01*
X142525766Y-60255000D01*
X142074234Y-60255000D01*
X141657074Y-60427793D01*
X141337793Y-60747074D01*
X141165000Y-61164234D01*
X141165000Y-61615766D01*
X141337793Y-62032926D01*
X141657074Y-62352207D01*
X142074234Y-62525000D01*
X142254133Y-62525000D01*
X143241415Y-63512283D01*
X143287999Y-63582001D01*
X143564199Y-63766552D01*
X143807763Y-63815000D01*
X143890000Y-63831358D01*
X143972237Y-63815000D01*
X146192977Y-63815000D01*
X146192977Y-64312129D01*
X146175766Y-64305000D01*
X145724234Y-64305000D01*
X145307074Y-64477793D01*
X144987793Y-64797074D01*
X144815000Y-65214234D01*
X144815000Y-65665766D01*
X144987793Y-66082926D01*
X145115000Y-66210133D01*
X145115001Y-67163215D01*
X144996675Y-67281542D01*
X144712926Y-66997793D01*
X144295766Y-66825000D01*
X143844234Y-66825000D01*
X143427074Y-66997793D01*
X143299867Y-67125000D01*
X137077926Y-67125000D01*
X137115000Y-67035494D01*
X137115000Y-66484506D01*
X136904147Y-65975460D01*
X136765000Y-65836313D01*
X136765000Y-51731934D01*
X136785276Y-51629999D01*
X136704948Y-51226163D01*
X136612492Y-51087793D01*
X136476193Y-50883807D01*
X136389776Y-50826065D01*
X127803935Y-42240225D01*
X127746191Y-42153805D01*
X127403835Y-41925050D01*
X127101933Y-41864998D01*
X127101932Y-41864998D01*
X126999998Y-41844722D01*
X126898064Y-41864998D01*
X112191936Y-41864998D01*
X112090001Y-41844722D01*
X111988067Y-41864998D01*
X111686165Y-41925050D01*
X111343809Y-42153805D01*
X111286067Y-42240222D01*
X103131290Y-50395000D01*
X102934506Y-50395000D01*
X102425460Y-50605853D01*
X102035853Y-50995460D01*
X101825000Y-51504506D01*
X101825000Y-51701289D01*
X98460227Y-55066063D01*
X98373807Y-55123807D01*
X98192602Y-55395000D01*
X98145052Y-55466164D01*
X98064724Y-55870000D01*
X98085000Y-55971934D01*
X98085001Y-66626314D01*
X97945853Y-66765462D01*
X97735000Y-67274508D01*
X97735000Y-67825496D01*
X97945853Y-68334542D01*
X98335460Y-68724149D01*
X98844506Y-68935002D01*
X99395494Y-68935002D01*
X99904540Y-68724149D01*
X100294147Y-68334542D01*
X100505000Y-67825496D01*
X100505000Y-67274508D01*
X100294147Y-66765462D01*
X100155000Y-66626315D01*
X100155000Y-56298710D01*
X103227228Y-53226483D01*
X103273807Y-53296193D01*
X103616163Y-53524948D01*
X103918065Y-53585000D01*
X103918070Y-53585000D01*
X104019999Y-53605275D01*
X104121929Y-53585000D01*
X110254991Y-53585000D01*
X110254991Y-53936976D01*
X110427784Y-54354136D01*
X110554992Y-54481344D01*
X110554991Y-68362592D01*
X101547718Y-77369866D01*
X101478000Y-77416450D01*
X101431416Y-77486168D01*
X101293448Y-77692651D01*
X101228643Y-78018451D01*
X101245001Y-78100689D01*
X101245000Y-82276723D01*
X101072191Y-82392191D01*
X100931843Y-82602235D01*
X100882560Y-82850000D01*
X100882560Y-85150000D01*
X100931843Y-85397765D01*
X101072191Y-85607809D01*
X101282235Y-85748157D01*
X101530000Y-85797440D01*
X102630000Y-85797440D01*
X102877765Y-85748157D01*
X103087809Y-85607809D01*
X103228157Y-85397765D01*
X103277440Y-85150000D01*
X103277440Y-82850000D01*
X103228157Y-82602235D01*
X103087809Y-82392191D01*
X102915000Y-82276723D01*
X102915000Y-78364318D01*
X110755000Y-70524319D01*
X110755000Y-70655766D01*
X110927793Y-71072926D01*
X111055000Y-71200133D01*
X111055000Y-82227424D01*
X110930000Y-82202560D01*
X109830000Y-82202560D01*
X109582235Y-82251843D01*
X109372191Y-82392191D01*
X109257330Y-82564091D01*
X109233845Y-82507392D01*
X108492608Y-81766155D01*
X107524134Y-81365000D01*
X107263866Y-81365000D01*
X107363866Y-81265000D01*
X108989867Y-81265000D01*
X109117074Y-81392207D01*
X109534234Y-81565000D01*
X109985766Y-81565000D01*
X110402926Y-81392207D01*
X110722207Y-81072926D01*
X110895000Y-80655766D01*
X110895000Y-80204234D01*
X110722207Y-79787074D01*
X110402926Y-79467793D01*
X109985766Y-79295000D01*
X109534234Y-79295000D01*
X109117074Y-79467793D01*
X108989867Y-79595000D01*
X107100231Y-79595000D01*
X107017998Y-79578643D01*
X106935765Y-79595000D01*
X106935761Y-79595000D01*
X106692197Y-79643448D01*
X106415997Y-79827999D01*
X106369413Y-79897717D01*
X104067717Y-82199414D01*
X103997999Y-82245998D01*
X103951415Y-82315716D01*
X103813447Y-82522199D01*
X103748642Y-82847999D01*
X103765000Y-82930237D01*
X103764999Y-106534133D01*
X98387718Y-111911415D01*
X98318000Y-111957999D01*
X98271416Y-112027717D01*
X98133448Y-112234200D01*
X98130256Y-112250248D01*
X98122235Y-112251843D01*
X97912191Y-112392191D01*
X97771843Y-112602235D01*
X97722560Y-112850000D01*
X97722560Y-115150000D01*
X97771843Y-115397765D01*
X97912191Y-115607809D01*
X98122235Y-115748157D01*
X98370000Y-115797440D01*
X99470000Y-115797440D01*
X99717765Y-115748157D01*
X99927809Y-115607809D01*
X100068157Y-115397765D01*
X100117440Y-115150000D01*
X100117440Y-112850000D01*
X100068157Y-112602235D01*
X100064342Y-112596525D01*
X105132282Y-107528586D01*
X105202000Y-107482002D01*
X105386551Y-107205802D01*
X105434999Y-106962238D01*
X105434999Y-106962237D01*
X105451357Y-106880001D01*
X105434999Y-106797764D01*
X105434999Y-106161452D01*
X105507392Y-106233845D01*
X106475866Y-106635000D01*
X106854132Y-106635000D01*
X101547718Y-111941415D01*
X101478000Y-111987999D01*
X101431416Y-112057717D01*
X101304689Y-112247377D01*
X101282235Y-112251843D01*
X101072191Y-112392191D01*
X100931843Y-112602235D01*
X100882560Y-112850000D01*
X100882560Y-115150000D01*
X100931843Y-115397765D01*
X101072191Y-115607809D01*
X101282235Y-115748157D01*
X101530000Y-115797440D01*
X102630000Y-115797440D01*
X102877765Y-115748157D01*
X103087809Y-115607809D01*
X103228157Y-115397765D01*
X103277440Y-115150000D01*
X103277440Y-112850000D01*
X103231554Y-112619313D01*
X107865868Y-107985000D01*
X113337767Y-107985000D01*
X113420000Y-108001357D01*
X113502233Y-107985000D01*
X113502237Y-107985000D01*
X113745801Y-107936552D01*
X114022001Y-107752001D01*
X114068587Y-107682280D01*
X121852283Y-99898585D01*
X121922001Y-99852001D01*
X122106552Y-99575801D01*
X122155000Y-99332237D01*
X122155000Y-99332234D01*
X122171357Y-99250001D01*
X122155000Y-99167768D01*
X122155000Y-86620133D01*
X122282207Y-86492926D01*
X122455000Y-86075766D01*
X122455000Y-85624234D01*
X122282207Y-85207074D01*
X121962926Y-84887793D01*
X121545766Y-84715000D01*
X121094234Y-84715000D01*
X120677074Y-84887793D01*
X120357793Y-85207074D01*
X120185000Y-85624234D01*
X120185000Y-86075766D01*
X120357793Y-86492926D01*
X120485000Y-86620133D01*
X120485000Y-86639342D01*
X120485001Y-86639347D01*
X120485000Y-98904132D01*
X114665000Y-104724133D01*
X114665000Y-104285750D01*
X114506250Y-104127000D01*
X113607000Y-104127000D01*
X113607000Y-105626250D01*
X113684941Y-105704191D01*
X113074133Y-106315000D01*
X108296682Y-106315000D01*
X108492608Y-106233845D01*
X109233845Y-105492608D01*
X109257330Y-105435909D01*
X109372191Y-105607809D01*
X109582235Y-105748157D01*
X109830000Y-105797440D01*
X110930000Y-105797440D01*
X111177765Y-105748157D01*
X111387809Y-105607809D01*
X111528157Y-105397765D01*
X111577440Y-105150000D01*
X111577440Y-104285750D01*
X112295000Y-104285750D01*
X112295000Y-105276309D01*
X112391673Y-105509698D01*
X112570301Y-105688327D01*
X112803690Y-105785000D01*
X113194250Y-105785000D01*
X113353000Y-105626250D01*
X113353000Y-104127000D01*
X112453750Y-104127000D01*
X112295000Y-104285750D01*
X111577440Y-104285750D01*
X111577440Y-102850000D01*
X111552316Y-102723691D01*
X112295000Y-102723691D01*
X112295000Y-103714250D01*
X112453750Y-103873000D01*
X113353000Y-103873000D01*
X113353000Y-102373750D01*
X113607000Y-102373750D01*
X113607000Y-103873000D01*
X114506250Y-103873000D01*
X114665000Y-103714250D01*
X114665000Y-102723691D01*
X114568327Y-102490302D01*
X114389699Y-102311673D01*
X114156310Y-102215000D01*
X113765750Y-102215000D01*
X113607000Y-102373750D01*
X113353000Y-102373750D01*
X113194250Y-102215000D01*
X112803690Y-102215000D01*
X112570301Y-102311673D01*
X112391673Y-102490302D01*
X112295000Y-102723691D01*
X111552316Y-102723691D01*
X111528157Y-102602235D01*
X111387809Y-102392191D01*
X111177765Y-102251843D01*
X110930000Y-102202560D01*
X109830000Y-102202560D01*
X109582235Y-102251843D01*
X109372191Y-102392191D01*
X109257330Y-102564091D01*
X109233845Y-102507392D01*
X108492608Y-101766155D01*
X107524134Y-101365000D01*
X106475866Y-101365000D01*
X105507392Y-101766155D01*
X105434999Y-101838548D01*
X105434999Y-96161452D01*
X105507392Y-96233845D01*
X106475866Y-96635000D01*
X107524134Y-96635000D01*
X108492608Y-96233845D01*
X109233845Y-95492608D01*
X109257330Y-95435909D01*
X109372191Y-95607809D01*
X109582235Y-95748157D01*
X109830000Y-95797440D01*
X110930000Y-95797440D01*
X111055001Y-95772576D01*
X111055001Y-98681094D01*
X110975000Y-98874234D01*
X110975000Y-99325766D01*
X111147793Y-99742926D01*
X111467074Y-100062207D01*
X111884234Y-100235000D01*
X112335766Y-100235000D01*
X112752926Y-100062207D01*
X113072207Y-99742926D01*
X113245000Y-99325766D01*
X113245000Y-98874234D01*
X113072207Y-98457074D01*
X112752926Y-98137793D01*
X112725000Y-98126226D01*
X112725000Y-95752405D01*
X112803690Y-95785000D01*
X113194250Y-95785000D01*
X113353000Y-95626250D01*
X113353000Y-94127000D01*
X113333000Y-94127000D01*
X113333000Y-93873000D01*
X113353000Y-93873000D01*
X113353000Y-92373750D01*
X113607000Y-92373750D01*
X113607000Y-93873000D01*
X114506250Y-93873000D01*
X114665000Y-93714250D01*
X114665000Y-92723691D01*
X114568327Y-92490302D01*
X114389699Y-92311673D01*
X114156310Y-92215000D01*
X113765750Y-92215000D01*
X113607000Y-92373750D01*
X113353000Y-92373750D01*
X113194250Y-92215000D01*
X112803690Y-92215000D01*
X112725000Y-92247595D01*
X112725000Y-85752405D01*
X112803690Y-85785000D01*
X113194250Y-85785000D01*
X113353000Y-85626250D01*
X113353000Y-84127000D01*
X113607000Y-84127000D01*
X113607000Y-85626250D01*
X113765750Y-85785000D01*
X114156310Y-85785000D01*
X114389699Y-85688327D01*
X114568327Y-85509698D01*
X114665000Y-85276309D01*
X114665000Y-84285750D01*
X114506250Y-84127000D01*
X113607000Y-84127000D01*
X113353000Y-84127000D01*
X113333000Y-84127000D01*
X113333000Y-83873000D01*
X113353000Y-83873000D01*
X113353000Y-82373750D01*
X113607000Y-82373750D01*
X113607000Y-83873000D01*
X114506250Y-83873000D01*
X114665000Y-83714250D01*
X114665000Y-82723691D01*
X114568327Y-82490302D01*
X114389699Y-82311673D01*
X114156310Y-82215000D01*
X113765750Y-82215000D01*
X113607000Y-82373750D01*
X113353000Y-82373750D01*
X113194250Y-82215000D01*
X112803690Y-82215000D01*
X112725000Y-82247595D01*
X112725000Y-79016916D01*
X112835853Y-79284540D01*
X113225460Y-79674147D01*
X113734506Y-79885000D01*
X114285494Y-79885000D01*
X114685000Y-79719520D01*
X114685001Y-95504132D01*
X114487718Y-95701415D01*
X114487715Y-95701417D01*
X114474132Y-95715000D01*
X114325305Y-95715000D01*
X114389699Y-95688327D01*
X114568327Y-95509698D01*
X114665000Y-95276309D01*
X114665000Y-94285750D01*
X114506250Y-94127000D01*
X113607000Y-94127000D01*
X113607000Y-95626250D01*
X113765750Y-95785000D01*
X114125239Y-95785000D01*
X113877074Y-95887793D01*
X113557793Y-96207074D01*
X113385000Y-96624234D01*
X113385000Y-97075766D01*
X113557793Y-97492926D01*
X113877074Y-97812207D01*
X114294234Y-97985000D01*
X114745766Y-97985000D01*
X115162926Y-97812207D01*
X115482207Y-97492926D01*
X115655000Y-97075766D01*
X115655000Y-96895868D01*
X115668583Y-96882285D01*
X115668585Y-96882282D01*
X116052280Y-96498587D01*
X116122001Y-96452001D01*
X116306552Y-96175801D01*
X116355000Y-95932237D01*
X116355000Y-95932234D01*
X116371357Y-95850001D01*
X116355000Y-95767768D01*
X116355000Y-87827327D01*
X116494234Y-87885000D01*
X116945766Y-87885000D01*
X117362926Y-87712207D01*
X117682207Y-87392926D01*
X117855000Y-86975766D01*
X117855000Y-86795868D01*
X117868583Y-86782285D01*
X117868585Y-86782282D01*
X126959751Y-77691117D01*
X127029469Y-77644533D01*
X127214020Y-77368333D01*
X127262468Y-77124769D01*
X127278826Y-77042532D01*
X127262468Y-76960295D01*
X127262468Y-53799705D01*
X127278826Y-53717468D01*
X127232673Y-53485444D01*
X127214020Y-53391667D01*
X127029469Y-53115467D01*
X126959751Y-53068883D01*
X126009303Y-52118436D01*
X126171476Y-51726890D01*
X126050155Y-51497000D01*
X124857000Y-51497000D01*
X124857000Y-51517000D01*
X124603000Y-51517000D01*
X124603000Y-51497000D01*
X123409845Y-51497000D01*
X123288524Y-51726890D01*
X123312593Y-51785001D01*
X122518749Y-51785001D01*
X122362207Y-51407074D01*
X122042926Y-51087793D01*
X121862625Y-51013110D01*
X123288524Y-51013110D01*
X123409845Y-51243000D01*
X124603000Y-51243000D01*
X124603000Y-50049181D01*
X124857000Y-50049181D01*
X124857000Y-51243000D01*
X126050155Y-51243000D01*
X126150366Y-51053110D01*
X128348524Y-51053110D01*
X128469845Y-51283000D01*
X129663000Y-51283000D01*
X129663000Y-50089181D01*
X129917000Y-50089181D01*
X129917000Y-51283000D01*
X132203000Y-51283000D01*
X132203000Y-50083750D01*
X132044250Y-49925000D01*
X131353691Y-49925000D01*
X131120302Y-50021673D01*
X130941673Y-50200301D01*
X130853070Y-50414208D01*
X130671358Y-50214817D01*
X130146892Y-49968514D01*
X129917000Y-50089181D01*
X129663000Y-50089181D01*
X129433108Y-49968514D01*
X128908642Y-50214817D01*
X128518355Y-50643076D01*
X128348524Y-51053110D01*
X126150366Y-51053110D01*
X126171476Y-51013110D01*
X126001645Y-50603076D01*
X125611358Y-50174817D01*
X125086892Y-49928514D01*
X124857000Y-50049181D01*
X124603000Y-50049181D01*
X124373108Y-49928514D01*
X123848642Y-50174817D01*
X123458355Y-50603076D01*
X123288524Y-51013110D01*
X121862625Y-51013110D01*
X121625766Y-50915000D01*
X121174234Y-50915000D01*
X120757074Y-51087793D01*
X120437793Y-51407074D01*
X120265000Y-51824234D01*
X120265000Y-52275766D01*
X120437793Y-52692926D01*
X120757074Y-53012207D01*
X121174234Y-53185000D01*
X121343276Y-53185000D01*
X121368000Y-53222002D01*
X121644200Y-53406553D01*
X121887764Y-53455001D01*
X121887767Y-53455001D01*
X121970000Y-53471358D01*
X122052233Y-53455001D01*
X123306413Y-53455001D01*
X123215908Y-53910000D01*
X123331161Y-54489418D01*
X123659375Y-54980625D01*
X123957761Y-55180000D01*
X123659375Y-55379375D01*
X123331161Y-55870582D01*
X123215908Y-56450000D01*
X123331161Y-57029418D01*
X123659375Y-57520625D01*
X123957761Y-57720000D01*
X123659375Y-57919375D01*
X123501935Y-58155000D01*
X122241128Y-58155000D01*
X117635000Y-53548874D01*
X117635000Y-53368975D01*
X117462207Y-52951815D01*
X117142926Y-52632534D01*
X116725766Y-52459741D01*
X116315000Y-52459741D01*
X116315000Y-48411928D01*
X116335276Y-48309993D01*
X116254948Y-47906157D01*
X116217421Y-47849994D01*
X116205000Y-47831405D01*
X116205000Y-47574500D01*
X115994147Y-47065454D01*
X115604540Y-46675847D01*
X115095494Y-46464994D01*
X114544506Y-46464994D01*
X114035460Y-46675847D01*
X113645853Y-47065454D01*
X113435000Y-47574500D01*
X113435000Y-48125488D01*
X113645853Y-48634534D01*
X114035460Y-49024141D01*
X114245001Y-49110935D01*
X114245001Y-53250630D01*
X112884597Y-51890227D01*
X112826853Y-51803807D01*
X112484497Y-51575052D01*
X112182595Y-51515000D01*
X112182594Y-51515000D01*
X112080660Y-51494724D01*
X111978726Y-51515000D01*
X104938710Y-51515000D01*
X112518713Y-43934998D01*
X126571288Y-43934998D01*
X132588520Y-49952230D01*
X132457000Y-50083750D01*
X132457000Y-51283000D01*
X133656250Y-51283000D01*
X133787770Y-51151480D01*
X134695001Y-52058712D01*
X134695000Y-62600132D01*
X134389196Y-62294328D01*
X134342610Y-62224607D01*
X134066410Y-62040056D01*
X133822846Y-61991608D01*
X133822842Y-61991608D01*
X133762612Y-61979628D01*
X133844092Y-61570000D01*
X133728839Y-60990582D01*
X133400625Y-60499375D01*
X133102239Y-60300000D01*
X133400625Y-60100625D01*
X133728839Y-59609418D01*
X133844092Y-59030000D01*
X133728839Y-58450582D01*
X133400625Y-57959375D01*
X133102239Y-57760000D01*
X133400625Y-57560625D01*
X133728839Y-57069418D01*
X133844092Y-56490000D01*
X133728839Y-55910582D01*
X133400625Y-55419375D01*
X133102239Y-55220000D01*
X133400625Y-55020625D01*
X133728839Y-54529418D01*
X133844092Y-53950000D01*
X133728839Y-53370582D01*
X133400625Y-52879375D01*
X133378967Y-52864904D01*
X133539698Y-52798327D01*
X133718327Y-52619699D01*
X133815000Y-52386310D01*
X133815000Y-51695750D01*
X133656250Y-51537000D01*
X132457000Y-51537000D01*
X132457000Y-51557000D01*
X132203000Y-51557000D01*
X132203000Y-51537000D01*
X129917000Y-51537000D01*
X129917000Y-51557000D01*
X129663000Y-51557000D01*
X129663000Y-51537000D01*
X128469845Y-51537000D01*
X128348524Y-51766890D01*
X128518355Y-52176924D01*
X128908642Y-52605183D01*
X129038478Y-52666157D01*
X128719375Y-52879375D01*
X128391161Y-53370582D01*
X128275908Y-53950000D01*
X128391161Y-54529418D01*
X128719375Y-55020625D01*
X129017761Y-55220000D01*
X128719375Y-55419375D01*
X128391161Y-55910582D01*
X128275908Y-56490000D01*
X128391161Y-57069418D01*
X128719375Y-57560625D01*
X129017761Y-57760000D01*
X128719375Y-57959375D01*
X128391161Y-58450582D01*
X128275908Y-59030000D01*
X128391161Y-59609418D01*
X128719375Y-60100625D01*
X129017761Y-60300000D01*
X128719375Y-60499375D01*
X128391161Y-60990582D01*
X128275908Y-61570000D01*
X128391161Y-62149418D01*
X128719375Y-62640625D01*
X129017761Y-62840000D01*
X128719375Y-63039375D01*
X128391161Y-63530582D01*
X128275908Y-64110000D01*
X128331193Y-64387939D01*
X127599926Y-65119207D01*
X127530208Y-65165791D01*
X127483624Y-65235509D01*
X127345656Y-65441992D01*
X127280851Y-65767792D01*
X127297209Y-65850030D01*
X127297208Y-72090566D01*
X127280851Y-72172799D01*
X127297208Y-72255032D01*
X127297208Y-72255035D01*
X127345656Y-72498599D01*
X127530207Y-72774800D01*
X127599928Y-72821386D01*
X128290824Y-73512283D01*
X128337409Y-73582002D01*
X128424727Y-73640346D01*
X128391161Y-73690582D01*
X128275908Y-74270000D01*
X128391161Y-74849418D01*
X128719375Y-75340625D01*
X129017761Y-75540000D01*
X128719375Y-75739375D01*
X128391161Y-76230582D01*
X128275908Y-76810000D01*
X128391161Y-77389418D01*
X128719375Y-77880625D01*
X129017761Y-78080000D01*
X128719375Y-78279375D01*
X128391161Y-78770582D01*
X128275908Y-79350000D01*
X128391161Y-79929418D01*
X128719375Y-80420625D01*
X129017761Y-80620000D01*
X128719375Y-80819375D01*
X128391161Y-81310582D01*
X128275908Y-81890000D01*
X128391161Y-82469418D01*
X128719375Y-82960625D01*
X129017761Y-83160000D01*
X128719375Y-83359375D01*
X128391161Y-83850582D01*
X128275908Y-84430000D01*
X128391161Y-85009418D01*
X128522760Y-85206370D01*
X124217720Y-89511411D01*
X124147999Y-89557997D01*
X123963448Y-89834198D01*
X123915000Y-90077762D01*
X123915000Y-90077765D01*
X123898643Y-90159998D01*
X123915000Y-90242231D01*
X123915001Y-104804133D01*
X114549192Y-114169942D01*
X114506250Y-114127000D01*
X113607000Y-114127000D01*
X113607000Y-114147000D01*
X113353000Y-114147000D01*
X113353000Y-114127000D01*
X112453750Y-114127000D01*
X112295000Y-114285750D01*
X112295000Y-115276309D01*
X112391673Y-115509698D01*
X112570301Y-115688327D01*
X112803690Y-115785000D01*
X112934135Y-115785000D01*
X112310610Y-116408525D01*
X108070893Y-116408525D01*
X108492608Y-116233845D01*
X109233845Y-115492608D01*
X109257330Y-115435909D01*
X109372191Y-115607809D01*
X109582235Y-115748157D01*
X109830000Y-115797440D01*
X110930000Y-115797440D01*
X111177765Y-115748157D01*
X111387809Y-115607809D01*
X111528157Y-115397765D01*
X111577440Y-115150000D01*
X111577440Y-112850000D01*
X111552316Y-112723691D01*
X112295000Y-112723691D01*
X112295000Y-113714250D01*
X112453750Y-113873000D01*
X113353000Y-113873000D01*
X113353000Y-112373750D01*
X113607000Y-112373750D01*
X113607000Y-113873000D01*
X114506250Y-113873000D01*
X114665000Y-113714250D01*
X114665000Y-112723691D01*
X114568327Y-112490302D01*
X114389699Y-112311673D01*
X114156310Y-112215000D01*
X113765750Y-112215000D01*
X113607000Y-112373750D01*
X113353000Y-112373750D01*
X113194250Y-112215000D01*
X112803690Y-112215000D01*
X112570301Y-112311673D01*
X112391673Y-112490302D01*
X112295000Y-112723691D01*
X111552316Y-112723691D01*
X111528157Y-112602235D01*
X111387809Y-112392191D01*
X111177765Y-112251843D01*
X110930000Y-112202560D01*
X109830000Y-112202560D01*
X109582235Y-112251843D01*
X109372191Y-112392191D01*
X109257330Y-112564091D01*
X109233845Y-112507392D01*
X108492608Y-111766155D01*
X107524134Y-111365000D01*
X106475866Y-111365000D01*
X105507392Y-111766155D01*
X104766155Y-112507392D01*
X104365000Y-113475866D01*
X104365000Y-114524134D01*
X104766155Y-115492608D01*
X105507392Y-116233845D01*
X105929107Y-116408525D01*
X95070893Y-116408525D01*
X95492608Y-116233845D01*
X96233845Y-115492608D01*
X96635000Y-114524134D01*
X96635000Y-113475866D01*
X96233845Y-112507392D01*
X95492608Y-111766155D01*
X94524134Y-111365000D01*
X93475866Y-111365000D01*
X92507392Y-111766155D01*
X91766155Y-112507392D01*
X91742670Y-112564091D01*
X91627809Y-112392191D01*
X91417765Y-112251843D01*
X91170000Y-112202560D01*
X90070000Y-112202560D01*
X89822235Y-112251843D01*
X89612191Y-112392191D01*
X89471843Y-112602235D01*
X89422560Y-112850000D01*
X89422560Y-115150000D01*
X89471843Y-115397765D01*
X89612191Y-115607809D01*
X89822235Y-115748157D01*
X90070000Y-115797440D01*
X91170000Y-115797440D01*
X91417765Y-115748157D01*
X91627809Y-115607809D01*
X91742670Y-115435909D01*
X91766155Y-115492608D01*
X92507392Y-116233845D01*
X92929107Y-116408525D01*
X64758769Y-116408525D01*
X64467684Y-116117440D01*
X65740000Y-116117440D01*
X65987765Y-116068157D01*
X66197809Y-115927809D01*
X66296900Y-115779510D01*
X66642056Y-116010136D01*
X67280000Y-116137031D01*
X67917945Y-116010136D01*
X68458769Y-115648769D01*
X68569952Y-115482371D01*
X68753683Y-115715922D01*
X69311645Y-116029144D01*
X69439566Y-116060124D01*
X69693000Y-115940777D01*
X69693000Y-114297000D01*
X69947000Y-114297000D01*
X69947000Y-115940777D01*
X70200434Y-116060124D01*
X70328355Y-116029144D01*
X70886317Y-115715922D01*
X71281942Y-115213020D01*
X71455000Y-114597000D01*
X71455000Y-114297000D01*
X69947000Y-114297000D01*
X69693000Y-114297000D01*
X69673000Y-114297000D01*
X69673000Y-114285750D01*
X86335000Y-114285750D01*
X86335000Y-115276309D01*
X86431673Y-115509698D01*
X86610301Y-115688327D01*
X86843690Y-115785000D01*
X87234250Y-115785000D01*
X87393000Y-115626250D01*
X87393000Y-114127000D01*
X87647000Y-114127000D01*
X87647000Y-115626250D01*
X87805750Y-115785000D01*
X88196310Y-115785000D01*
X88429699Y-115688327D01*
X88608327Y-115509698D01*
X88705000Y-115276309D01*
X88705000Y-114285750D01*
X88546250Y-114127000D01*
X87647000Y-114127000D01*
X87393000Y-114127000D01*
X86493750Y-114127000D01*
X86335000Y-114285750D01*
X69673000Y-114285750D01*
X69673000Y-114043000D01*
X69693000Y-114043000D01*
X69693000Y-114023000D01*
X69947000Y-114023000D01*
X69947000Y-114043000D01*
X71455000Y-114043000D01*
X71455000Y-113743000D01*
X71281942Y-113126980D01*
X70964681Y-112723691D01*
X86335000Y-112723691D01*
X86335000Y-113714250D01*
X86493750Y-113873000D01*
X87393000Y-113873000D01*
X87393000Y-112373750D01*
X87647000Y-112373750D01*
X87647000Y-113873000D01*
X88546250Y-113873000D01*
X88705000Y-113714250D01*
X88705000Y-112723691D01*
X88608327Y-112490302D01*
X88429699Y-112311673D01*
X88196310Y-112215000D01*
X87805750Y-112215000D01*
X87647000Y-112373750D01*
X87393000Y-112373750D01*
X87234250Y-112215000D01*
X86843690Y-112215000D01*
X86610301Y-112311673D01*
X86431673Y-112490302D01*
X86335000Y-112723691D01*
X70964681Y-112723691D01*
X70886317Y-112624078D01*
X70328355Y-112310856D01*
X70200434Y-112279876D01*
X69947002Y-112399222D01*
X69947002Y-112383865D01*
X72505868Y-109825000D01*
X88167767Y-109825000D01*
X88250000Y-109841357D01*
X88332233Y-109825000D01*
X88332237Y-109825000D01*
X88575801Y-109776552D01*
X88852001Y-109592001D01*
X88898587Y-109522280D01*
X90202282Y-108218586D01*
X90272000Y-108172002D01*
X90456551Y-107895802D01*
X90504999Y-107652238D01*
X90504999Y-107652237D01*
X90521357Y-107570001D01*
X90504999Y-107487764D01*
X90504999Y-105797440D01*
X91170000Y-105797440D01*
X91417765Y-105748157D01*
X91627809Y-105607809D01*
X91742670Y-105435909D01*
X91766155Y-105492608D01*
X92507392Y-106233845D01*
X93475866Y-106635000D01*
X94524134Y-106635000D01*
X95492608Y-106233845D01*
X96233845Y-105492608D01*
X96635000Y-104524134D01*
X96635000Y-103475866D01*
X96375758Y-102850000D01*
X97722560Y-102850000D01*
X97722560Y-105150000D01*
X97771843Y-105397765D01*
X97912191Y-105607809D01*
X98122235Y-105748157D01*
X98370000Y-105797440D01*
X99470000Y-105797440D01*
X99717765Y-105748157D01*
X99927809Y-105607809D01*
X100068157Y-105397765D01*
X100117440Y-105150000D01*
X100117440Y-102850000D01*
X100882560Y-102850000D01*
X100882560Y-105150000D01*
X100931843Y-105397765D01*
X101072191Y-105607809D01*
X101282235Y-105748157D01*
X101530000Y-105797440D01*
X102630000Y-105797440D01*
X102877765Y-105748157D01*
X103087809Y-105607809D01*
X103228157Y-105397765D01*
X103277440Y-105150000D01*
X103277440Y-102850000D01*
X103228157Y-102602235D01*
X103087809Y-102392191D01*
X102877765Y-102251843D01*
X102630000Y-102202560D01*
X101530000Y-102202560D01*
X101282235Y-102251843D01*
X101072191Y-102392191D01*
X100931843Y-102602235D01*
X100882560Y-102850000D01*
X100117440Y-102850000D01*
X100068157Y-102602235D01*
X99927809Y-102392191D01*
X99717765Y-102251843D01*
X99470000Y-102202560D01*
X98370000Y-102202560D01*
X98122235Y-102251843D01*
X97912191Y-102392191D01*
X97771843Y-102602235D01*
X97722560Y-102850000D01*
X96375758Y-102850000D01*
X96233845Y-102507392D01*
X95492608Y-101766155D01*
X94524134Y-101365000D01*
X93475866Y-101365000D01*
X92507392Y-101766155D01*
X91766155Y-102507392D01*
X91742670Y-102564091D01*
X91627809Y-102392191D01*
X91417765Y-102251843D01*
X91170000Y-102202560D01*
X90504999Y-102202560D01*
X90504999Y-95797440D01*
X91170000Y-95797440D01*
X91417765Y-95748157D01*
X91627809Y-95607809D01*
X91742670Y-95435909D01*
X91766155Y-95492608D01*
X92507392Y-96233845D01*
X93475866Y-96635000D01*
X94524134Y-96635000D01*
X95492608Y-96233845D01*
X96233845Y-95492608D01*
X96635000Y-94524134D01*
X96635000Y-93475866D01*
X96233845Y-92507392D01*
X95492608Y-91766155D01*
X94524134Y-91365000D01*
X93475866Y-91365000D01*
X92507392Y-91766155D01*
X91766155Y-92507392D01*
X91742670Y-92564091D01*
X91627809Y-92392191D01*
X91417765Y-92251843D01*
X91170000Y-92202560D01*
X90504999Y-92202560D01*
X90504999Y-85797440D01*
X91170000Y-85797440D01*
X91417765Y-85748157D01*
X91627809Y-85607809D01*
X91742670Y-85435909D01*
X91766155Y-85492608D01*
X92507392Y-86233845D01*
X93475866Y-86635000D01*
X94524134Y-86635000D01*
X95492608Y-86233845D01*
X96233845Y-85492608D01*
X96635000Y-84524134D01*
X96635000Y-83475866D01*
X96233845Y-82507392D01*
X95492608Y-81766155D01*
X94524134Y-81365000D01*
X93475866Y-81365000D01*
X92507392Y-81766155D01*
X91766155Y-82507392D01*
X91742670Y-82564091D01*
X91627809Y-82392191D01*
X91417765Y-82251843D01*
X91170000Y-82202560D01*
X90504999Y-82202560D01*
X90504999Y-69150134D01*
X90632207Y-69022926D01*
X90805000Y-68605766D01*
X90805000Y-68154234D01*
X90632207Y-67737074D01*
X90312926Y-67417793D01*
X89895766Y-67245000D01*
X89444234Y-67245000D01*
X89027074Y-67417793D01*
X88707793Y-67737074D01*
X88535000Y-68154234D01*
X88535000Y-68605766D01*
X88707793Y-69022926D01*
X88835000Y-69150133D01*
X88834999Y-107224133D01*
X87904133Y-108155000D01*
X85254656Y-108155000D01*
X85458839Y-107849418D01*
X85574092Y-107270000D01*
X85458839Y-106690582D01*
X85130625Y-106199375D01*
X84832239Y-106000000D01*
X85130625Y-105800625D01*
X85458839Y-105309418D01*
X85574092Y-104730000D01*
X85485726Y-104285750D01*
X86335000Y-104285750D01*
X86335000Y-105276309D01*
X86431673Y-105509698D01*
X86610301Y-105688327D01*
X86843690Y-105785000D01*
X87234250Y-105785000D01*
X87393000Y-105626250D01*
X87393000Y-104127000D01*
X87647000Y-104127000D01*
X87647000Y-105626250D01*
X87805750Y-105785000D01*
X88196310Y-105785000D01*
X88429699Y-105688327D01*
X88608327Y-105509698D01*
X88705000Y-105276309D01*
X88705000Y-104285750D01*
X88546250Y-104127000D01*
X87647000Y-104127000D01*
X87393000Y-104127000D01*
X86493750Y-104127000D01*
X86335000Y-104285750D01*
X85485726Y-104285750D01*
X85458839Y-104150582D01*
X85130625Y-103659375D01*
X84832239Y-103460000D01*
X85130625Y-103260625D01*
X85458839Y-102769418D01*
X85467934Y-102723691D01*
X86335000Y-102723691D01*
X86335000Y-103714250D01*
X86493750Y-103873000D01*
X87393000Y-103873000D01*
X87393000Y-102373750D01*
X87647000Y-102373750D01*
X87647000Y-103873000D01*
X88546250Y-103873000D01*
X88705000Y-103714250D01*
X88705000Y-102723691D01*
X88608327Y-102490302D01*
X88429699Y-102311673D01*
X88196310Y-102215000D01*
X87805750Y-102215000D01*
X87647000Y-102373750D01*
X87393000Y-102373750D01*
X87234250Y-102215000D01*
X86843690Y-102215000D01*
X86610301Y-102311673D01*
X86431673Y-102490302D01*
X86335000Y-102723691D01*
X85467934Y-102723691D01*
X85574092Y-102190000D01*
X85458839Y-101610582D01*
X85130625Y-101119375D01*
X84832239Y-100920000D01*
X85130625Y-100720625D01*
X85458839Y-100229418D01*
X85574092Y-99650000D01*
X85458839Y-99070582D01*
X85130625Y-98579375D01*
X84832239Y-98380000D01*
X85130625Y-98180625D01*
X85458839Y-97689418D01*
X85574092Y-97110000D01*
X85458839Y-96530582D01*
X85130625Y-96039375D01*
X84832239Y-95840000D01*
X85130625Y-95640625D01*
X85458839Y-95149418D01*
X85574092Y-94570000D01*
X85517552Y-94285750D01*
X86335000Y-94285750D01*
X86335000Y-95276309D01*
X86431673Y-95509698D01*
X86610301Y-95688327D01*
X86843690Y-95785000D01*
X87234250Y-95785000D01*
X87393000Y-95626250D01*
X87393000Y-94127000D01*
X87647000Y-94127000D01*
X87647000Y-95626250D01*
X87805750Y-95785000D01*
X88196310Y-95785000D01*
X88429699Y-95688327D01*
X88608327Y-95509698D01*
X88705000Y-95276309D01*
X88705000Y-94285750D01*
X88546250Y-94127000D01*
X87647000Y-94127000D01*
X87393000Y-94127000D01*
X86493750Y-94127000D01*
X86335000Y-94285750D01*
X85517552Y-94285750D01*
X85458839Y-93990582D01*
X85130625Y-93499375D01*
X84832239Y-93300000D01*
X85130625Y-93100625D01*
X85382484Y-92723691D01*
X86335000Y-92723691D01*
X86335000Y-93714250D01*
X86493750Y-93873000D01*
X87393000Y-93873000D01*
X87393000Y-92373750D01*
X87647000Y-92373750D01*
X87647000Y-93873000D01*
X88546250Y-93873000D01*
X88705000Y-93714250D01*
X88705000Y-92723691D01*
X88608327Y-92490302D01*
X88429699Y-92311673D01*
X88196310Y-92215000D01*
X87805750Y-92215000D01*
X87647000Y-92373750D01*
X87393000Y-92373750D01*
X87234250Y-92215000D01*
X86843690Y-92215000D01*
X86610301Y-92311673D01*
X86431673Y-92490302D01*
X86335000Y-92723691D01*
X85382484Y-92723691D01*
X85458839Y-92609418D01*
X85574092Y-92030000D01*
X85458839Y-91450582D01*
X85130625Y-90959375D01*
X84832239Y-90760000D01*
X85130625Y-90560625D01*
X85458839Y-90069418D01*
X85574092Y-89490000D01*
X85458839Y-88910582D01*
X85130625Y-88419375D01*
X84832239Y-88220000D01*
X85130625Y-88020625D01*
X85458839Y-87529418D01*
X85574092Y-86950000D01*
X85458839Y-86370582D01*
X85130625Y-85879375D01*
X84832239Y-85680000D01*
X85130625Y-85480625D01*
X85458839Y-84989418D01*
X85574092Y-84410000D01*
X85549378Y-84285750D01*
X86335000Y-84285750D01*
X86335000Y-85276309D01*
X86431673Y-85509698D01*
X86610301Y-85688327D01*
X86843690Y-85785000D01*
X87234250Y-85785000D01*
X87393000Y-85626250D01*
X87393000Y-84127000D01*
X87647000Y-84127000D01*
X87647000Y-85626250D01*
X87805750Y-85785000D01*
X88196310Y-85785000D01*
X88429699Y-85688327D01*
X88608327Y-85509698D01*
X88705000Y-85276309D01*
X88705000Y-84285750D01*
X88546250Y-84127000D01*
X87647000Y-84127000D01*
X87393000Y-84127000D01*
X86493750Y-84127000D01*
X86335000Y-84285750D01*
X85549378Y-84285750D01*
X85458839Y-83830582D01*
X85130625Y-83339375D01*
X84832239Y-83140000D01*
X85130625Y-82940625D01*
X85275575Y-82723691D01*
X86335000Y-82723691D01*
X86335000Y-83714250D01*
X86493750Y-83873000D01*
X87393000Y-83873000D01*
X87393000Y-82373750D01*
X87647000Y-82373750D01*
X87647000Y-83873000D01*
X88546250Y-83873000D01*
X88705000Y-83714250D01*
X88705000Y-82723691D01*
X88608327Y-82490302D01*
X88429699Y-82311673D01*
X88196310Y-82215000D01*
X87805750Y-82215000D01*
X87647000Y-82373750D01*
X87393000Y-82373750D01*
X87234250Y-82215000D01*
X86843690Y-82215000D01*
X86610301Y-82311673D01*
X86431673Y-82490302D01*
X86335000Y-82723691D01*
X85275575Y-82723691D01*
X85458839Y-82449418D01*
X85574092Y-81870000D01*
X85458839Y-81290582D01*
X85130625Y-80799375D01*
X84832239Y-80600000D01*
X85130625Y-80400625D01*
X85458839Y-79909418D01*
X85574092Y-79330000D01*
X85458839Y-78750582D01*
X85130625Y-78259375D01*
X84832239Y-78060000D01*
X85130625Y-77860625D01*
X85458839Y-77369418D01*
X85574092Y-76790000D01*
X85458839Y-76210582D01*
X85352485Y-76051412D01*
X85358587Y-76042280D01*
X86492283Y-74908585D01*
X86562001Y-74862001D01*
X86746552Y-74585801D01*
X86795000Y-74342237D01*
X86795000Y-74342236D01*
X86811358Y-74260000D01*
X86795000Y-74177763D01*
X86795000Y-65645867D01*
X87915868Y-64525000D01*
X91769867Y-64525000D01*
X91897074Y-64652207D01*
X92314234Y-64825000D01*
X92765766Y-64825000D01*
X93182926Y-64652207D01*
X93204331Y-64630802D01*
X93919420Y-64630802D01*
X93919420Y-65082334D01*
X94092213Y-65499494D01*
X94219421Y-65626702D01*
X94219420Y-76126091D01*
X94203063Y-76208324D01*
X94219420Y-76290557D01*
X94219420Y-76290560D01*
X94267868Y-76534124D01*
X94452419Y-76810325D01*
X94522140Y-76856911D01*
X95332930Y-77667702D01*
X95332930Y-77847600D01*
X95505723Y-78264760D01*
X95825004Y-78584041D01*
X96242164Y-78756834D01*
X96693696Y-78756834D01*
X96985000Y-78636172D01*
X96985001Y-91348510D01*
X96968643Y-91430748D01*
X97033448Y-91756548D01*
X97141092Y-91917648D01*
X97218000Y-92032749D01*
X97287718Y-92079333D01*
X97787375Y-92578990D01*
X97771843Y-92602235D01*
X97722560Y-92850000D01*
X97722560Y-95150000D01*
X97771843Y-95397765D01*
X97912191Y-95607809D01*
X98122235Y-95748157D01*
X98370000Y-95797440D01*
X99470000Y-95797440D01*
X99717765Y-95748157D01*
X99927809Y-95607809D01*
X100068157Y-95397765D01*
X100117440Y-95150000D01*
X100117440Y-92850000D01*
X100882560Y-92850000D01*
X100882560Y-95150000D01*
X100931843Y-95397765D01*
X101072191Y-95607809D01*
X101282235Y-95748157D01*
X101530000Y-95797440D01*
X102630000Y-95797440D01*
X102877765Y-95748157D01*
X103087809Y-95607809D01*
X103228157Y-95397765D01*
X103277440Y-95150000D01*
X103277440Y-92850000D01*
X103228157Y-92602235D01*
X103087809Y-92392191D01*
X102877765Y-92251843D01*
X102630000Y-92202560D01*
X101530000Y-92202560D01*
X101282235Y-92251843D01*
X101072191Y-92392191D01*
X100931843Y-92602235D01*
X100882560Y-92850000D01*
X100117440Y-92850000D01*
X100068157Y-92602235D01*
X99927809Y-92392191D01*
X99717765Y-92251843D01*
X99715803Y-92251453D01*
X99706552Y-92204947D01*
X99704957Y-92202560D01*
X99522001Y-91928747D01*
X99452283Y-91882163D01*
X98655000Y-91084881D01*
X98655000Y-85797440D01*
X99470000Y-85797440D01*
X99717765Y-85748157D01*
X99927809Y-85607809D01*
X100068157Y-85397765D01*
X100117440Y-85150000D01*
X100117440Y-82850000D01*
X100068157Y-82602235D01*
X99927809Y-82392191D01*
X99717765Y-82251843D01*
X99470000Y-82202560D01*
X98655000Y-82202560D01*
X98655000Y-73195867D01*
X108602283Y-63248585D01*
X108672001Y-63202001D01*
X108856552Y-62925801D01*
X108905000Y-62682237D01*
X108905000Y-62682234D01*
X108921357Y-62600001D01*
X108905000Y-62517768D01*
X108905000Y-61870133D01*
X109032207Y-61742926D01*
X109205000Y-61325766D01*
X109205000Y-60874234D01*
X109032207Y-60457074D01*
X108712926Y-60137793D01*
X108295766Y-59965000D01*
X107844234Y-59965000D01*
X107427074Y-60137793D01*
X107107793Y-60457074D01*
X106935000Y-60874234D01*
X106935000Y-61325766D01*
X107107793Y-61742926D01*
X107235001Y-61870134D01*
X107235001Y-62254131D01*
X97287720Y-72201413D01*
X97217999Y-72247999D01*
X97033448Y-72524200D01*
X96985000Y-72767764D01*
X96985000Y-72767767D01*
X96968643Y-72850000D01*
X96985000Y-72932233D01*
X96985000Y-76607496D01*
X96693696Y-76486834D01*
X96513798Y-76486834D01*
X95889420Y-75862457D01*
X95889420Y-65626701D01*
X96016627Y-65499494D01*
X96189420Y-65082334D01*
X96189420Y-64630802D01*
X96016627Y-64213642D01*
X95697346Y-63894361D01*
X95280186Y-63721568D01*
X94828654Y-63721568D01*
X94411494Y-63894361D01*
X94092213Y-64213642D01*
X93919420Y-64630802D01*
X93204331Y-64630802D01*
X93502207Y-64332926D01*
X93675000Y-63915766D01*
X93675000Y-63464234D01*
X93502207Y-63047074D01*
X93182926Y-62727793D01*
X92765766Y-62555000D01*
X92314234Y-62555000D01*
X91897074Y-62727793D01*
X91769867Y-62855000D01*
X87652237Y-62855000D01*
X87570000Y-62838642D01*
X87487763Y-62855000D01*
X87244199Y-62903448D01*
X86967999Y-63087999D01*
X86921415Y-63157717D01*
X85471037Y-64608096D01*
X85574092Y-64090000D01*
X85458839Y-63510582D01*
X85130625Y-63019375D01*
X84832239Y-62820000D01*
X85130625Y-62620625D01*
X85458839Y-62129418D01*
X85574092Y-61550000D01*
X85458839Y-60970582D01*
X85130625Y-60479375D01*
X84832239Y-60280000D01*
X85130625Y-60080625D01*
X85458839Y-59589418D01*
X85574092Y-59010000D01*
X85458839Y-58430582D01*
X85130625Y-57939375D01*
X84832239Y-57740000D01*
X85130625Y-57540625D01*
X85458839Y-57049418D01*
X85574092Y-56470000D01*
X85458839Y-55890582D01*
X85130625Y-55399375D01*
X84832239Y-55200000D01*
X85130625Y-55000625D01*
X85458839Y-54509418D01*
X85574092Y-53930000D01*
X85458839Y-53350582D01*
X85130625Y-52859375D01*
X85108967Y-52844904D01*
X85269698Y-52778327D01*
X85448327Y-52599699D01*
X85545000Y-52366310D01*
X85545000Y-51675750D01*
X85386250Y-51517000D01*
X84187000Y-51517000D01*
X84187000Y-51537000D01*
X83933000Y-51537000D01*
X83933000Y-51517000D01*
X81647000Y-51517000D01*
X81647000Y-51537000D01*
X81393000Y-51537000D01*
X81393000Y-51517000D01*
X80199845Y-51517000D01*
X80078524Y-51746890D01*
X80248355Y-52156924D01*
X80638642Y-52585183D01*
X80768478Y-52646157D01*
X80449375Y-52859375D01*
X80121161Y-53350582D01*
X80005908Y-53930000D01*
X80121161Y-54509418D01*
X80449375Y-55000625D01*
X80747761Y-55200000D01*
X80449375Y-55399375D01*
X80121161Y-55890582D01*
X80005908Y-56470000D01*
X80121161Y-57049418D01*
X80449375Y-57540625D01*
X80747761Y-57740000D01*
X80449375Y-57939375D01*
X80121161Y-58430582D01*
X80005908Y-59010000D01*
X80121161Y-59589418D01*
X80449375Y-60080625D01*
X80747761Y-60280000D01*
X80449375Y-60479375D01*
X80121161Y-60970582D01*
X80005908Y-61550000D01*
X80121161Y-62129418D01*
X80449375Y-62620625D01*
X80747761Y-62820000D01*
X80449375Y-63019375D01*
X80121161Y-63510582D01*
X80005908Y-64090000D01*
X80121161Y-64669418D01*
X80449375Y-65160625D01*
X80747761Y-65360000D01*
X80449375Y-65559375D01*
X80121161Y-66050582D01*
X80005908Y-66630000D01*
X80121161Y-67209418D01*
X80449375Y-67700625D01*
X80747761Y-67900000D01*
X80449375Y-68099375D01*
X80121161Y-68590582D01*
X80005908Y-69170000D01*
X80121161Y-69749418D01*
X80449375Y-70240625D01*
X80747761Y-70440000D01*
X80449375Y-70639375D01*
X80121161Y-71130582D01*
X80005908Y-71710000D01*
X80121161Y-72289418D01*
X80449375Y-72780625D01*
X80747761Y-72980000D01*
X80449375Y-73179375D01*
X80121161Y-73670582D01*
X80005908Y-74250000D01*
X80121161Y-74829418D01*
X80236739Y-75002392D01*
X78947718Y-76291415D01*
X78878000Y-76337999D01*
X78831416Y-76407717D01*
X78693448Y-76614200D01*
X78628643Y-76940000D01*
X78645001Y-77022238D01*
X78645000Y-98784132D01*
X65206573Y-112222560D01*
X63740000Y-112222560D01*
X63565762Y-112257218D01*
X63565762Y-95643788D01*
X63610301Y-95688327D01*
X63843690Y-95785000D01*
X64234250Y-95785000D01*
X64393000Y-95626250D01*
X64393000Y-94127000D01*
X64647000Y-94127000D01*
X64647000Y-95626250D01*
X64805750Y-95785000D01*
X65196310Y-95785000D01*
X65429699Y-95688327D01*
X65608327Y-95509698D01*
X65705000Y-95276309D01*
X65705000Y-94285750D01*
X65546250Y-94127000D01*
X64647000Y-94127000D01*
X64393000Y-94127000D01*
X64373000Y-94127000D01*
X64373000Y-93873000D01*
X64393000Y-93873000D01*
X64393000Y-92373750D01*
X64647000Y-92373750D01*
X64647000Y-93873000D01*
X65546250Y-93873000D01*
X65705000Y-93714250D01*
X65705000Y-92850000D01*
X66422560Y-92850000D01*
X66422560Y-95150000D01*
X66471843Y-95397765D01*
X66612191Y-95607809D01*
X66822235Y-95748157D01*
X67070000Y-95797440D01*
X68170000Y-95797440D01*
X68417765Y-95748157D01*
X68627809Y-95607809D01*
X68742670Y-95435909D01*
X68766155Y-95492608D01*
X69507392Y-96233845D01*
X70475866Y-96635000D01*
X71524134Y-96635000D01*
X72492608Y-96233845D01*
X73233845Y-95492608D01*
X73635000Y-94524134D01*
X73635000Y-93475866D01*
X73375758Y-92850000D01*
X74722560Y-92850000D01*
X74722560Y-95150000D01*
X74771843Y-95397765D01*
X74912191Y-95607809D01*
X75122235Y-95748157D01*
X75370000Y-95797440D01*
X76470000Y-95797440D01*
X76717765Y-95748157D01*
X76927809Y-95607809D01*
X77068157Y-95397765D01*
X77117440Y-95150000D01*
X77117440Y-92850000D01*
X77068157Y-92602235D01*
X76927809Y-92392191D01*
X76717765Y-92251843D01*
X76470000Y-92202560D01*
X75370000Y-92202560D01*
X75122235Y-92251843D01*
X74912191Y-92392191D01*
X74771843Y-92602235D01*
X74722560Y-92850000D01*
X73375758Y-92850000D01*
X73233845Y-92507392D01*
X72492608Y-91766155D01*
X71524134Y-91365000D01*
X70475866Y-91365000D01*
X69507392Y-91766155D01*
X68766155Y-92507392D01*
X68742670Y-92564091D01*
X68627809Y-92392191D01*
X68417765Y-92251843D01*
X68170000Y-92202560D01*
X67070000Y-92202560D01*
X66822235Y-92251843D01*
X66612191Y-92392191D01*
X66471843Y-92602235D01*
X66422560Y-92850000D01*
X65705000Y-92850000D01*
X65705000Y-92723691D01*
X65608327Y-92490302D01*
X65429699Y-92311673D01*
X65196310Y-92215000D01*
X64805750Y-92215000D01*
X64647000Y-92373750D01*
X64393000Y-92373750D01*
X64234250Y-92215000D01*
X63843690Y-92215000D01*
X63610301Y-92311673D01*
X63565762Y-92356212D01*
X63565762Y-85643788D01*
X63610301Y-85688327D01*
X63843690Y-85785000D01*
X64234250Y-85785000D01*
X64393000Y-85626250D01*
X64393000Y-84127000D01*
X64647000Y-84127000D01*
X64647000Y-85626250D01*
X64805750Y-85785000D01*
X65196310Y-85785000D01*
X65429699Y-85688327D01*
X65608327Y-85509698D01*
X65705000Y-85276309D01*
X65705000Y-84285750D01*
X65546250Y-84127000D01*
X64647000Y-84127000D01*
X64393000Y-84127000D01*
X64373000Y-84127000D01*
X64373000Y-83873000D01*
X64393000Y-83873000D01*
X64393000Y-82373750D01*
X64647000Y-82373750D01*
X64647000Y-83873000D01*
X65546250Y-83873000D01*
X65705000Y-83714250D01*
X65705000Y-82850000D01*
X66422560Y-82850000D01*
X66422560Y-85150000D01*
X66471843Y-85397765D01*
X66612191Y-85607809D01*
X66822235Y-85748157D01*
X67070000Y-85797440D01*
X68170000Y-85797440D01*
X68417765Y-85748157D01*
X68627809Y-85607809D01*
X68742670Y-85435909D01*
X68766155Y-85492608D01*
X69507392Y-86233845D01*
X70475866Y-86635000D01*
X71524134Y-86635000D01*
X72492608Y-86233845D01*
X73233845Y-85492608D01*
X73635000Y-84524134D01*
X73635000Y-83475866D01*
X73375758Y-82850000D01*
X74722560Y-82850000D01*
X74722560Y-85150000D01*
X74771843Y-85397765D01*
X74912191Y-85607809D01*
X75122235Y-85748157D01*
X75370000Y-85797440D01*
X76470000Y-85797440D01*
X76717765Y-85748157D01*
X76927809Y-85607809D01*
X77068157Y-85397765D01*
X77117440Y-85150000D01*
X77117440Y-82850000D01*
X77068157Y-82602235D01*
X76927809Y-82392191D01*
X76717765Y-82251843D01*
X76470000Y-82202560D01*
X75370000Y-82202560D01*
X75122235Y-82251843D01*
X74912191Y-82392191D01*
X74771843Y-82602235D01*
X74722560Y-82850000D01*
X73375758Y-82850000D01*
X73233845Y-82507392D01*
X72492608Y-81766155D01*
X71524134Y-81365000D01*
X70475866Y-81365000D01*
X69507392Y-81766155D01*
X68766155Y-82507392D01*
X68742670Y-82564091D01*
X68627809Y-82392191D01*
X68417765Y-82251843D01*
X68170000Y-82202560D01*
X67070000Y-82202560D01*
X66822235Y-82251843D01*
X66612191Y-82392191D01*
X66471843Y-82602235D01*
X66422560Y-82850000D01*
X65705000Y-82850000D01*
X65705000Y-82723691D01*
X65608327Y-82490302D01*
X65429699Y-82311673D01*
X65196310Y-82215000D01*
X64805750Y-82215000D01*
X64647000Y-82373750D01*
X64393000Y-82373750D01*
X64234250Y-82215000D01*
X63843690Y-82215000D01*
X63610301Y-82311673D01*
X63565762Y-82356212D01*
X63565762Y-54556075D01*
X65732560Y-52389278D01*
X65732560Y-54620000D01*
X65781843Y-54867765D01*
X65922191Y-55077809D01*
X66132235Y-55218157D01*
X66380000Y-55267440D01*
X67880000Y-55267440D01*
X68127765Y-55218157D01*
X68302614Y-55101325D01*
X68235000Y-55264561D01*
X68235000Y-55835439D01*
X68453466Y-56362862D01*
X68857138Y-56766534D01*
X69384561Y-56985000D01*
X69955439Y-56985000D01*
X70482862Y-56766534D01*
X70886534Y-56362862D01*
X70940000Y-56233784D01*
X70993466Y-56362862D01*
X71397138Y-56766534D01*
X71924561Y-56985000D01*
X72495439Y-56985000D01*
X73022862Y-56766534D01*
X73426534Y-56362862D01*
X73480000Y-56233784D01*
X73533466Y-56362862D01*
X73937138Y-56766534D01*
X74464561Y-56985000D01*
X75035439Y-56985000D01*
X75562862Y-56766534D01*
X75966534Y-56362862D01*
X76185000Y-55835439D01*
X76185000Y-55264561D01*
X76029283Y-54888627D01*
X76082191Y-54967809D01*
X76292235Y-55108157D01*
X76540000Y-55157440D01*
X78040000Y-55157440D01*
X78287765Y-55108157D01*
X78497809Y-54967809D01*
X78638157Y-54757765D01*
X78687440Y-54510000D01*
X78687440Y-51510000D01*
X78638157Y-51262235D01*
X78497809Y-51052191D01*
X78469253Y-51033110D01*
X80078524Y-51033110D01*
X80199845Y-51263000D01*
X81393000Y-51263000D01*
X81393000Y-50069181D01*
X81647000Y-50069181D01*
X81647000Y-51263000D01*
X83933000Y-51263000D01*
X83933000Y-50063750D01*
X84187000Y-50063750D01*
X84187000Y-51263000D01*
X85386250Y-51263000D01*
X85545000Y-51104250D01*
X85545000Y-50413690D01*
X85448327Y-50180301D01*
X85269698Y-50001673D01*
X85036309Y-49905000D01*
X84345750Y-49905000D01*
X84187000Y-50063750D01*
X83933000Y-50063750D01*
X83774250Y-49905000D01*
X83083691Y-49905000D01*
X82850302Y-50001673D01*
X82671673Y-50180301D01*
X82583070Y-50394208D01*
X82401358Y-50194817D01*
X81876892Y-49948514D01*
X81647000Y-50069181D01*
X81393000Y-50069181D01*
X81163108Y-49948514D01*
X80638642Y-50194817D01*
X80248355Y-50623076D01*
X80078524Y-51033110D01*
X78469253Y-51033110D01*
X78287765Y-50911843D01*
X78040000Y-50862560D01*
X76540000Y-50862560D01*
X76292235Y-50911843D01*
X76082191Y-51052191D01*
X75941843Y-51262235D01*
X75892560Y-51510000D01*
X75892560Y-54510000D01*
X75930591Y-54701195D01*
X75562862Y-54333466D01*
X75035439Y-54115000D01*
X74464561Y-54115000D01*
X73937138Y-54333466D01*
X73533466Y-54737138D01*
X73480000Y-54866216D01*
X73426534Y-54737138D01*
X73022862Y-54333466D01*
X72495439Y-54115000D01*
X71924561Y-54115000D01*
X71397138Y-54333466D01*
X70993466Y-54737138D01*
X70940000Y-54866216D01*
X70886534Y-54737138D01*
X70482862Y-54333466D01*
X69955439Y-54115000D01*
X69384561Y-54115000D01*
X68857138Y-54333466D01*
X68516722Y-54673882D01*
X68527440Y-54620000D01*
X68527440Y-51620000D01*
X68478157Y-51372235D01*
X68337809Y-51162191D01*
X68127765Y-51021843D01*
X67880000Y-50972560D01*
X67149278Y-50972560D01*
X67207108Y-50914730D01*
X69978037Y-50914730D01*
X70060270Y-50931087D01*
X70142503Y-50914730D01*
X70142507Y-50914730D01*
X70386071Y-50866282D01*
X70662271Y-50681731D01*
X70708857Y-50612010D01*
X74495868Y-46825000D01*
X75035439Y-46825000D01*
X75562862Y-46606534D01*
X75930591Y-46238805D01*
X75892560Y-46430000D01*
X75892560Y-49430000D01*
X75941843Y-49677765D01*
X76082191Y-49887809D01*
X76292235Y-50028157D01*
X76540000Y-50077440D01*
X78040000Y-50077440D01*
X78287765Y-50028157D01*
X78497809Y-49887809D01*
X78638157Y-49677765D01*
X78687440Y-49430000D01*
X78687440Y-46430000D01*
X78638157Y-46182235D01*
X78497809Y-45972191D01*
X78287765Y-45831843D01*
X78040000Y-45782560D01*
X76540000Y-45782560D01*
X76292235Y-45831843D01*
X76082191Y-45972191D01*
X76029283Y-46051373D01*
X76185000Y-45675439D01*
X76185000Y-45104561D01*
X75966534Y-44577138D01*
X75562862Y-44173466D01*
X75035439Y-43955000D01*
X74464561Y-43955000D01*
X73937138Y-44173466D01*
X73533466Y-44577138D01*
X73480000Y-44706216D01*
X73426534Y-44577138D01*
X73022862Y-44173466D01*
X72495439Y-43955000D01*
X71924561Y-43955000D01*
X71397138Y-44173466D01*
X70993466Y-44577138D01*
X70940000Y-44706216D01*
X70886534Y-44577138D01*
X70482862Y-44173466D01*
X69955439Y-43955000D01*
X69384561Y-43955000D01*
X68857138Y-44173466D01*
X68453466Y-44577138D01*
X68235000Y-45104561D01*
X68235000Y-45675439D01*
X68390717Y-46051373D01*
X68337809Y-45972191D01*
X68127765Y-45831843D01*
X67880000Y-45782560D01*
X66380000Y-45782560D01*
X66132235Y-45831843D01*
X65922191Y-45972191D01*
X65781843Y-46182235D01*
X65732560Y-46430000D01*
X65732560Y-49430000D01*
X65781843Y-49677765D01*
X65902205Y-49857897D01*
X62198480Y-53561623D01*
X62128762Y-53608207D01*
X62082178Y-53677925D01*
X61944210Y-53884408D01*
X61879405Y-54210208D01*
X59990000Y-54210208D01*
X59990000Y-34280000D01*
X94795908Y-34280000D01*
X94911161Y-34859418D01*
X95239375Y-35350625D01*
X95730582Y-35678839D01*
X96163744Y-35765000D01*
X96456256Y-35765000D01*
X96889418Y-35678839D01*
X97380625Y-35350625D01*
X97580000Y-35052239D01*
X97779375Y-35350625D01*
X98270582Y-35678839D01*
X98703744Y-35765000D01*
X98996256Y-35765000D01*
X99429418Y-35678839D01*
X99920625Y-35350625D01*
X100120000Y-35052239D01*
X100319375Y-35350625D01*
X100810582Y-35678839D01*
X101243744Y-35765000D01*
X101536256Y-35765000D01*
X101969418Y-35678839D01*
X102460625Y-35350625D01*
X102660000Y-35052239D01*
X102859375Y-35350625D01*
X103350582Y-35678839D01*
X103783744Y-35765000D01*
X104076256Y-35765000D01*
X104509418Y-35678839D01*
X105000625Y-35350625D01*
X105213843Y-35031522D01*
X105274817Y-35161358D01*
X105703076Y-35551645D01*
X106113110Y-35721476D01*
X106343000Y-35600155D01*
X106343000Y-34407000D01*
X106597000Y-34407000D01*
X106597000Y-35600155D01*
X106826890Y-35721476D01*
X107236924Y-35551645D01*
X107665183Y-35161358D01*
X107740000Y-35002046D01*
X107814817Y-35161358D01*
X108243076Y-35551645D01*
X108653110Y-35721476D01*
X108883000Y-35600155D01*
X108883000Y-34407000D01*
X109137000Y-34407000D01*
X109137000Y-35600155D01*
X109366890Y-35721476D01*
X109776924Y-35551645D01*
X110205183Y-35161358D01*
X110280000Y-35002046D01*
X110354817Y-35161358D01*
X110783076Y-35551645D01*
X111193110Y-35721476D01*
X111423000Y-35600155D01*
X111423000Y-34407000D01*
X109137000Y-34407000D01*
X108883000Y-34407000D01*
X106597000Y-34407000D01*
X106343000Y-34407000D01*
X106323000Y-34407000D01*
X106323000Y-34153000D01*
X106343000Y-34153000D01*
X106343000Y-31867000D01*
X106597000Y-31867000D01*
X106597000Y-34153000D01*
X108883000Y-34153000D01*
X108883000Y-31867000D01*
X109137000Y-31867000D01*
X109137000Y-34153000D01*
X111423000Y-34153000D01*
X111423000Y-31867000D01*
X109137000Y-31867000D01*
X108883000Y-31867000D01*
X106597000Y-31867000D01*
X106343000Y-31867000D01*
X106323000Y-31867000D01*
X106323000Y-31613000D01*
X106343000Y-31613000D01*
X106343000Y-30419845D01*
X106597000Y-30419845D01*
X106597000Y-31613000D01*
X108883000Y-31613000D01*
X108883000Y-30419845D01*
X109137000Y-30419845D01*
X109137000Y-31613000D01*
X111423000Y-31613000D01*
X111423000Y-30419845D01*
X111677000Y-30419845D01*
X111677000Y-31613000D01*
X111697000Y-31613000D01*
X111697000Y-31867000D01*
X111677000Y-31867000D01*
X111677000Y-34153000D01*
X111697000Y-34153000D01*
X111697000Y-34407000D01*
X111677000Y-34407000D01*
X111677000Y-35600155D01*
X111906890Y-35721476D01*
X112316924Y-35551645D01*
X112745183Y-35161358D01*
X112806157Y-35031522D01*
X113019375Y-35350625D01*
X113510582Y-35678839D01*
X113943744Y-35765000D01*
X114236256Y-35765000D01*
X114669418Y-35678839D01*
X115160625Y-35350625D01*
X115488839Y-34859418D01*
X115604092Y-34280000D01*
X115488839Y-33700582D01*
X115160625Y-33209375D01*
X114862239Y-33010000D01*
X115160625Y-32810625D01*
X115488839Y-32319418D01*
X115604092Y-31740000D01*
X115488839Y-31160582D01*
X115160625Y-30669375D01*
X114669418Y-30341161D01*
X114236256Y-30255000D01*
X113943744Y-30255000D01*
X113510582Y-30341161D01*
X113019375Y-30669375D01*
X112806157Y-30988478D01*
X112745183Y-30858642D01*
X112316924Y-30468355D01*
X111906890Y-30298524D01*
X111677000Y-30419845D01*
X111423000Y-30419845D01*
X111193110Y-30298524D01*
X110783076Y-30468355D01*
X110354817Y-30858642D01*
X110280000Y-31017954D01*
X110205183Y-30858642D01*
X109776924Y-30468355D01*
X109366890Y-30298524D01*
X109137000Y-30419845D01*
X108883000Y-30419845D01*
X108653110Y-30298524D01*
X108243076Y-30468355D01*
X107814817Y-30858642D01*
X107740000Y-31017954D01*
X107665183Y-30858642D01*
X107236924Y-30468355D01*
X106826890Y-30298524D01*
X106597000Y-30419845D01*
X106343000Y-30419845D01*
X106113110Y-30298524D01*
X105703076Y-30468355D01*
X105274817Y-30858642D01*
X105213843Y-30988478D01*
X105000625Y-30669375D01*
X104509418Y-30341161D01*
X104076256Y-30255000D01*
X103783744Y-30255000D01*
X103350582Y-30341161D01*
X102859375Y-30669375D01*
X102660000Y-30967761D01*
X102460625Y-30669375D01*
X101969418Y-30341161D01*
X101536256Y-30255000D01*
X101243744Y-30255000D01*
X100810582Y-30341161D01*
X100319375Y-30669375D01*
X100120000Y-30967761D01*
X99920625Y-30669375D01*
X99429418Y-30341161D01*
X98996256Y-30255000D01*
X98703744Y-30255000D01*
X98270582Y-30341161D01*
X97779375Y-30669375D01*
X97767184Y-30687619D01*
X97758157Y-30642235D01*
X97617809Y-30432191D01*
X97407765Y-30291843D01*
X97160000Y-30242560D01*
X95460000Y-30242560D01*
X95212235Y-30291843D01*
X95002191Y-30432191D01*
X94861843Y-30642235D01*
X94812560Y-30890000D01*
X94812560Y-32590000D01*
X94861843Y-32837765D01*
X95002191Y-33047809D01*
X95212235Y-33188157D01*
X95257619Y-33197184D01*
X95239375Y-33209375D01*
X94911161Y-33700582D01*
X94795908Y-34280000D01*
X59990000Y-34280000D01*
X59990000Y-25880000D01*
X154570000Y-25880000D01*
X154570001Y-119460000D01*
G04 #@! TD*
M02*
