M48
;DRILL file {KiCad (5.0.0-rc2-dev-787-g2d812c2)} date 
;FORMAT={-:-/ absolute / metric / decimal}
FMAT,2
METRIC,TZ
T1C0.500
T2C0.600
T3C1.000
T4C1.200
T5C1.800
%
G90
G05
M71
T2
X62.22Y-27.25
X62.22Y-37.25
X62.22Y-49.75
X67.22Y-102.25
X69.72Y-72.25
X72.22Y-27.25
X72.22Y-37.25
X74.41Y-60.67
X74.71Y-78.42
X82.22Y-27.25
X82.22Y-37.25
X89.67Y-68.38
X92.54Y-63.69
X94.72Y-37.25
X94.72Y-47.25
X95.054Y-64.857
X96.468Y-77.622
X97.17Y-100.59
X100.51Y-89.01
X102.22Y-59.75
X102.22Y-72.25
X108.07Y-61.1
X109.72Y-27.25
X109.76Y-80.43
X110.17Y-47.39
X111.39Y-53.711
X111.89Y-70.43
X112.11Y-99.1
X114.52Y-96.85
X115.08Y-72.33
X115.34Y-70.55
X116.429Y-55.395
X116.5Y-53.595
X116.72Y-86.75
X117.76Y-70.41
X119.52Y-72.016
X119.72Y-27.25
X121.32Y-85.85
X121.4Y-52.05
X127.22Y-117.25
X129.72Y-27.25
X129.72Y-37.25
X137.22Y-117.25
X139.72Y-27.25
X139.72Y-37.25
X142.22Y-54.75
X142.3Y-61.39
X144.07Y-67.96
X145.26Y-70.37
X145.95Y-65.44
X149.422Y-62.917
X149.72Y-27.25
X149.72Y-37.25
X152.72Y-52.25
T3
X84.07Y-30.9
X99.12Y-67.55
X103.21Y-51.78
X113.93Y-62.
X114.01Y-78.5
X114.82Y-47.85
X115.28Y-64.41
X135.73Y-66.76
X124.73Y-51.37
X124.73Y-53.91
X124.73Y-56.45
X124.73Y-58.99
X124.73Y-61.53
X124.73Y-64.07
X124.73Y-66.61
X124.73Y-69.15
X124.73Y-71.69
X124.73Y-74.23
X96.31Y-31.74
X96.31Y-34.28
X98.85Y-31.74
X98.85Y-34.28
X101.39Y-31.74
X101.39Y-34.28
X103.93Y-31.74
X103.93Y-34.28
X106.47Y-31.74
X106.47Y-34.28
X109.01Y-31.74
X109.01Y-34.28
X111.55Y-31.74
X111.55Y-34.28
X114.09Y-31.74
X114.09Y-34.28
X81.52Y-51.39
X81.52Y-53.93
X81.52Y-56.47
X81.52Y-59.01
X81.52Y-61.55
X81.52Y-64.09
X81.52Y-66.63
X81.52Y-69.17
X81.52Y-71.71
X81.52Y-74.25
X81.52Y-76.79
X81.52Y-79.33
X81.52Y-81.87
X81.52Y-84.41
X81.52Y-86.95
X81.52Y-89.49
X81.52Y-92.03
X81.52Y-94.57
X81.52Y-97.11
X81.52Y-99.65
X81.52Y-102.19
X81.52Y-104.73
X81.52Y-107.27
X84.06Y-51.39
X84.06Y-53.93
X84.06Y-56.47
X84.06Y-59.01
X84.06Y-61.55
X84.06Y-64.09
X84.06Y-66.63
X84.06Y-69.17
X84.06Y-71.71
X84.06Y-74.25
X84.06Y-76.79
X84.06Y-79.33
X84.06Y-81.87
X84.06Y-84.41
X84.06Y-86.95
X84.06Y-89.49
X84.06Y-92.03
X84.06Y-94.57
X84.06Y-97.11
X84.06Y-99.65
X84.06Y-102.19
X84.06Y-104.73
X84.06Y-107.27
X67.13Y-47.93
X67.13Y-53.12
X69.67Y-45.39
X69.67Y-55.55
X72.21Y-45.39
X72.21Y-55.55
X74.75Y-45.39
X74.75Y-55.55
X77.29Y-47.93
X77.29Y-53.01
X129.79Y-51.41
X129.79Y-53.95
X129.79Y-56.49
X129.79Y-59.03
X129.79Y-61.57
X129.79Y-64.11
X129.79Y-66.65
X129.79Y-69.19
X129.79Y-71.73
X129.79Y-74.27
X129.79Y-76.81
X129.79Y-79.35
X129.79Y-81.89
X129.79Y-84.43
X129.79Y-86.97
X129.79Y-89.51
X129.79Y-92.05
X129.79Y-94.59
X129.79Y-97.13
X129.79Y-99.67
X129.79Y-102.21
X129.79Y-104.75
X129.79Y-107.29
X132.33Y-51.41
X132.33Y-53.95
X132.33Y-56.49
X132.33Y-59.03
X132.33Y-61.57
X132.33Y-64.11
X132.33Y-66.65
X132.33Y-69.19
X132.33Y-71.73
X132.33Y-74.27
X132.33Y-76.81
X132.33Y-79.35
X132.33Y-81.89
X132.33Y-84.43
X132.33Y-86.97
X132.33Y-89.51
X132.33Y-92.05
X132.33Y-94.59
X132.33Y-97.13
X132.33Y-99.67
X132.33Y-102.21
X132.33Y-104.75
X132.33Y-107.29
T4
X64.74Y-114.17
X67.28Y-114.17
X69.82Y-114.17
T5
X109.03Y-41.87
T1
X139.08Y-84.5G85X139.08Y-83.5
G05
X102.08Y-104.5G85X102.08Y-103.5
G05
X75.92Y-83.5G85X75.92Y-84.5
G05
X139.08Y-114.5G85X139.08Y-113.5
G05
X139.08Y-94.5G85X139.08Y-93.5
G05
X139.08Y-104.5G85X139.08Y-103.5
G05
X75.92Y-93.5G85X75.92Y-94.5
G05
X102.08Y-84.5G85X102.08Y-83.5
G05
X98.92Y-83.5G85X98.92Y-84.5
G05
X98.92Y-103.5G85X98.92Y-104.5
G05
X102.08Y-114.5G85X102.08Y-113.5
G05
X102.08Y-94.5G85X102.08Y-93.5
G05
X98.92Y-93.5G85X98.92Y-94.5
G05
X98.92Y-113.5G85X98.92Y-114.5
G05
T2
X64.52Y-93.65G85X64.52Y-94.35
G05
X67.62Y-93.55G85X67.62Y-94.45
G05
X87.52Y-93.65G85X87.52Y-94.35
G05
X90.62Y-93.55G85X90.62Y-94.45
G05
X87.52Y-113.65G85X87.52Y-114.35
G05
X90.62Y-113.55G85X90.62Y-114.45
G05
X110.38Y-84.45G85X110.38Y-83.55
G05
X113.48Y-84.35G85X113.48Y-83.65
G05
X147.38Y-84.45G85X147.38Y-83.55
G05
X150.48Y-84.35G85X150.48Y-83.65
G05
X110.38Y-104.45G85X110.38Y-103.55
G05
X113.48Y-104.35G85X113.48Y-103.65
G05
X64.52Y-83.65G85X64.52Y-84.35
G05
X67.62Y-83.55G85X67.62Y-84.45
G05
X147.38Y-114.45G85X147.38Y-113.55
G05
X150.48Y-114.35G85X150.48Y-113.65
G05
X147.38Y-94.45G85X147.38Y-93.55
G05
X150.48Y-94.35G85X150.48Y-93.65
G05
X87.52Y-83.65G85X87.52Y-84.35
G05
X90.62Y-83.55G85X90.62Y-84.45
G05
X147.38Y-104.45G85X147.38Y-103.55
G05
X150.48Y-104.35G85X150.48Y-103.65
G05
X87.52Y-103.65G85X87.52Y-104.35
G05
X90.62Y-103.55G85X90.62Y-104.45
G05
X110.38Y-114.45G85X110.38Y-113.55
G05
X113.48Y-114.35G85X113.48Y-113.65
G05
X110.38Y-94.45G85X110.38Y-93.55
G05
X113.48Y-94.35G85X113.48Y-93.65
G05
T0
M30
